<svg width="260" height="563" viewBox="0 0 260 563" fill="none" xmlns="http://www.w3.org/2000/svg">
<path fill-rule="evenodd" clip-rule="evenodd" d="M53.3487 0V0.0094705C53.4249 0.00319806 53.5019 0 53.5797 0C55.1106 0 56.351 1.24158 56.351 2.77314V4.15704C56.351 13.3426 63.8065 20.7852 73.0032 20.7852H186.812C196.008 20.7852 203.464 13.3405 203.464 4.15704V0H234.411C248.442 0 259.815 11.373 259.815 25.4042V537.182C259.815 551.213 248.442 562.587 234.411 562.587H25.4038C11.3737 562.587 0 551.214 0 537.182V25.4042C0 11.3738 11.3729 0 25.4038 0H53.3487Z" fill="#002952"/>
</svg>
