<svg fill="none" height="563" viewBox="0 0 260 563" width="260" xmlns="http://www.w3.org/2000/svg"><path clip-rule="evenodd" d="m53.3487 0v.0094705c.0762-.00627244.1532-.0094705.231-.0094705 1.5309 0 2.7713 1.24158 2.7713 2.77314v1.3839c0 9.18556 7.4555 16.62816 16.6522 16.62816h113.8088c9.196 0 16.652-7.4447 16.652-16.62816v-4.15704h30.947c14.031 0 25.404 11.373 25.404 25.4042v511.7778c0 14.031-11.373 25.405-25.404 25.405h-209.0072c-14.0301 0-25.4038-11.373-25.4038-25.405v-511.7778c0-14.0304 11.3729-25.4042 25.4038-25.4042z" fill="#002952" fill-rule="evenodd"/></svg>