<svg fill="none" height="42" viewBox="0 0 120 42" width="120" xmlns="http://www.w3.org/2000/svg"><g fill="#363636"><path d="m51.2105 26.878 7.9152-9.3661h-7.4204v-4.2874h13.9503v3.6937l-7.882 9.3662h8.1785v4.2873h-14.7416z"/><path d="m76.6806 30.9015c-1.5168 0-2.8693-.2309-4.0563-.6926-1.1875-.4837-2.1877-1.1323-3.0012-1.9457-.7914-.8135-1.3963-1.748-1.8137-2.8033-.4178-1.0554-.6267-2.1657-.6267-3.3309 0-1.2532.1978-2.4405.5935-3.5618.4178-1.1213 1.0224-2.0997 1.8137-2.9352.8135-.8354 1.8031-1.495 2.9684-1.9787 1.1871-.5057 2.5613-.7586 4.1223-.7586 1.5392 0 2.9024.2529 4.0894.7586 1.1875.4837 2.1767 1.1433 2.9684 1.9787.8135.8135 1.4181 1.7699 1.8138 2.8692.4177 1.0774.6266 2.2097.6266 3.3969 0 .3298-.0221.6706-.0659 1.0224-.0221.3298-.0549.6266-.0991.8904h-12.1693c.0659.9234.4067 1.594 1.0223 2.0118.6157.3957 1.2862.5936 2.0116.5936.6816 0 1.3193-.1539 1.9129-.4617.6156-.3078 1.0223-.7366 1.2202-1.2862l5.3097 1.517c-.7034 1.3852-1.7917 2.5175-3.265 3.3969-1.4508.8795-3.2428 1.3192-5.3756 1.3192zm2.7705-10.8502c-.1102-.8355-.4178-1.4951-.9236-1.9788-.5055-.4837-1.1543-.7255-1.9457-.7255-.7917 0-1.4401.2418-1.946.7255-.5054.4837-.8134 1.1433-.9232 1.9788z"/><path d="m100.009 18.5672c-1.2087 0-2.3081.1319-3.2973.3958-.9896.2638-1.7261.7035-2.2098 1.3191v10.2896h-6.2661v-17.3472h5.7385v3.298c.6156-1.1653 1.3742-2.0557 2.2757-2.6714.9233-.6376 1.9125-.9564 2.968-.9564.4178 0 .6816.011.791.033z"/><path d="m110.498 30.9015c-1.561 0-2.936-.2418-4.123-.7255-1.165-.5057-2.155-1.1653-2.968-1.9788-.792-.8355-1.396-1.7919-1.814-2.8692-.396-1.0993-.594-2.2426-.594-3.4299 0-1.1872.198-2.3195.594-3.3969.418-1.0993 1.022-2.0557 1.814-2.8692.813-.8354 1.803-1.495 2.968-1.9787 1.187-.5057 2.562-.7586 4.123-.7586 1.538 0 2.902.2529 4.089.7586 1.187.4837 2.177 1.1433 2.968 1.9787.814.8135 1.418 1.7699 1.814 2.8692.418 1.0774.626 2.2097.626 3.3969 0 1.1873-.208 2.3306-.626 3.4299-.396 1.0773-1 2.0337-1.814 2.8692-.791.8135-1.781 1.4731-2.968 1.9788-1.187.4837-2.551.7255-4.089.7255zm-3.068-9.0034c0 1.1653.286 2.0777.858 2.7373s1.308.9894 2.21.9894c.901 0 1.638-.3298 2.209-.9894.572-.6596.858-1.572.858-2.7373 0-1.1652-.286-2.0777-.858-2.7373-.571-.6596-1.308-.9894-2.209-.9894-.902 0-1.638.3298-2.21.9894s-.858 1.5721-.858 2.7373z"/></g><path d="m21 42c11.598 0 21-9.402 21-21 0-11.59798-9.402-21-21-21-11.59798 0-21 9.40202-21 21 0 11.598 9.40202 21 21 21z" fill="#313ebd"/></svg>