<svg width="87" height="32" viewBox="0 0 87 32" fill="none" xmlns="http://www.w3.org/2000/svg">
<g clip-path="url(#clip0)">
<path d="M46.786 16.4654C46.4053 12.6907 44.7571 10.815 43.3148 9.5614C41.6032 8.07507 39.3566 7.1882 37.3051 7.1882C33.9506 7.1882 31.1614 8.41072 29.0145 10.8214C26.8708 13.2278 25.8295 16.2284 25.8295 19.9947C25.8295 23.7008 26.8365 26.6542 28.8204 28.7722C30.7561 30.8386 33.5463 31.985 36.6788 32C39.0016 32 41.0016 31.3866 42.6241 30.1791C44.2102 28.9984 45.3909 27.7544 46.1341 26.4815L46.386 26.0503L45.3801 25.3791L45.0756 25.6333C43.0852 27.2944 40.8965 28.1373 38.5716 28.1373C36.1791 28.1373 34.1148 27.2772 32.7582 25.7158C31.3437 24.0868 30.6262 21.8156 30.6262 18.9651V18.6563L46.8333 18.6553C46.8322 18.6542 46.8847 17.4359 46.786 16.4654ZM30.8011 16.5276C31.1035 14.296 31.823 12.3925 32.83 11.1603C33.8788 9.87775 35.1743 9.2268 36.681 9.2268C40.519 9.2268 41.6772 13.9485 41.7619 16.5265L30.8011 16.5276Z" fill="white"/>
<path d="M23.2955 24.5694C21.5056 27.4124 18.3507 29.304 16.2907 29.304H6.02681L23.3748 0.739949V0H1.60965L0.374268 6.27346H1.31582C1.31582 6.27346 1.6933 5.80375 1.81877 5.64611C3.33084 3.75335 4.30671 2.25523 7.47561 2.25523H17.5185L0 30.8182V31.5593H22.8622L24.237 24.5694H23.2955Z" fill="white"/>
<path d="M82.9673 10.7507C80.5952 8.38712 77.7502 7.1882 74.5083 7.1882C71.2665 7.1882 68.4246 8.38391 66.0611 10.741C63.6965 13.0981 62.4976 16.0471 62.4976 19.5056C62.4976 22.9608 63.6794 25.9367 66.0118 28.3518C68.3474 30.7711 71.2064 31.9979 74.5094 31.9979C77.8124 31.9979 80.6756 30.7603 83.0188 28.3185C85.3577 25.882 86.5352 22.9093 86.5212 19.4852C86.5352 16.0547 85.3394 13.1153 82.9673 10.7507ZM78.3678 28.6091C77.3083 29.6868 76.0461 30.2102 74.5094 30.2102C72.9716 30.2102 71.7019 29.6868 70.6294 28.6091C68.5963 26.5394 67.5657 23.4917 67.5657 19.5485C67.5657 16.5748 68.2124 14.0236 69.4895 11.9678C70.726 9.95389 72.3614 8.97587 74.4879 8.97587C76.6166 8.97587 78.267 9.95603 79.5325 11.9722C80.8214 14.0257 81.4681 16.5748 81.4542 19.5474C81.4392 23.5045 80.4011 26.5544 78.3678 28.6091Z" fill="white"/>
<path d="M57.8971 30.5148C56.4418 30.1512 56.0333 29.586 55.6011 28.9876C55.1968 28.4278 55.1196 27.3362 55.1196 25.5164V7.46809H54.4289L54.3249 7.50563C51.4445 8.7764 49.8884 9.38338 48.0707 9.46595L47.6482 9.48526V10.415L47.9689 10.5072C49.4359 10.9286 49.7426 11.3887 50.1308 11.9732L50.1587 12.015C50.414 12.4108 50.7174 13.3683 50.7174 15.6836V25.5217C50.7292 27.126 50.6895 28.6928 50.3132 29.289C49.9603 29.8477 49.7362 30.1341 48.4997 30.5244L48.1898 30.622V31.5624H58.2317V30.6005L57.8971 30.5148Z" fill="white"/>
<path d="M59.9764 13.1217C59.1507 13.1217 58.4408 12.83 57.8659 12.2552C57.2911 11.6815 56.9995 10.978 56.9995 10.1651C56.9995 9.33941 57.2911 8.62949 57.8659 8.05469C58.4408 7.47989 59.1507 7.1882 59.9764 7.1882C60.8011 7.1882 61.5111 7.47989 62.0868 8.05469C62.6617 8.62949 62.9534 9.33941 62.9534 10.1641C62.9534 10.9887 62.6617 11.6987 62.0868 12.2746C61.5067 12.8397 60.7989 13.1217 59.9764 13.1217Z" fill="url(#paint0_linear)"/>
</g>
<defs>
<linearGradient id="paint0_linear" x1="57.8766" y1="12.2655" x2="62.0872" y2="8.05494" gradientUnits="userSpaceOnUse">
<stop stop-color="#0F119B"/>
<stop offset="0.1684" stop-color="#0F1BA5"/>
<stop offset="0.4551" stop-color="#0D36BF"/>
<stop offset="0.8229" stop-color="#0B62E8"/>
<stop offset="1" stop-color="#0A79FF"/>
</linearGradient>
<clipPath id="clip0">
<rect width="86.6133" height="32" fill="white"/>
</clipPath>
</defs>
</svg>
