<?xml version="1.0" encoding="utf-8"?>
<!-- Generator: Adobe Illustrator 19.2.1, SVG Export Plug-In . SVG Version: 6.00 Build 0)  -->
<svg version="1.1" id="layer" xmlns="http://www.w3.org/2000/svg" xmlns:xlink="http://www.w3.org/1999/xlink" x="0px" y="0px"
	 viewBox="0 0 652 652" style="enable-background:new 0 0 652 652;" xml:space="preserve">
<style type="text/css">
	.st0{fill:#003DA5;}
</style>
<g>
	<path class="st0" d="M499.3,421.6c0,31.8-5.9,71.3-62.7,96.6c-5.2-2.3-9.9-4.7-14.3-7.3c0.8-7.1,1.2-14.5,1.2-22.2V378.7h-49.6
		v-41.4h62.7h62.7V421.6 M436.6,318.6h-81.4v91.7c0,42.1,14.6,71.4,40.2,91.8l0-12.8c-18.7-21.6-21.4-46.4-21.4-67.6v-24h30.8v104.7
		c0,38.2-10.7,86.8-78.9,117.3c-64.8-28.9-77.7-74.3-78.8-111.5c30.6-20.5,48.3-51.4,48.3-97.8v-12.7h30.5h19.5v-18.9h-19.5h-30.5v0
		h-18.7v0h-48.5v110.1c0,3.8,0.1,7.6,0.3,11.3v0c7.4-4.8,13.4-9.9,18.5-15.2v-87.2h29.7v24c0,31.8-5.9,71.3-62.7,96.6
		c-56.8-25.4-62.7-64.8-62.7-96.6v-84.3h62.7h62.7v32.2h18.7v-51h-81.4h-81.4v91.7c0,61.2,31,95.4,81.4,114.5
		c5.7-2.1,11.1-4.5,16.3-7.1c8.7,55.6,43.5,88.7,95.6,108.4c51.9-19.6,86.6-52.6,95.5-107.9c4.9,2.4,10,4.5,15.3,6.5
		C487,505.7,518,471.5,518,410.3v-91.7H436.6z"/>
	<path d="M169.5,268.8v-3.7c3.1-1.4,5.1-2.5,5.9-3.4c0.5-0.4,0.9-1,1-1.7c0.5-1.3,0.7-4.2,0.9-8.7c0.3-6.6,0.4-10.6,0.4-11.8v-39.2
		c0-6.6-0.1-13-0.4-19.3c-0.1-4.6-0.5-7.3-1.1-8.2c-0.6-0.9-1.5-1.5-2.7-1.9c-1.3-0.4-4.9-0.7-10.7-0.7v-4.6
		c12.3,0.3,19.9,0.4,22.8,0.4c3.2,0,10.5-0.1,21.7-0.4v4.6c-6,0.1-9.7,0.3-10.9,0.7c-1.3,0.4-2.2,1-2.7,1.8c-0.6,1-1,3.3-1.1,7
		c-0.1,1-0.2,7.8-0.4,20.6v48.9c0,5.1,0.1,9.2,0.4,12.5c5.8,0.3,6.4,0.4,12.1,0.4c14.3,0,24.9-0.9,30.6-2.6c0.7-1.5,1.3-3.1,1.7-5
		l3-12h5c-1.1,7.2-2.2,15.6-3.3,25.4c-2.1,0.4-3.7,0.6-4.9,0.7c-2.6,0.1-6.7,0.1-12.1,0.1l-40.4-0.4
		C179.5,268.3,174.5,268.5,169.5,268.8"/>
	<path d="M284.4,179.8c-0.1,1-0.2,7.8-0.4,20.6V234 M299,264.2v4.6c-10.7-0.3-17.7-0.4-21.1-0.4l-23.2,0.4v-4.6
		c5.9-0.1,9.4-0.4,10.7-0.8c1.3-0.4,2.2-1,2.7-1.7c0.6-1,1-3.3,1.1-7c0.1-1,0.2-7.9,0.4-20.7v-33.6c0-6.6-0.1-13-0.4-19.3
		c-0.2-4.6-0.5-7.3-1.1-8.2c-0.6-0.8-1.5-1.5-2.8-1.9c-1.3-0.4-4.9-0.7-10.7-0.7v-4.6c9.6,0.3,17,0.4,22.2,0.4
		c5,0,12.4-0.1,22.1-0.4v4.6c-5.9,0.1-9.5,0.3-10.8,0.7c-1.3,0.4-2.2,1-2.7,1.8c-0.6,1-1,3.3-1.1,7c-0.1,1-0.2,7.8-0.4,20.6V234
		c0,6.6,0.1,13.1,0.2,19.3c0.1,4.6,0.5,7.3,1.1,8.2c0.6,0.9,1.5,1.5,2.8,1.9C289.4,263.8,293,264.1,299,264.2"/>
	<path d="M315.7,268.8v-4.6c5.3,0,8.8-0.5,10.4-1.2c0.7-0.3,1.2-0.7,1.5-1.4c0.5-1,0.9-3.5,1.1-7.6c0.3-6.4,0.4-11.9,0.4-16.5v-59.1
		c0-1.6-0.1-2.7-0.3-3.1c-0.4-0.9-1.3-1.9-2.8-3.1c-0.9-0.8-2-1.3-3.2-1.5c-1.2-0.2-3.8-0.4-7.9-0.4v-4.6c8.7,0.3,14.2,0.4,16.5,0.4
		c3.8,0,7.6-0.1,11.4-0.4c4.2,5.4,7.3,9.3,9.3,11.9l15.5,18.5l22.5,26.4c7.2,8.4,13,15,17.4,19.8c2.8,3.2,5.1,5.7,7,7.5v-52.9
		c0-4.8-0.1-10.3-0.4-16.6c-0.2-4-0.6-6.5-1-7.5c-0.4-0.7-0.9-1.1-1.6-1.4c-1.7-0.7-5.2-1-10.5-1.1v-4.6c6,0.3,12,0.4,18.2,0.4
		c5.8,0,11-0.1,15.7-0.4v4.6c-5.3,0-8.8,0.4-10.4,1.1c-0.7,0.3-1.2,0.8-1.5,1.5c-0.5,0.9-0.9,3.5-1.1,7.6
		c-0.3,6.3-0.5,11.8-0.5,16.5v34.9c0,7.1,0.2,20.3,0.5,39.6h-7.5l-1.9-2c-0.3-0.1-0.9-0.8-1.2-1c-0.4-0.3-1.3-1.2-2.9-2.9
		c-4.2-4.6-7.3-8.1-9.2-10.5l-9.8-12l-53.7-62.2v56.3c0,4.8,0.1,10.4,0.5,17c0.2,4.1,0.5,6.6,1,7.5c0.4,0.7,0.9,1.2,1.6,1.5
		c1.7,0.7,5.2,1.1,10.5,1.2v4.6c-4.4-0.3-9.3-0.4-14.7-0.4C328.9,268.3,322.6,268.5,315.7,268.8"/>
	<path d="M492.5,264.2v4.6c-10.7-0.3-17.7-0.4-21.1-0.4l-23.2,0.4v-4.6c5.9-0.1,9.5-0.4,10.8-0.8c1.3-0.4,2.2-1,2.7-1.7
		c0.6-1,0.9-3.3,1.1-7c0.1-1,0.2-7.9,0.4-20.7v-33.6c0-6.6-0.1-13-0.4-19.3c-0.2-4.6-0.5-7.3-1.1-8.2c-0.6-0.8-1.5-1.5-2.7-1.9
		c-1.3-0.4-4.9-0.7-10.8-0.7v-4.6c9.6,0.3,17,0.4,22.2,0.4c5,0,12.4-0.1,22.1-0.4v4.6c-5.9,0.1-9.5,0.3-10.8,0.7
		c-1.3,0.4-2.1,1-2.7,1.8c-0.6,1-1,3.3-1.1,7c-0.1,1-0.2,7.8-0.4,20.6V234c0,6.6,0.1,13.1,0.2,19.3c0.1,4.6,0.5,7.3,1.1,8.2
		c0.6,0.9,1.5,1.5,2.8,1.9C482.9,263.8,486.5,264.1,492.5,264.2"/>
	<path d="M600.6,255.9l-3,6.8c-5.9,2.8-11.7,4.9-17.4,6.2c-5.7,1.3-11.8,1.9-18.5,1.9c-7.8,0-15.1-0.9-21.9-2.8
		c-6.7-1.9-12.6-4.6-17.6-8.1c-5-3.5-9.1-7.4-12.3-11.8c-3.2-4.4-5.6-9.1-7.3-14.2c-1.7-5.1-2.5-10.7-2.5-16.7
		c0-15.3,5.6-28.1,16.9-38.2c11.2-10.1,26.6-15.1,46.1-15.1c4.6,0,8.9,0.3,12.8,0.8c3.9,0.5,8.7,1.5,14.3,2.9
		c5.7,1.4,9.1,2.2,10.4,2.5c-1.1,2.6-1.9,5.2-2.5,7.8c-0.8,4.1-1.3,8.9-1.7,14.3h-4.6l-0.1-8.5c-0.5-4.7-3.2-8.3-8.3-10.6
		c-5-2.3-12.3-3.4-21.9-3.4c-7.2,0.1-13.3,1-18.3,2.6c-5,1.6-9.4,4.3-13.3,7.8c-3.8,3.6-7,8.1-9.4,13.6c-2.4,5.5-3.7,12.4-3.7,20.7
		c0,14.6,4.7,26.3,14,35.2c9.3,8.9,21.7,13.3,37.1,13.3c6.9,0,13.3-0.9,19.3-2.7c4-1.2,8-3.2,12-5.8L600.6,255.9"/>
	<path d="M150.8,255.9l-3,6.8c-5.9,2.8-11.7,4.9-17.4,6.2c-5.7,1.3-11.9,1.9-18.5,1.9c-7.8,0-15.1-0.9-21.9-2.8
		c-6.7-1.9-12.6-4.6-17.6-8.1c-5-3.5-9.1-7.4-12.4-11.8c-3.2-4.4-5.6-9.1-7.3-14.2c-1.7-5.1-2.5-10.7-2.5-16.7
		c0-15.3,5.6-28.1,16.9-38.2c11.3-10.1,26.7-15.1,46.1-15.1c4.6,0,8.9,0.3,12.8,0.8c3.9,0.5,8.7,1.5,14.3,2.9
		c5.6,1.4,9.1,2.2,10.4,2.5c-1.1,2.6-1.9,5.2-2.5,7.8c-0.8,4.1-1.3,8.9-1.6,14.3h-4.6l-0.1-8.5c-0.5-4.7-3.2-8.3-8.3-10.6
		c-5-2.3-12.3-3.4-21.9-3.4c-7.2,0.1-13.3,1-18.3,2.6c-5,1.6-9.5,4.3-13.3,7.8c-3.8,3.6-7,8.1-9.4,13.6c-2.4,5.5-3.7,12.4-3.7,20.7
		c0,14.6,4.7,26.3,14,35.2c9.3,8.9,21.7,13.3,37.1,13.3c6.9,0,13.3-0.9,19.3-2.7c4-1.2,8-3.2,12-5.8L150.8,255.9"/>
	<path d="M93.7,33.3v-4.8c5.3,0.4,10.4,0.6,15.2,0.6c4.9,0,9.6-0.2,14.1-0.6c4.5,9.7,8.5,18.1,12.2,25.3l28.8,56.4l26-51.6
		c7.1-14.1,11.8-24.1,14.2-30.1c5.3,0.4,9.8,0.6,13.5,0.6c3.4,0,8.8-0.2,16.4-0.6v4.8c-6,0.1-9.7,0.3-11,0.7c-1.3,0.4-2.2,1-2.7,1.7
		c-0.7,1-1,3.3-1.1,6.9c-0.1,1-0.2,7.8-0.4,20.4v33.3c0,6.6,0.1,12.9,0.4,19.1c0.1,4.5,0.5,7.2,1.1,8.1c0.6,0.9,1.5,1.5,2.8,1.9
		c1.3,0.4,4.9,0.7,10.9,0.8v4.6c-10.2-0.4-17.4-0.6-21.6-0.6c-3.4,0-10.8,0.2-22.4,0.6v-4.6c6-0.1,9.7-0.4,11-0.8
		c1.3-0.4,2.2-1,2.7-1.7c0.7-1,1-3.3,1.1-7c0.1-1,0.2-7.8,0.4-20.5V43.5l-26.2,52.2c-4.1,8.1-7.3,14.7-9.6,19.6
		c-1.7,3.6-4.2,9.3-7.6,17.2h-3c-0.7-1.9-1.3-3.4-1.8-4.4l-5.2-10.6l-36.3-71.6v50.5c0,6.5,0.2,12.9,0.6,19.1
		c0.1,4.6,0.5,7.2,1.1,8.1c0.6,0.9,1.5,1.5,2.8,1.9c1.3,0.4,4.9,0.7,11,0.8v4.6l-18.3-0.6l-19.1,0.6v-4.6c6-0.1,9.6-0.4,10.9-0.8
		c1.3-0.4,2.2-1,2.7-1.7c0.6-1,1-3.3,1.1-7c0.1-1,0.2-7.8,0.4-20.5V63.2c0-6.5-0.1-12.9-0.4-19.1c-0.1-4.5-0.5-7.2-1.1-8.1
		c-0.6-0.8-1.5-1.5-2.8-1.9C103.3,33.7,99.7,33.4,93.7,33.3"/>
	<path d="M293.7,47.4l19,43.5h-38.3L293.7,47.4 M255.1,130.6c4.3,0,10.7,0.1,19.2,0.5v-4.6c-4.7,0-8-0.3-9.9-0.7
		c-1.2-0.3-2-0.7-2.6-1.3c-0.4-0.4-0.6-1-0.6-1.7c0-1.5,0.7-4,2.2-7.3l8.2-18.6h44l9.4,22.2c0.7,1.7,1,3.1,1,4.1
		c0,0.7-0.2,1.2-0.7,1.7c-0.4,0.4-1.2,0.8-2.4,1.1c-1.2,0.2-4.7,0.4-10.3,0.5v4.6l24.4-0.5c3.1,0,8.7,0.1,16.6,0.5v-4.6
		c-4,0-6.6-0.3-7.7-0.9c-1.1-0.5-2.2-1.6-3.2-3.3c-1.7-3-5.2-10.4-10.5-22.2l-32.5-72.6H295c-6.8,15.5-11.2,25.5-13.3,29.9l-19,40.8
		c-5.7,11.8-9,18.6-9.9,20.4c-1.6,3.1-2.8,5.1-3.6,5.8c-0.8,0.7-1.7,1.2-2.7,1.5c-1,0.3-3.5,0.4-7.5,0.5v4.6
		C244.8,130.7,250.2,130.6,255.1,130.6"/>
	<path d="M416.8,43.9c3-4.6,4.5-7.3,4.5-8.1c0-0.9-0.4-1.5-1.4-1.9c-1-0.4-5.3-0.7-11.2-0.8v-4.6c9.4,0.3,14.9,0.4,20.1,0.4
		c5,0,7.8-0.1,17.7-0.4v4.6c-6,0.1-8.2,0.4-9.7,0.8c-1.6,0.4-2.8,1-3.9,1.8c-1.3,1-3.2,3.3-5.9,7l-22.2,31.8
		c-4.3,6.7-6.7,10.8-7.2,12.3c-0.6,1.5-0.8,3-0.8,4.3v5.5c0,6.5,0.1,12.9,0.4,19.1c0.1,4.6,0.5,7.2,1.1,8.1c0.6,0.8,1.5,1.5,2.8,1.9
		c1.2,0.4,4.8,0.7,10.7,0.8v4.6c-8.2-0.3-15.4-0.5-21.3-0.5c-5.8,0-13.4,0.1-22.8,0.5v-4.6c5.9-0.1,9.5-0.4,10.8-0.8
		c1.3-0.4,2.2-1,2.6-1.7c0.6-1,1.1-3.3,1.2-6.9c0.1-1,0.2-7.8,0.4-20.5v-8.4c-1.1-2.2-2.1-4.1-3.1-5.8c-0.7-1.2-3.3-5.3-7.7-12.4
		l-19.3-27.4c-2.4-3.7-4.1-6-5.3-7c-1-0.8-2.2-1.4-3.7-1.8c-1.5-0.4-3.5-0.7-9.6-0.8v-4.6c9.9,0.3,12.9,0.4,17.9,0.4
		c5.2,0,18.6-0.1,28-0.4v4.6c-5.8,0.1-11,0.4-12,0.8c-1,0.4-1.6,1-1.6,1.9c0,0.9,1.2,3.6,3.8,8.1l22.6,36.6L416.8,43.9"/>
	<path d="M445.6,100.7c2.5,6.9,6.1,12.8,10.8,17.6c4.8,4.8,10.5,8.5,17.4,11c6.9,2.4,14.3,3.7,22.2,3.7c17.4,0,31.8-5.4,43.3-16.2
		c11.4-10.8,17.2-24.3,17.2-40.5c0-5.1-0.6-9.8-1.7-14.3c-1.1-4.5-2.7-8.3-4.6-11.5c-2.5-4.4-6-8.5-10.3-12.1
		c-4.4-3.7-10-6.7-16.8-8.9c-6.8-2.3-14.4-3.4-22.7-3.4c-9,0-17.1,1.3-24.1,3.9c-7,2.6-13.3,6.5-18.9,11.6
		c-5.6,5.2-9.5,11-11.9,17.4c-2.4,6.5-3.6,13.5-3.6,21.1C441.9,87,443.1,93.8,445.6,100.7 M462.3,52.2c3-6.5,7.6-11.4,13.6-14.8
		C482,34,489,32.3,497,32.3c5.5,0,10.7,0.8,15.5,2.4c4.8,1.6,8.7,3.6,11.7,6c3,2.4,5.6,5.2,7.7,8.4c2.2,3.2,3.9,6.7,5.2,10.7
		c2.1,6.5,3.2,13.5,3.2,21.2c0,9-1.5,16.9-4.4,23.8c-2.9,6.9-7.4,12.2-13.4,15.9c-6,3.8-13.1,5.6-21.2,5.6c-5.8,0-11.2-0.9-16-2.8
		c-4.8-1.9-9.2-4.8-13.1-8.7c-3.9-3.9-7.1-8.8-9.5-14.5c-1.5-3.4-2.7-7.5-3.7-12.3c-1-4.7-1.4-9.4-1.4-13.9
		C457.7,66.1,459.2,58.7,462.3,52.2"/>
</g>
</svg>
