<svg fill="none" height="50" viewBox="0 0 322 100" width="161" xmlns="http://www.w3.org/2000/svg"><g fill="#313ebd"><path clip-rule="evenodd" d="m48.1066 81.3333c.4574 0 .9122-.0109 1.3642-.0326l.0011 5.433c3.0223.6788 5.2784 3.3536 5.2784 6.5499 0 3.7094-3.0386 6.7164-6.7869 6.7164-3.7484 0-6.787-3.007-6.787-6.7164 0-3.1963 2.2562-5.8711 5.2785-6.5499l.0003-5.4483c.5464.0318 1.097.0479 1.6514.0479zm-12.6091-2.9929-2.7732 4.8025c1.2145 1.411 1.4756 3.4768.5008 5.1651-1.2364 2.1417-3.9931 2.8649-6.1572 1.6155-2.1641-1.2495-2.9161-3.9985-1.6797-6.1401.9748-1.6883 2.8944-2.4952 4.7236-2.1489l2.7698-4.7983c.8418.5465 1.7149 1.0489 2.6159 1.5042zm-10.6936-9.4781-7.8677 4.5422c.9233 2.9568-.2651 6.2482-3.0332 7.8463-3.2124 1.8547-7.33585.7267-9.21002-2.5195-1.87416-3.2461-.7893-7.3811 2.42311-9.2358 2.76809-1.5982 6.21261-.9817 8.31161 1.2963l7.8372-4.5273c.4671.8955.9812 1.7625 1.539 2.5978zm-14.1411-19.6556c1.9496 0 3.6081 1.259 4.2228 3.0163l5.2426.0006c-.0144.3681-.0216.7381-.0216 1.1097 0 .6407.0215 1.2763.0638 1.9062l-5.2848.0002c-.6147 1.7573-2.2732 3.0163-4.2228 3.0163-2.47287 0-4.47757-2.0258-4.47757-4.5247 0-2.4988 2.0047-4.5246 4.47757-4.5246zm-.5341-23.7411c2.7681 1.5982 3.9565 4.8895 3.0332 7.8463l10.6261 6.1335c-.4989.8718-.9523 1.7729-1.3569 2.7002l-10.7777-6.221c-2.09902 2.278-5.54358 2.8945-8.31166 1.2964-3.212413-1.8547-4.297277-5.9898-2.423112-9.2359 1.874162-3.2462 5.997652-4.3742 9.210072-2.5195zm58.7302-7.9264c2.1641 1.2495 2.9161 3.9985 1.6796 6.1401-.9747 1.6883-2.8943 2.4952-4.7235 2.1489l-2.3578 4.0843c-.8391-.5511-1.7096-1.0583-2.6082-1.5183l2.3534-4.0744c-1.2145-1.411-1.4755-3.4768-.5008-5.1652 1.2365-2.1416 3.9932-2.8648 6.1573-1.6154zm-34.1239 3.1091c1.0068 1.7437.6953 3.8902-.6234 5.3019l1.3753 2.3815c-.9006.4555-1.7732.9582-2.6147 1.5048l-1.4345-2.4838c-1.7727.2604-3.5974-.548-4.5396-2.1798-1.2364-2.1416-.4844-4.8906 1.6797-6.1401 2.1641-1.2494 4.9208-.5262 6.1572 1.6155zm13.2284-20.6483c3.7483 0 6.7869 3.00704 6.7869 6.71642 0 3.1963-2.2561 5.87108-5.2784 6.54988l-.0011 12.0997c-.452-.0217-.9068-.0327-1.3642-.0327-.5544 0-1.105.0161-1.6514.0479l-.0003-12.1149c-3.0223-.6788-5.2785-3.35358-5.2785-6.54988 0-3.70938 3.0386-6.71642 6.787-6.71642z" fill-rule="evenodd"/><path d="m54.8799 43.0174c-.864-1.032-1.884-1.836-3.06-2.412-1.152-.6-2.316-.9-3.492-.9-1.416 0-2.712.348-3.888 1.044s-2.1 1.644-2.772 2.844-1.008 2.532-1.008 3.996.336 2.808 1.008 4.032c.672 1.2 1.596 2.16 2.772 2.88 1.176.696 2.472 1.044 3.888 1.044 1.128 0 2.268-.264 3.42-.792 1.176-.552 2.22-1.284 3.132-2.196l3.348 3.636c-1.344 1.392-2.928 2.496-4.752 3.312-1.8.816-3.612 1.224-5.436 1.224-2.472 0-4.716-.564-6.732-1.692-2.016-1.152-3.6-2.724-4.752-4.716s-1.728-4.212-1.728-6.66c0-2.424.588-4.62 1.764-6.588s2.784-3.516 4.824-4.644c2.064-1.128 4.344-1.692 6.84-1.692 1.824 0 3.624.384 5.4 1.152 1.776.744 3.288 1.764 4.536 3.06zm18.0231-8.28c2.52 0 4.812.564 6.876 1.692s3.684 2.688 4.86 4.68c1.2 1.968 1.8 4.164 1.8 6.588s-.6 4.632-1.8 6.624c-1.176 1.992-2.796 3.564-4.86 4.716-2.064 1.128-4.356 1.692-6.876 1.692s-4.812-.564-6.876-1.692c-2.064-1.152-3.696-2.712-4.896-4.68-1.176-1.992-1.764-4.212-1.764-6.66 0-2.424.588-4.62 1.764-6.588 1.2-1.992 2.82-3.552 4.86-4.68 2.064-1.128 4.368-1.692 6.912-1.692zm.072 4.968c-1.392 0-2.688.36-3.888 1.08-1.2.696-2.148 1.656-2.844 2.88s-1.044 2.568-1.044 4.032c0 1.488.348 2.844 1.044 4.068.72 1.224 1.668 2.196 2.844 2.916 1.2.72 2.496 1.08 3.888 1.08s2.664-.348 3.816-1.044c1.176-.72 2.1-1.692 2.772-2.916.696-1.248 1.044-2.616 1.044-4.104 0-1.464-.348-2.808-1.044-4.032-.672-1.224-1.596-2.184-2.772-2.88-1.152-.72-2.424-1.08-3.816-1.08zm32.676 20.628-3.996-7.2h-.54-5.2561v7.2h-5.688v-25.2h10.9441c3.288 0 5.832.768 7.632 2.304 1.8 1.512 2.7 3.66 2.7 6.444 0 1.944-.408 3.612-1.224 5.004-.792 1.368-1.956 2.412-3.492 3.132l5.364 8.316zm-9.7921-11.952h5.2561c1.584 0 2.796-.36 3.636-1.08.864-.744 1.296-1.824 1.296-3.24 0-1.392-.432-2.436-1.296-3.132-.84-.72-2.052-1.08-3.636-1.08h-5.2561zm32.0991-13.644c2.52 0 4.812.564 6.876 1.692s3.684 2.688 4.86 4.68c1.2 1.968 1.8 4.164 1.8 6.588s-.6 4.632-1.8 6.624c-1.176 1.992-2.796 3.564-4.86 4.716-2.064 1.128-4.356 1.692-6.876 1.692s-4.812-.564-6.876-1.692c-2.064-1.152-3.696-2.712-4.896-4.68-1.176-1.992-1.764-4.212-1.764-6.66 0-2.424.588-4.62 1.764-6.588 1.2-1.992 2.82-3.552 4.86-4.68 2.064-1.128 4.368-1.692 6.912-1.692zm.072 4.968c-1.392 0-2.688.36-3.888 1.08-1.2.696-2.148 1.656-2.844 2.88s-1.044 2.568-1.044 4.032c0 1.488.348 2.844 1.044 4.068.72 1.224 1.668 2.196 2.844 2.916 1.2.72 2.496 1.08 3.888 1.08s2.664-.348 3.816-1.044c1.176-.72 2.1-1.692 2.772-2.916.696-1.248 1.044-2.616 1.044-4.104 0-1.464-.348-2.808-1.044-4.032-.672-1.224-1.596-2.184-2.772-2.88-1.152-.72-2.424-1.08-3.816-1.08zm34.62-4.572h5.4v25.2h-5.184l-12.204-16.2v16.2h-5.436v-25.2h5.184l12.24 16.272zm29.559 25.2-1.98-4.896h-11.664l-1.98 4.896h-5.868l10.944-25.2h5.868l10.764 25.2zm-11.772-9.468h7.956l-3.96-9.792z"/><path d="m198.429 35.1334h21.06v4.824h-7.704v20.376h-5.688v-20.376h-7.668zm39.585 25.2-3.996-7.2h-.54-5.256v7.2h-5.688v-25.2h10.944c3.288 0 5.832.768 7.632 2.304 1.8 1.512 2.7 3.66 2.7 6.444 0 1.944-.408 3.612-1.224 5.004-.792 1.368-1.956 2.412-3.492 3.132l5.364 8.316zm-9.792-11.952h5.256c1.584 0 2.796-.36 3.636-1.08.864-.744 1.296-1.824 1.296-3.24 0-1.392-.432-2.436-1.296-3.132-.84-.72-2.052-1.08-3.636-1.08h-5.256zm38.975 11.952-1.98-4.896h-11.664l-1.98 4.896h-5.868l10.944-25.2h5.868l10.764 25.2zm-11.772-9.468h7.956l-3.96-9.792zm38.06-7.848c-.864-1.032-1.884-1.836-3.06-2.412-1.152-.6-2.316-.9-3.492-.9-1.416 0-2.712.348-3.888 1.044s-2.1 1.644-2.772 2.844-1.008 2.532-1.008 3.996.336 2.808 1.008 4.032c.672 1.2 1.596 2.16 2.772 2.88 1.176.696 2.472 1.044 3.888 1.044 1.128 0 2.268-.264 3.42-.792 1.176-.552 2.22-1.284 3.132-2.196l3.348 3.636c-1.344 1.392-2.928 2.496-4.752 3.312-1.8.816-3.612 1.224-5.436 1.224-2.472 0-4.716-.564-6.732-1.692-2.016-1.152-3.6-2.724-4.752-4.716s-1.728-4.212-1.728-6.66c0-2.424.588-4.62 1.764-6.588s2.784-3.516 4.824-4.644c2.064-1.128 4.344-1.692 6.84-1.692 1.824 0 3.624.384 5.4 1.152 1.776.744 3.288 1.764 4.536 3.06zm6.744-7.884h19.188v4.716h-13.5v5.472h12.132v4.716h-12.132v5.58h13.896v4.716h-19.584z" fill-opacity=".4"/></g></svg>