<svg fill="none" height="202" viewBox="0 0 359 202" width="359" xmlns="http://www.w3.org/2000/svg" xmlns:xlink="http://www.w3.org/1999/xlink"><filter id="a" color-interpolation-filters="sRGB" filterUnits="userSpaceOnUse" height="262.731" width="467.731" x="-54.3656" y="-54.3656"><feFlood flood-opacity="0" result="BackgroundImageFix"/><feGaussianBlur in="BackgroundImage" stdDeviation="27.1828"/><feComposite in2="SourceAlpha" operator="in" result="effect1_backgroundBlur"/><feBlend in="SourceGraphic" in2="effect1_backgroundBlur" mode="normal" result="shape"/></filter><linearGradient id="b" gradientUnits="userSpaceOnUse" x1="18" x2="18" y1="28" y2="8"><stop offset="0" stop-color="#ff8126"/><stop offset="1" stop-color="#ff117e"/></linearGradient><clipPath id="c"><path d="m0 0h359v202h-359z"/></clipPath><mask id="d" height="217" maskUnits="userSpaceOnUse" width="359" x="0" y="0"><path clip-rule="evenodd" d="m0 13c0-7.1797 5.8203-13 13-13h333c7.18 0 13 5.8203 13 13v191c0 7.18-5.82 13-13 13h-333c-7.17969 0-13-5.82-13-13z" fill="#fff" fill-rule="evenodd"/></mask><mask id="e" height="20" maskUnits="userSpaceOnUse" width="20" x="8" y="8"><path d="m23.2344 28c2.8906 0 4.7656-1.875 4.7656-4.7656v-10.4688c0-2.8906-1.875-4.7656-4.7656-4.7656h-10.4688c-2.8906 0-4.7656 1.875-4.7656 4.7656v10.4688c0 2.8906 1.875 4.7656 4.7656 4.7656z" fill="#fff"/></mask><g clip-path="url(#c)"><g mask="url(#d)"><g filter="url(#a)"><path clip-rule="evenodd" d="m0 13c0-7.17971 5.8203-13 13-13h333c7.18 0 13 5.8203 13 13v128c0 7.18-5.82 13-13 13h-333c-7.17969 0-13-5.82-13-13z" fill="#f8f8f8" fill-opacity=".82" fill-rule="evenodd"/></g><path d="m24.2178 98h1.3843l-3.8965-10.5688h-1.3037l-3.8965 10.5688h1.3842l1.0621-3.0249h4.2041zm-3.2227-8.8623h.1172l1.6553 4.7168h-3.4278zm6.0588 8.8623h1.2598v-4.6729c0-1.3842.813-2.2265 2.0728-2.2265 1.2597 0 1.8603.6738 1.8603 2.0947v4.8047h1.2598v-5.1123c0-1.875-.9888-2.9224-2.7612-2.9224-1.2085 0-1.9776.5127-2.3731 1.3843h-.1172v-1.2451h-1.2012zm14.7105.1392c1.0547 0 1.9189-.4615 2.4316-1.3038h.1172v1.1646h1.2012v-5.4053c0-1.6406-1.0767-2.6294-3.003-2.6294-1.6845 0-2.9296.835-3.0981 2.1021h1.2744c.1758-.6226.835-.9815 1.7798-.9815 1.1792 0 1.7871.5347 1.7871 1.5088v.7178l-2.2778.1392c-1.8384.1098-2.8784.9228-2.8784 2.3364 0 1.4429 1.1352 2.3511 2.666 2.3511zm.2344-1.106c-.9156 0-1.5967-.4687-1.5967-1.2744 0-.791.5273-1.2085 1.7285-1.2891l2.124-.1391v.7251c0 1.1279-.9595 1.9775-2.2558 1.9775zm5.6047.9668h1.2597v-4.6729c0-1.3842.813-2.2265 2.0728-2.2265s1.8603.6738 1.8603 2.0947v4.8047h1.2598v-5.1123c0-1.875-.9888-2.9224-2.7612-2.9224-1.2085 0-1.9776.5127-2.3731 1.3843h-.1172v-1.2451h-1.2011zm11.7644.1392c2.2485 0 3.6401-1.5528 3.6401-4.087 0-2.5415-1.3916-4.0869-3.6401-4.0869-2.2486 0-3.6402 1.5454-3.6402 4.0869 0 2.5342 1.3916 4.087 3.6402 4.087zm0-1.1353c-1.4942 0-2.3365-1.084-2.3365-2.9517 0-1.875.8423-2.9516 2.3365-2.9516 1.4941 0 2.3364 1.0766 2.3364 2.9516 0 1.8677-.8423 2.9517-2.3364 2.9517zm5.3776.9961h1.2598v-4.6729c0-1.3842.813-2.2265 2.0728-2.2265 1.2597 0 1.8603.6738 1.8603 2.0947v4.8047h1.2598v-5.1123c0-1.875-.9888-2.9224-2.7612-2.9224-1.2085 0-1.9776.5127-2.3731 1.3843h-.1172v-1.2451h-1.2012zm8.9007 2.856c1.3989 0 2.0288-.542 2.7026-2.3726l3.0835-8.3789h-1.3403l-2.1607 6.4966h-.1172l-2.1679-6.4966h-1.3623l2.9223 7.9028-.1465.4688c-.3295.9521-.7251 1.2964-1.4501 1.2964-.1758 0-.3736-.0074-.5274-.0367v1.0762c.1758.03.3955.044.564.044zm7.2307-2.856h1.2597v-4.8926c0-1.1133.7984-2.0068 1.8311-2.0068.9961 0 1.6479.6006 1.6479 1.5381v5.3613h1.2598v-5.0757c0-1.0034.7324-1.8237 1.8311-1.8237 1.1132 0 1.6626.5713 1.6626 1.7358v5.1636h1.2597v-5.4565c0-1.6553-.9008-2.5782-2.5122-2.5782-1.0913 0-1.9922.5493-2.417 1.3843h-.1172c-.3662-.8203-1.1132-1.3843-2.1826-1.3843-1.0547 0-1.8457.5054-2.2046 1.3843h-.1172v-1.2451h-1.2011zm16.0564.1392c2.2485 0 3.6397-1.5528 3.6397-4.087 0-2.5415-1.3912-4.0869-3.6397-4.0869-2.2486 0-3.6402 1.5454-3.6402 4.0869 0 2.5342 1.3916 4.087 3.6402 4.087zm0-1.1353c-1.4942 0-2.3365-1.084-2.3365-2.9517 0-1.875.8423-2.9516 2.3365-2.9516 1.4941 0 2.3364 1.0766 2.3364 2.9516 0 1.8677-.8423 2.9517-2.3364 2.9517zm11.7647-6.8994h-1.26v4.6728c0 1.3843-.762 2.212-2.153 2.212-1.26 0-1.788-.6592-1.788-2.0801v-4.8047h-1.259v5.1123c0 1.8677.923 2.9224 2.695 2.9224 1.209 0 2.051-.4981 2.446-1.377h.117v1.2378h1.202zm1.95 2.1606c0 1.1426.673 1.7798 2.153 2.1387l1.355.3296c.842.2051 1.252.5713 1.252 1.1133 0 .7251-.761 1.2304-1.823 1.2304-1.011 0-1.641-.4248-1.853-1.0913h-1.297c.139 1.3111 1.348 2.1534 3.106 2.1534 1.794 0 3.164-.9742 3.164-2.3877 0-1.1353-.718-1.7798-2.205-2.1387l-1.216-.293c-.93-.227-1.369-.5639-1.369-1.1059 0-.7032.732-1.1792 1.67-1.1792.952 0 1.567.4174 1.735 1.0473h1.246c-.169-1.2964-1.319-2.1167-2.974-2.1167-1.677 0-2.944.9888-2.944 2.2998zm15.633-2.2998c-1.077 0-2.022.5493-2.527 1.4576h-.117v-1.3184h-1.201v10.5325h1.259v-3.8235h.118c.432.8349 1.34 1.3257 2.468 1.3257 2.007 0 3.318-1.6187 3.318-4.087 0-2.4829-1.304-4.0869-3.318-4.0869zm-.3 7.0386c-1.421 0-2.322-1.1426-2.322-2.9517 0-1.8164.901-2.9516 2.329-2.9516 1.443 0 2.307 1.1059 2.307 2.9516s-.864 2.9517-2.314 2.9517zm10.585-1.0474c-.33.6958-1.018 1.0694-2.036 1.0694-1.341 0-2.212-.9888-2.278-2.5488v-.0586h5.676v-.4834c0-2.4537-1.296-3.9698-3.428-3.9698-2.168 0-3.559 1.6114-3.559 4.0943 0 2.4975 1.369 4.0796 3.559 4.0796 1.729 0 2.959-.835 3.326-2.1827zm-2.08-4.8779c1.252 0 2.087.9229 2.116 2.3218h-4.35c.095-1.3989.974-2.3218 2.234-2.3218zm5.18 6.9214h1.259v-4.8926c0-1.1133.872-1.9189 2.073-1.9189.249 0 .703.0439.806.0732v-1.2597c-.161-.022-.425-.0367-.63-.0367-1.047 0-1.956.542-2.19 1.3111h-.117v-1.1719h-1.201zm5.143-5.7349c0 1.1426.674 1.7798 2.153 2.1387l1.355.3296c.843.2051 1.253.5713 1.253 1.1133 0 .7251-.762 1.2304-1.824 1.2304-1.011 0-1.641-.4248-1.853-1.0913h-1.296c.139 1.3111 1.347 2.1534 3.105 2.1534 1.794 0 3.164-.9742 3.164-2.3877 0-1.1353-.718-1.7798-2.205-2.1387l-1.215-.293c-.931-.227-1.37-.5639-1.37-1.1059 0-.7032.732-1.1792 1.67-1.1792.952 0 1.567.4174 1.736 1.0473h1.245c-.169-1.2964-1.318-2.1167-2.974-2.1167-1.677 0-2.944.9888-2.944 2.2998zm11.039 5.8741c2.249 0 3.64-1.5528 3.64-4.087 0-2.5415-1.391-4.0869-3.64-4.0869-2.248 0-3.64 1.5454-3.64 4.0869 0 2.5342 1.392 4.087 3.64 4.087zm0-1.1353c-1.494 0-2.336-1.084-2.336-2.9517 0-1.875.842-2.9516 2.336-2.9516s2.337 1.0766 2.337 2.9516c0 1.8677-.843 2.9517-2.337 2.9517zm5.378.9961h1.26v-4.6729c0-1.3842.813-2.2265 2.072-2.2265 1.26 0 1.861.6738 1.861 2.0947v4.8047h1.26v-5.1123c0-1.875-.989-2.9224-2.762-2.9224-1.208 0-1.977.5127-2.373 1.3843h-.117v-1.2451h-1.201zm22.445-7.8955h-1.267l-1.553 6.3135h-.117l-1.765-6.3135h-1.209l-1.765 6.3135h-.117l-1.553-6.3135h-1.274l2.211 7.8955h1.275l1.758-6.1084h.117l1.765 6.1084h1.282zm1.518 7.8955h1.259v-4.6729c0-1.333.777-2.2265 2.19-2.2265 1.194 0 1.824.6958 1.824 2.0947v4.8047h1.26v-5.1123c0-1.853-1.055-2.9224-2.725-2.9224-1.208 0-2.036.5127-2.432 1.3843h-.117v-4.3799h-1.259zm11.837.1392c2.249 0 3.64-1.5528 3.64-4.087 0-2.5415-1.391-4.0869-3.64-4.0869-2.248 0-3.64 1.5454-3.64 4.0869 0 2.5342 1.392 4.087 3.64 4.087zm0-1.1353c-1.494 0-2.336-1.084-2.336-2.9517 0-1.875.842-2.9516 2.336-2.9516s2.337 1.0766 2.337 2.9516c0 1.8677-.843 2.9517-2.337 2.9517zm9.899-8.9429v2.0435h-1.275v1.0547h1.275v4.79c0 1.5088.651 2.1094 2.277 2.1094.249 0 .491-.0293.74-.0732v-1.0621c-.234.022-.359.0293-.586.0293-.82 0-1.172-.3955-1.172-1.3256v-4.4678h1.758v-1.0547h-1.758v-2.0435zm9.794 7.8955c-.33.6958-1.018 1.0694-2.036 1.0694-1.341 0-2.212-.9888-2.278-2.5488v-.0586h5.676v-.4834c0-2.4537-1.296-3.9698-3.428-3.9698-2.168 0-3.559 1.6114-3.559 4.0943 0 2.4975 1.369 4.0796 3.559 4.0796 1.729 0 2.959-.835 3.326-2.1827zm-2.08-4.8779c1.252 0 2.087.9229 2.116 2.3218h-4.35c.095-1.3989.974-2.3218 2.234-2.3218zm4.996 1.1865c0 1.1426.674 1.7798 2.154 2.1387l1.355.3296c.842.2051 1.252.5713 1.252 1.1133 0 .7251-.761 1.2304-1.824 1.2304-1.01 0-1.64-.4248-1.853-1.0913h-1.296c.139 1.3111 1.348 2.1534 3.106 2.1534 1.794 0 3.164-.9742 3.164-2.3877 0-1.1353-.718-1.7798-2.205-2.1387l-1.216-.293c-.93-.227-1.369-.5639-1.369-1.1059 0-.7032.732-1.1792 1.669-1.1792.953 0 1.568.4174 1.736 1.0473h1.245c-.168-1.2964-1.318-2.1167-2.973-2.1167-1.677 0-2.945.9888-2.945 2.2998zm8.249-4.2041v2.0435h-1.274v1.0547h1.274v4.79c0 1.5088.652 2.1094 2.278 2.1094.249 0 .491-.0293.74-.0732v-1.0621c-.235.022-.359.0293-.586.0293-.82 0-1.172-.3955-1.172-1.3256v-4.4678h1.758v-1.0547h-1.758v-2.0435zm9.794 7.8955c-.329.6958-1.018 1.0694-2.036 1.0694-1.34 0-2.212-.9888-2.278-2.5488v-.0586h5.677v-.4834c0-2.4537-1.297-3.9698-3.428-3.9698-2.168 0-3.56 1.6114-3.56 4.0943 0 2.4975 1.37 4.0796 3.56 4.0796 1.729 0 2.959-.835 3.325-2.1827zm-2.08-4.8779c1.253 0 2.088.9229 2.117 2.3218h-4.351c.096-1.3989.975-2.3218 2.234-2.3218zm8.103 7.0606c1.091 0 2.028-.5201 2.526-1.399h.118v1.2598h1.201v-11.0303h-1.26v4.3799h-.11c-.447-.8642-1.377-1.3843-2.475-1.3843-2.007 0-3.318 1.6114-3.318 4.0869 0 2.483 1.296 4.087 3.318 4.087zm.293-7.0386c1.428 0 2.321 1.1426 2.321 2.9516 0 1.8238-.886 2.9517-2.321 2.9517-1.443 0-2.308-1.106-2.308-2.9517 0-1.8383.872-2.9516 2.308-2.9516zm13.597-1.1353c-1.077 0-2.022.5493-2.527 1.4576h-.117v-1.3184h-1.201v10.5325h1.259v-3.8235h.117c.433.8349 1.341 1.3257 2.469 1.3257 2.007 0 3.318-1.6187 3.318-4.087 0-2.4829-1.304-4.0869-3.318-4.0869zm-.301 7.0386c-1.42 0-2.321-1.1426-2.321-2.9517 0-1.8164.901-2.9516 2.329-2.9516 1.443 0 2.307 1.1059 2.307 2.9516s-.864 2.9517-2.315 2.9517zm8.601 1.1353c2.248 0 3.64-1.5528 3.64-4.087 0-2.5415-1.392-4.0869-3.64-4.0869-2.249 0-3.64 1.5454-3.64 4.0869 0 2.5342 1.391 4.087 3.64 4.087zm0-1.1353c-1.494 0-2.337-1.084-2.337-2.9517 0-1.875.843-2.9516 2.337-2.9516s2.336 1.0766 2.336 2.9516c0 1.8677-.842 2.9517-2.336 2.9517zm5.194-4.7388c0 1.1426.674 1.7798 2.154 2.1387l1.355.3296c.842.2051 1.252.5713 1.252 1.1133 0 .7251-.762 1.2304-1.824 1.2304-1.01 0-1.64-.4248-1.853-1.0913h-1.296c.139 1.3111 1.348 2.1534 3.105 2.1534 1.795 0 3.165-.9742 3.165-2.3877 0-1.1353-.718-1.7798-2.205-2.1387l-1.216-.293c-.93-.227-1.37-.5639-1.37-1.1059 0-.7032.733-1.1792 1.67-1.1792.953 0 1.568.4174 1.736 1.0473h1.245c-.168-1.2964-1.318-2.1167-2.973-2.1167-1.678 0-2.945.9888-2.945 2.2998zm8.454-3.684c.484 0 .879-.3956.879-.879 0-.4833-.395-.8789-.879-.8789-.483 0-.879.3956-.879.8789 0 .4834.396.879.879.879zm-.63 9.4189h1.26v-7.8955h-1.26zm3.95-9.939v2.0435h-1.275v1.0547h1.275v4.79c0 1.5088.652 2.1094 2.278 2.1094.249 0 .49-.0293.739-.0732v-1.0621c-.234.022-.359.0293-.586.0293-.82 0-1.171-.3955-1.171-1.3256v-4.4678h1.757v-1.0547h-1.757v-2.0435zm5.341.5201c.483 0 .879-.3956.879-.879 0-.4833-.396-.8789-.879-.8789-.484 0-.879.3956-.879.8789 0 .4834.395.879.879.879zm-.63 9.4189h1.26v-7.8955h-1.26zm9.867-7.8955h-1.347l-2.161 6.5039h-.117l-2.161-6.5039h-1.347l2.922 7.8955h1.289zm6.381 5.852c-.329.6958-1.018 1.0694-2.036 1.0694-1.34 0-2.212-.9888-2.277-2.5488v-.0586h5.676v-.4834c0-2.4537-1.297-3.9698-3.428-3.9698-2.168 0-3.56 1.6114-3.56 4.0943 0 2.4975 1.37 4.0796 3.56 4.0796 1.729 0 2.959-.835 3.325-2.1827zm-2.08-4.8779c1.253 0 2.088.9229 2.117 2.3218h-4.35c.095-1.3989.974-2.3218 2.233-2.3218zm9.701 6.9214h1.26v-6.8408h1.809v-1.0547h-1.809v-.8423c0-.8643.381-1.3037 1.289-1.3037.227 0 .439.0073.593.0366v-1.0254c-.264-.0512-.542-.0732-.849-.0732-1.502 0-2.293.7544-2.293 2.3291v.8789h-1.311v1.0547h1.311zm7.575.1392c2.249 0 3.64-1.5528 3.64-4.087 0-2.5415-1.391-4.0869-3.64-4.0869s-3.64 1.5454-3.64 4.0869c0 2.5342 1.391 4.087 3.64 4.087zm0-1.1353c-1.494 0-2.336-1.084-2.336-2.9517 0-1.875.842-2.9516 2.336-2.9516s2.336 1.0766 2.336 2.9516c0 1.8677-.842 2.9517-2.336 2.9517zm5.378.9961h1.259v-4.8926c0-1.1133.872-1.9189 2.073-1.9189.249 0 .703.0439.806.0732v-1.2597c-.161-.022-.425-.0367-.63-.0367-1.047 0-1.956.542-2.19 1.3111h-.117v-1.1719h-1.201zm-302.789 18.249c2.2486 0 3.9185-1.252 4.27-3.193h-1.3403c-.3369 1.223-1.4575 1.977-2.9297 1.977-2.0361 0-3.3105-1.662-3.3105-4.314 0-2.651 1.2744-4.321 3.3032-4.321 1.4575 0 2.5855.857 2.937 2.219h1.3403c-.3149-2.036-2.0507-3.435-4.2773-3.435-2.8711 0-4.6582 2.124-4.6582 5.537 0 3.406 1.7944 5.53 4.6655 5.53zm9.3255-.11c2.2485 0 3.6401-1.553 3.6401-4.087 0-2.541-1.3916-4.087-3.6401-4.087-2.2486 0-3.6402 1.546-3.6402 4.087 0 2.534 1.3916 4.087 3.6402 4.087zm0-1.135c-1.4942 0-2.3365-1.084-2.3365-2.952 0-1.875.8423-2.951 2.3365-2.951 1.4941 0 2.3364 1.076 2.3364 2.951 0 1.868-.8423 2.952-2.3364 2.952zm5.3776.996h1.2598v-4.893c0-1.113.8716-1.919 2.0728-1.919.249 0 .7031.044.8056.074v-1.26c-.1611-.022-.4248-.037-.6299-.037-1.0473 0-1.9555.542-2.1899 1.311h-.1172v-1.172h-1.2012zm8.4978.139c2.2486 0 3.6402-1.553 3.6402-4.087 0-2.541-1.3916-4.087-3.6402-4.087-2.2485 0-3.6401 1.546-3.6401 4.087 0 2.534 1.3916 4.087 3.6401 4.087zm0-1.135c-1.4941 0-2.3364-1.084-2.3364-2.952 0-1.875.8423-2.951 2.3364-2.951 1.4942 0 2.3365 1.076 2.3365 2.951 0 1.868-.8423 2.952-2.3365 2.952zm5.3777.996h1.2598v-4.673c0-1.384.813-2.226 2.0727-2.226 1.2598 0 1.8604.673 1.8604 2.094v4.805h1.2597v-5.112c0-1.875-.9887-2.923-2.7612-2.923-1.2085 0-1.9775.513-2.373 1.385h-.1172v-1.246h-1.2012zm10.717.139c1.0547 0 1.919-.461 2.4317-1.304h.1172v1.165h1.2011v-5.405c0-1.641-1.0766-2.63-3.0029-2.63-1.6846 0-2.9297.835-3.0981 2.102h1.2744c.1758-.622.8349-.981 1.7798-.981 1.1792 0 1.7871.535 1.7871 1.509v.717l-2.2779.14c-1.8383.11-2.8784.923-2.8784 2.336 0 1.443 1.1353 2.351 2.666 2.351zm.2344-1.106c-.9155 0-1.5967-.469-1.5967-1.274 0-.791.5274-1.209 1.7285-1.289l2.1241-.139v.725c0 1.128-.9595 1.977-2.2559 1.977zm11.7571-6.929h-1.3477l-2.1606 6.504h-.1172l-2.1607-6.504h-1.3476l2.9224 7.896h1.289zm2.1037-1.523c.4834 0 .8789-.395.8789-.879 0-.483-.3955-.879-.8789-.879s-.8789.396-.8789.879c0 .484.3955.879.8789.879zm-.6299 9.419h1.2598v-7.896h-1.2598zm3.4222 0h1.2597v-4.893c0-1.113.8716-1.919 2.0728-1.919.249 0 .7031.044.8056.074v-1.26c-.1611-.022-.4248-.037-.6298-.037-1.0474 0-1.9556.542-2.19 1.311h-.1172v-1.172h-1.2011zm11.8596-7.896h-1.2598v4.673c0 1.385-.7617 2.212-2.1533 2.212-1.2598 0-1.7871-.659-1.7871-2.08v-4.805h-1.2598v5.113c0 1.867.9229 2.922 2.6953 2.922 1.2085 0 2.0508-.498 2.4463-1.377h.1172v1.238h1.2012zm1.9499 2.161c0 1.143.6738 1.78 2.1533 2.139l1.355.329c.8423.205 1.2524.572 1.2524 1.114 0 .725-.7617 1.23-1.8237 1.23-1.0107 0-1.6406-.425-1.853-1.091h-1.2964c.1392 1.311 1.3477 2.153 3.1055 2.153 1.7944 0 3.164-.974 3.164-2.388 0-1.135-.7177-1.779-2.2046-2.138l-1.2158-.293c-.9302-.227-1.3696-.564-1.3696-1.106 0-.703.7324-1.179 1.6699-1.179.9522 0 1.5674.417 1.7359 1.047h1.2451c-.1685-1.296-1.3184-2.117-2.9737-2.117-1.6772 0-2.9443.989-2.9443 2.3zm18.2334-2.161h-1.348l-2.16 6.504h-.118l-2.16-6.504h-1.348l2.923 7.896h1.289zm2.104-1.523c.483 0 .879-.395.879-.879 0-.483-.396-.879-.879-.879-.484 0-.879.396-.879.879 0 .484.395.879.879.879zm-.63 9.419h1.26v-7.896h-1.26zm3.239-5.735c0 1.143.674 1.78 2.153 2.139l1.355.329c.842.205 1.253.572 1.253 1.114 0 .725-.762 1.23-1.824 1.23-1.011 0-1.641-.425-1.853-1.091h-1.297c.14 1.311 1.348 2.153 3.106 2.153 1.794 0 3.164-.974 3.164-2.388 0-1.135-.718-1.779-2.205-2.138l-1.215-.293c-.931-.227-1.37-.564-1.37-1.106 0-.703.732-1.179 1.67-1.179.952 0 1.567.417 1.736 1.047h1.245c-.169-1.296-1.319-2.117-2.974-2.117-1.677 0-2.944.989-2.944 2.3zm8.454-3.684c.483 0 .879-.395.879-.879 0-.483-.396-.879-.879-.879-.484 0-.879.396-.879.879 0 .484.395.879.879.879zm-.63 9.419h1.26v-7.896h-1.26zm3.949-9.939v2.043h-1.274v1.055h1.274v4.79c0 1.509.652 2.11 2.278 2.11.249 0 .491-.03.74-.074v-1.062c-.235.022-.359.03-.586.03-.82 0-1.172-.396-1.172-1.326v-4.468h1.758v-1.055h-1.758v-2.043zm9.794 7.896c-.329.695-1.018 1.069-2.036 1.069-1.34 0-2.212-.989-2.278-2.549v-.059h5.677v-.483c0-2.454-1.297-3.97-3.428-3.97-2.168 0-3.56 1.612-3.56 4.095 0 2.497 1.37 4.079 3.56 4.079 1.729 0 2.959-.835 3.325-2.182zm-2.08-4.878c1.253 0 2.088.922 2.117 2.321h-4.351c.096-1.399.975-2.321 2.234-2.321zm8.103 7.06c1.091 0 2.028-.52 2.527-1.399h.117v1.26h1.201v-11.03h-1.26v4.38h-.11c-.447-.865-1.377-1.385-2.475-1.385-2.007 0-3.318 1.612-3.318 4.087 0 2.483 1.296 4.087 3.318 4.087zm.293-7.038c1.428 0 2.321 1.142 2.321 2.951 0 1.824-.886 2.952-2.321 2.952-1.443 0-2.307-1.106-2.307-2.952 0-1.838.871-2.951 2.307-2.951zm11.963 2.028h1.312c1.486 0 2.402.762 2.402 1.985 0 1.187-.989 1.985-2.381 1.985-1.362 0-2.314-.71-2.431-1.824h-1.275c.096 1.795 1.575 2.974 3.721 2.974 2.102 0 3.721-1.326 3.721-3.098 0-1.472-.908-2.402-2.278-2.622v-.117c1.084-.315 1.875-1.158 1.882-2.432.008-1.48-1.194-2.798-3.281-2.798-2.139 0-3.45 1.267-3.581 2.988h1.281c.11-1.186.938-1.838 2.212-1.838 1.275 0 2.029.806 2.029 1.794 0 1.099-.864 1.875-2.08 1.875h-1.253zm9.472 4.871h1.319v-10.569h-1.311l-2.813 2.022v1.391l2.688-1.948h.117zm18.812 0v-10.569h-1.53l-3.619 8.819h-.117l-3.618-8.819h-1.531v10.569h1.231v-8.071h.088l3.332 8.071h1.113l3.333-8.071h.088v8.071zm4.492.139c1.055 0 1.919-.461 2.431-1.304h.118v1.165h1.201v-5.405c0-1.641-1.077-2.63-3.003-2.63-1.685 0-2.93.835-3.098 2.102h1.274c.176-.622.835-.981 1.78-.981 1.179 0 1.787.535 1.787 1.509v.717l-2.278.14c-1.838.11-2.878.923-2.878 2.336 0 1.443 1.135 2.351 2.666 2.351zm.234-1.106c-.915 0-1.596-.469-1.596-1.274 0-.791.527-1.209 1.728-1.289l2.124-.139v.725c0 1.128-.959 1.977-2.256 1.977zm5.605.967h1.26v-4.893c0-1.113.871-1.919 2.072-1.919.249 0 .704.044.806.074v-1.26c-.161-.022-.425-.037-.63-.037-1.047 0-1.955.542-2.19 1.311h-.117v-1.172h-1.201zm6.923-4.446h-.117v-6.584h-1.26v11.03h1.26v-2.996l.754-.703 2.959 3.699h1.604l-3.625-4.512 3.398-3.384h-1.545zm11.318 2.403c-.33.695-1.018 1.069-2.036 1.069-1.341 0-2.212-.989-2.278-2.549v-.059h5.676v-.483c0-2.454-1.296-3.97-3.428-3.97-2.168 0-3.559 1.612-3.559 4.095 0 2.497 1.369 4.079 3.559 4.079 1.729 0 2.959-.835 3.325-2.182zm-2.08-4.878c1.252 0 2.087.922 2.116 2.321h-4.35c.095-1.399.974-2.321 2.234-2.321zm5.707-3.018v2.043h-1.275v1.055h1.275v4.79c0 1.509.652 2.11 2.278 2.11.249 0 .49-.03.739-.074v-1.062c-.234.022-.358.03-.586.03-.82 0-1.171-.396-1.171-1.326v-4.468h1.757v-1.055h-1.757v-2.043zm8.331 7.178c.139 1.823 1.684 3.01 3.926 3.01 2.417 0 3.947-1.238 3.947-3.179 0-1.552-.879-2.402-3.068-2.951l-1.106-.293c-1.458-.374-2.037-.85-2.037-1.678 0-1.069.931-1.772 2.337-1.772 1.318 0 2.212.645 2.395 1.728h1.326c-.11-1.706-1.634-2.922-3.677-2.922-2.234 0-3.736 1.216-3.736 3.01 0 1.502.828 2.366 2.74 2.85l1.355.351c1.457.366 2.116.938 2.116 1.838 0 1.048-1.047 1.817-2.468 1.817-1.501 0-2.556-.703-2.717-1.809zm10.197-7.178v2.043h-1.275v1.055h1.275v4.79c0 1.509.652 2.11 2.278 2.11.249 0 .49-.03.739-.074v-1.062c-.234.022-.358.03-.585.03-.821 0-1.172-.396-1.172-1.326v-4.468h1.757v-1.055h-1.757v-2.043zm5.48 12.627 1.15-4.167h-1.399l-.696 4.167zm7.064-5.449c.139 1.823 1.685 3.01 3.926 3.01 2.417 0 3.948-1.238 3.948-3.179 0-1.552-.879-2.402-3.069-2.951l-1.106-.293c-1.458-.374-2.036-.85-2.036-1.678 0-1.069.93-1.772 2.336-1.772 1.318 0 2.212.645 2.395 1.728h1.326c-.11-1.706-1.634-2.922-3.677-2.922-2.234 0-3.735 1.216-3.735 3.01 0 1.502.827 2.366 2.739 2.85l1.355.351c1.457.366 2.117.938 2.117 1.838 0 1.048-1.048 1.817-2.469 1.817-1.501 0-2.556-.703-2.717-1.809zm11.867 2.9c1.055 0 1.919-.461 2.432-1.304h.117v1.165h1.201v-5.405c0-1.641-1.077-2.63-3.003-2.63-1.685 0-2.93.835-3.098 2.102h1.274c.176-.622.835-.981 1.78-.981 1.179 0 1.787.535 1.787 1.509v.717l-2.278.14c-1.838.11-2.878.923-2.878 2.336 0 1.443 1.135 2.351 2.666 2.351zm.234-1.106c-.915 0-1.596-.469-1.596-1.274 0-.791.527-1.209 1.728-1.289l2.124-.139v.725c0 1.128-.959 1.977-2.256 1.977zm5.605.967h1.26v-4.673c0-1.384.813-2.226 2.073-2.226 1.259 0 1.86.673 1.86 2.094v4.805h1.26v-5.112c0-1.875-.989-2.923-2.762-2.923-1.208 0-1.977.513-2.373 1.385h-.117v-1.246h-1.201zm13.993 0v-4.578h4.68v-1.172h-4.68v-3.632h5.097v-1.187h-6.416v10.569zm6.864 0h1.26v-4.893c0-1.113.872-1.919 2.073-1.919.249 0 .703.044.805.074v-1.26c-.161-.022-.424-.037-.629-.037-1.048 0-1.956.542-2.19 1.311h-.118v-1.172h-1.201zm7.67.139c1.055 0 1.919-.461 2.432-1.304h.117v1.165h1.201v-5.405c0-1.641-1.076-2.63-3.003-2.63-1.684 0-2.929.835-3.098 2.102h1.275c.175-.622.835-.981 1.779-.981 1.18 0 1.788.535 1.788 1.509v.717l-2.278.14c-1.839.11-2.879.923-2.879 2.336 0 1.443 1.136 2.351 2.666 2.351zm.235-1.106c-.916 0-1.597-.469-1.597-1.274 0-.791.527-1.209 1.729-1.289l2.124-.139v.725c0 1.128-.96 1.977-2.256 1.977zm5.604.967h1.26v-4.673c0-1.384.813-2.226 2.073-2.226s1.86.673 1.86 2.094v4.805h1.26v-5.112c0-1.875-.989-2.923-2.761-2.923-1.209 0-1.978.513-2.373 1.385h-.117v-1.246h-1.202zm15.053-5.479c-.219-1.406-1.391-2.556-3.31-2.556-2.212 0-3.618 1.597-3.618 4.058 0 2.512 1.413 4.116 3.625 4.116 1.897 0 3.076-1.069 3.303-2.519h-1.274c-.234.893-.974 1.384-2.036 1.384-1.406 0-2.315-1.157-2.315-2.981 0-1.787.894-2.922 2.315-2.922 1.135 0 1.831.637 2.036 1.42zm2.28-3.94c.483 0 .879-.395.879-.879 0-.483-.396-.879-.879-.879s-.879.396-.879.879c0 .484.396.879.879.879zm-.63 9.419h1.26v-7.896h-1.26zm3.239-5.735c0 1.143.674 1.78 2.153 2.139l1.355.329c.843.205 1.253.572 1.253 1.114 0 .725-.762 1.23-1.824 1.23-1.011 0-1.641-.425-1.853-1.091h-1.296c.139 1.311 1.347 2.153 3.105 2.153 1.795 0 3.164-.974 3.164-2.388 0-1.135-.718-1.779-2.204-2.138l-1.216-.293c-.93-.227-1.37-.564-1.37-1.106 0-.703.733-1.179 1.67-1.179.952 0 1.567.417 1.736 1.047h1.245c-.168-1.296-1.318-2.117-2.974-2.117-1.677 0-2.944.989-2.944 2.3zm14.328.256c-.22-1.406-1.392-2.556-3.311-2.556-2.211 0-3.618 1.597-3.618 4.058 0 2.512 1.414 4.116 3.626 4.116 1.897 0 3.076-1.069 3.303-2.519h-1.274c-.235.893-.975 1.384-2.037 1.384-1.406 0-2.314-1.157-2.314-2.981 0-1.787.894-2.922 2.314-2.922 1.136 0 1.831.637 2.037 1.42zm4.865 5.618c2.248 0 3.64-1.553 3.64-4.087 0-2.541-1.392-4.087-3.64-4.087-2.249 0-3.64 1.546-3.64 4.087 0 2.534 1.391 4.087 3.64 4.087zm0-1.135c-1.494 0-2.336-1.084-2.336-2.952 0-1.875.842-2.951 2.336-2.951s2.336 1.076 2.336 2.951c0 1.868-.842 2.952-2.336 2.952zm-317.7662 19.135c1.0547 0 1.9189-.461 2.4316-1.304h.1172v1.165h1.2012v-5.405c0-1.641-1.0767-2.63-3.0029-2.63-1.6846 0-2.9297.835-3.0982 2.102h1.2744c.1758-.622.835-.981 1.7798-.981 1.1792 0 1.7871.535 1.7871 1.509v.717l-2.2778.14c-1.8384.11-2.8784.923-2.8784 2.336 0 1.443 1.1352 2.351 2.666 2.351zm.2344-1.106c-.9156 0-1.5967-.469-1.5967-1.274 0-.791.5273-1.209 1.7285-1.289l2.124-.139v.725c0 1.128-.9594 1.977-2.2558 1.977zm6.132-8.972v2.043h-1.2744v1.055h1.2744v4.79c0 1.509.6519 2.11 2.2779 2.11.249 0 .4907-.03.7397-.074v-1.062c-.2344.022-.3589.03-.5859.03-.8203 0-1.1719-.396-1.1719-1.326v-4.468h1.7578v-1.055h-1.7578v-2.043zm12.2788 10.188c2.2412 0 3.8086-1.267 3.8086-3.076 0-1.377-.8716-2.446-2.1972-2.695v-.118c1.0913-.3 1.7651-1.201 1.7651-2.358 0-1.648-1.3989-2.82-3.3765-2.82-1.9775 0-3.3764 1.172-3.3764 2.82 0 1.15.6884 2.065 1.7651 2.358v.118c-1.3257.249-2.1973 1.318-2.1973 2.695 0 1.809 1.5674 3.076 3.8086 3.076zm0-6.328c-1.2451 0-2.0801-.718-2.0801-1.795 0-1.091.8277-1.816 2.0801-1.816 1.2525 0 2.0801.725 2.0801 1.816 0 1.077-.835 1.795-2.0801 1.795zm0 5.2c-1.4648 0-2.4756-.835-2.4756-2.043 0-1.209 1.0108-2.044 2.4756-2.044 1.4649 0 2.4756.835 2.4756 2.044 0 1.208-1.0107 2.043-2.4756 2.043zm5.8977-9.69v10.569h1.3184v-3.772h2.6587c1.9848 0 3.3984-1.399 3.3984-3.376 0-2.015-1.3843-3.421-3.3838-3.421zm1.3184 1.172h2.3291c1.5307 0 2.373.798 2.373 2.249 0 1.398-.8716 2.204-2.373 2.204h-2.3291zm18.3928 9.397v-10.569h-1.5308l-3.6181 8.819h-.1172l-3.6182-8.819h-1.5307v10.569h1.2304v-8.071h.0879l3.3325 8.071h1.1133l3.3325-8.071h.0879v8.071zm9.5322.139c2.2485 0 3.6401-1.553 3.6401-4.087 0-2.541-1.3916-4.087-3.6401-4.087s-3.6401 1.546-3.6401 4.087c0 2.534 1.3916 4.087 3.6401 4.087zm0-1.135c-1.4941 0-2.3364-1.084-2.3364-2.952 0-1.875.8423-2.951 2.3364-2.951s2.3364 1.076 2.3364 2.951c0 1.868-.8423 2.952-2.3364 2.952zm5.3777.996h1.2597v-4.673c0-1.384.813-2.226 2.0728-2.226s1.8603.673 1.8603 2.094v4.805h1.2598v-5.112c0-1.875-.9888-2.923-2.7612-2.923-1.2085 0-1.9776.513-2.3731 1.385h-.1172v-1.246h-1.2011zm14.7251-4.871h1.311c1.4868 0 2.4023.762 2.4023 1.985 0 1.187-.9887 1.985-2.3803 1.985-1.3623 0-2.3145-.71-2.4317-1.824h-1.2744c.0952 1.795 1.5747 2.974 3.7207 2.974 2.1021 0 3.7207-1.326 3.7207-3.098 0-1.472-.9082-2.402-2.2778-2.622v-.117c1.084-.315 1.875-1.158 1.8823-2.432.0073-1.48-1.1938-2.798-3.2812-2.798-2.1387 0-3.4498 1.267-3.5816 2.988h1.2817c.1099-1.186.9375-1.838 2.212-1.838 1.2744 0 2.0288.806 2.0288 1.794 0 1.099-.8643 1.875-2.0801 1.875h-1.2524zm6.8941 7.12 3.808-13.279h-1.069l-3.8087 13.279zm7.333-2.249h1.318v-10.569h-1.311l-2.812 2.022v1.391l2.688-1.948h.117zm7.751.249c2.16 0 3.632-1.494 3.632-3.669 0-2.095-1.464-3.487-3.237-3.487-1.055 0-1.838.323-2.351.96h-.117l.329-3.443h4.834v-1.179h-5.866l-.608 6.043h1.238c.417-.784 1.208-1.245 2.212-1.245 1.333 0 2.248.959 2.248 2.387 0 1.48-.915 2.476-2.3 2.476-1.245 0-2.153-.755-2.27-1.883h-1.297c.118 1.81 1.553 3.04 3.553 3.04zm6.066-.176c.527 0 .952-.432.952-.952 0-.527-.425-.952-.952-.952-.52 0-.952.425-.952.952 0 .52.432.952.952.952zm7.093-7.661h1.274c0-1.252.843-2.08 2.11-2.08 1.245 0 1.999.835 1.999 1.956 0 .93-.395 1.479-1.743 2.937l-3.574 3.867v.908h6.841v-1.187h-5.01v-.117l2.402-2.483c1.905-1.97 2.432-2.849 2.432-4.065 0-1.713-1.414-2.966-3.259-2.966-2.022 0-3.472 1.348-3.472 3.23zm21.493 7.588v-10.569h-1.319v4.57h-5.8v-4.57h-1.319v10.569h1.319v-4.812h5.8v4.812zm5.538.139c2.249 0 3.641-1.553 3.641-4.087 0-2.541-1.392-4.087-3.641-4.087-2.248 0-3.64 1.546-3.64 4.087 0 2.534 1.392 4.087 3.64 4.087zm0-1.135c-1.494 0-2.336-1.084-2.336-2.952 0-1.875.842-2.951 2.336-2.951 1.495 0 2.337 1.076 2.337 2.951 0 1.868-.842 2.952-2.337 2.952zm11.765-6.9h-1.26v4.673c0 1.385-.762 2.212-2.153 2.212-1.26 0-1.787-.659-1.787-2.08v-4.805h-1.26v5.113c0 1.867.923 2.922 2.695 2.922 1.209 0 2.051-.498 2.446-1.377h.118v1.238h1.201zm2.133 7.896h1.26v-4.893c0-1.113.871-1.919 2.072-1.919.249 0 .704.044.806.074v-1.26c-.161-.022-.425-.037-.63-.037-1.047 0-1.955.542-2.19 1.311h-.117v-1.172h-1.201zm5.143-5.735c0 1.143.674 1.78 2.154 2.139l1.355.329c.842.205 1.252.572 1.252 1.114 0 .725-.762 1.23-1.824 1.23-1.011 0-1.64-.425-1.853-1.091h-1.296c.139 1.311 1.347 2.153 3.105 2.153 1.795 0 3.164-.974 3.164-2.388 0-1.135-.717-1.779-2.204-2.138l-1.216-.293c-.93-.227-1.37-.564-1.37-1.106 0-.703.733-1.179 1.67-1.179.952 0 1.568.417 1.736 1.047h1.245c-.168-1.296-1.318-2.117-2.973-2.117-1.678 0-2.945.989-2.945 2.3zm15.714 5.874c2 0 3.311-1.618 3.311-4.087 0-2.483-1.304-4.087-3.311-4.087-1.084 0-2.043.535-2.476 1.385h-.117v-4.38h-1.259v11.03h1.201v-1.26h.117c.498.879 1.435 1.399 2.534 1.399zm-.293-7.038c1.443 0 2.3 1.106 2.3 2.951 0 1.846-.857 2.952-2.3 2.952-1.435 0-2.329-1.128-2.329-2.952 0-1.823.894-2.951 2.329-2.951zm10.571 4.856c-.33.695-1.018 1.069-2.036 1.069-1.341 0-2.212-.989-2.278-2.549v-.059h5.676v-.483c0-2.454-1.296-3.97-3.428-3.97-2.168 0-3.559 1.612-3.559 4.095 0 2.497 1.369 4.079 3.559 4.079 1.729 0 2.959-.835 3.325-2.182zm-2.08-4.878c1.252 0 2.087.922 2.116 2.321h-4.35c.095-1.399.974-2.321 2.234-2.321zm5.707 6.921h1.26v-6.841h1.809v-1.055h-1.809v-.842c0-.864.38-1.304 1.289-1.304.227 0 .439.008.593.037v-1.025c-.264-.052-.542-.074-.85-.074-1.501 0-2.292.755-2.292 2.33v.878h-1.311v1.055h1.311zm7.575.139c2.248 0 3.64-1.553 3.64-4.087 0-2.541-1.392-4.087-3.64-4.087-2.249 0-3.64 1.546-3.64 4.087 0 2.534 1.391 4.087 3.64 4.087zm0-1.135c-1.494 0-2.337-1.084-2.337-2.952 0-1.875.843-2.951 2.337-2.951s2.336 1.076 2.336 2.951c0 1.868-.842 2.952-2.336 2.952zm5.377.996h1.26v-4.893c0-1.113.872-1.919 2.073-1.919.249 0 .703.044.806.074v-1.26c-.162-.022-.425-.037-.63-.037-1.048 0-1.956.542-2.19 1.311h-.117v-1.172h-1.202zm10.483-2.043c-.33.695-1.018 1.069-2.036 1.069-1.34 0-2.212-.989-2.278-2.549v-.059h5.676v-.483c0-2.454-1.296-3.97-3.427-3.97-2.168 0-3.56 1.612-3.56 4.095 0 2.497 1.37 4.079 3.56 4.079 1.728 0 2.959-.835 3.325-2.182zm-2.08-4.878c1.252 0 2.087.922 2.117 2.321h-4.351c.095-1.399.974-2.321 2.234-2.321zm9.847 9.777c1.399 0 2.029-.542 2.703-2.373l3.083-8.379h-1.34l-2.161 6.497h-.117l-2.168-6.497h-1.362l2.922 7.903-.146.469c-.33.952-.725 1.296-1.45 1.296-.176 0-.374-.007-.528-.036v1.076c.176.03.396.044.564.044zm10.183-2.717c2.248 0 3.64-1.553 3.64-4.087 0-2.541-1.392-4.087-3.64-4.087-2.249 0-3.641 1.546-3.641 4.087 0 2.534 1.392 4.087 3.641 4.087zm0-1.135c-1.495 0-2.337-1.084-2.337-2.952 0-1.875.842-2.951 2.337-2.951 1.494 0 2.336 1.076 2.336 2.951 0 1.868-.842 2.952-2.336 2.952zm11.764-6.9h-1.26v4.673c0 1.385-.762 2.212-2.153 2.212-1.26 0-1.787-.659-1.787-2.08v-4.805h-1.26v5.113c0 1.867.923 2.922 2.695 2.922 1.209 0 2.051-.498 2.447-1.377h.117v1.238h1.201zm16.058 0h-1.267l-1.553 6.314h-.117l-1.765-6.314h-1.209l-1.765 6.314h-.117l-1.553-6.314h-1.274l2.212 7.896h1.274l1.758-6.108h.117l1.765 6.108h1.282zm6.381 5.853c-.33.695-1.018 1.069-2.036 1.069-1.34 0-2.212-.989-2.278-2.549v-.059h5.676v-.483c0-2.454-1.296-3.97-3.427-3.97-2.168 0-3.56 1.612-3.56 4.095 0 2.497 1.37 4.079 3.56 4.079 1.728 0 2.959-.835 3.325-2.182zm-2.08-4.878c1.252 0 2.087.922 2.117 2.321h-4.351c.095-1.399.974-2.321 2.234-2.321zm5.18 6.921h1.26v-4.893c0-1.113.871-1.919 2.072-1.919.249 0 .704.044.806.074v-1.26c-.161-.022-.425-.037-.63-.037-1.047 0-1.955.542-2.19 1.311h-.117v-1.172h-1.201zm10.483-2.043c-.33.695-1.018 1.069-2.037 1.069-1.34 0-2.211-.989-2.277-2.549v-.059h5.676v-.483c0-2.454-1.296-3.97-3.428-3.97-2.168 0-3.559 1.612-3.559 4.095 0 2.497 1.369 4.079 3.559 4.079 1.729 0 2.959-.835 3.325-2.182zm-2.08-4.878c1.252 0 2.087.922 2.116 2.321h-4.35c.095-1.399.974-2.321 2.234-2.321zm9.7-3.018v2.043h-1.274v1.055h1.274v4.79c0 1.509.652 2.11 2.278 2.11.249 0 .491-.03.74-.074v-1.062c-.235.022-.359.03-.586.03-.82 0-1.172-.396-1.172-1.326v-4.468h1.758v-1.055h-1.758v-2.043zm4.755 9.939h1.26v-4.673c0-1.333.776-2.226 2.19-2.226 1.194 0 1.824.695 1.824 2.094v4.805h1.26v-5.112c0-1.853-1.055-2.923-2.725-2.923-1.209 0-2.036.513-2.432 1.385h-.117v-4.38h-1.26zm13.823-2.043c-.33.695-1.018 1.069-2.036 1.069-1.341 0-2.212-.989-2.278-2.549v-.059h5.676v-.483c0-2.454-1.296-3.97-3.428-3.97-2.168 0-3.559 1.612-3.559 4.095 0 2.497 1.369 4.079 3.559 4.079 1.729 0 2.959-.835 3.326-2.182zm-2.08-4.878c1.252 0 2.087.922 2.116 2.321h-4.35c.095-1.399.974-2.321 2.234-2.321zm5.18 6.921h1.259v-4.893c0-1.113.872-1.919 2.073-1.919.249 0 .703.044.806.074v-1.26c-.161-.022-.425-.037-.63-.037-1.047 0-1.956.542-2.19 1.311h-.117v-1.172h-1.201zm10.482-2.043c-.329.695-1.018 1.069-2.036 1.069-1.34 0-2.212-.989-2.278-2.549v-.059h5.677v-.483c0-2.454-1.297-3.97-3.428-3.97-2.168 0-3.56 1.612-3.56 4.095 0 2.497 1.37 4.079 3.56 4.079 1.728 0 2.959-.835 3.325-2.182zm-2.08-4.878c1.253 0 2.088.922 2.117 2.321h-4.351c.096-1.399.974-2.321 2.234-2.321zm6.22 6.994c.528 0 .952-.432.952-.952 0-.527-.424-.952-.952-.952-.52 0-.952.425-.952.952 0 .52.432.952.952.952z" fill="#000"/><path d="m22.1157 51v-4.1675l3.7061-6.4013h-2.0728l-2.5122 4.5336h-.1245l-2.5195-4.5336h-2.0728l3.7061 6.4013v4.1675zm7.1941.1611c2.395 0 3.8525-1.5673 3.8525-4.1674 0-2.5855-1.4648-4.1529-3.8525-4.1529-2.3804 0-3.8525 1.5747-3.8525 4.1529 0 2.6001 1.4502 4.1674 3.8525 4.1674zm0-1.4868c-1.2671 0-1.9922-.9814-1.9922-2.6733s.7251-2.6734 1.9922-2.6734c1.2598 0 1.9849.9815 1.9849 2.6734s-.7178 2.6733-1.9849 2.6733zm12.4163-6.6797h-1.8165v4.6656c0 1.2085-.6445 1.9409-1.8237 1.9409-1.084 0-1.5893-.6006-1.5893-1.8457v-4.7608h-1.8164v5.2002c0 1.875 1.0253 2.9663 2.7758 2.9663 1.2232 0 2.0069-.52 2.3951-1.4355h.1245v1.2744h1.7505zm12.6669 2.6734c-.1904-1.6553-1.4355-2.8272-3.4936-2.8272-2.4097 0-3.8233 1.5454-3.8233 4.1382 0 2.6221 1.4209 4.1821 3.8306 4.1821 2.0288 0 3.2886-1.1279 3.4863-2.7832h-1.7285c-.1904.8423-.8203 1.2891-1.7651 1.2891-1.2378 0-1.9849-.9888-1.9849-2.688 0-1.6699.7398-2.6514 1.9849-2.6514.9961 0 1.5967.564 1.7651 1.3404zm1.4959 5.332h1.8164v-4.6509c0-1.1279.8203-1.8603 1.9995-1.8603.3076 0 .791.0512.9302.1025v-1.6553c-.1685-.0439-.4908-.0732-.7544-.0732-1.0327 0-1.897.5859-2.1167 1.3769h-.1245v-1.2451h-1.7505zm9.2522.1611c2.395 0 3.8525-1.5673 3.8525-4.1674 0-2.5855-1.4648-4.1529-3.8525-4.1529-2.3804 0-3.8526 1.5747-3.8526 4.1529 0 2.6001 1.4502 4.1674 3.8526 4.1674zm0-1.4868c-1.2671 0-1.9922-.9814-1.9922-2.6733s.7251-2.6734 1.9922-2.6734c1.2597 0 1.9848.9815 1.9848 2.6734s-.7178 2.6733-1.9848 2.6733zm5.2604-4.3945c0 1.2012.7251 1.9043 2.2632 2.2558l1.4209.3296c.7617.1758 1.106.4688 1.106.9229 0 .6079-.6372 1.0254-1.5528 1.0254-.9082 0-1.4721-.3662-1.6479-.9595h-1.7944c.1391 1.4429 1.3989 2.3071 3.3984 2.3071s3.4131-1.018 3.4131-2.5488c0-1.1792-.7105-1.8311-2.2412-2.1826l-1.4136-.315c-.8057-.1904-1.1865-.476-1.1865-.9301 0-.5933.6225-.9961 1.4502-.9961.8496 0 1.3843.3662 1.5161.9302h1.7065c-.1318-1.4429-1.3257-2.2779-3.2299-2.2779-1.8897 0-3.2081 1.0034-3.2081 2.439zm7.8753 0c0 1.2012.7251 1.9043 2.2632 2.2558l1.4209.3296c.7617.1758 1.1059.4688 1.1059.9229 0 .6079-.6372 1.0254-1.5527 1.0254-.9082 0-1.4722-.3662-1.648-.9595h-1.7944c.1392 1.4429 1.3989 2.3071 3.3984 2.3071 1.9996 0 3.4131-1.018 3.4131-2.5488 0-1.1792-.7104-1.8311-2.2412-2.1826l-1.4136-.315c-.8056-.1904-1.1865-.476-1.1865-.9301 0-.5933.6226-.9961 1.4502-.9961.8496 0 1.3843.3662 1.5161.9302h1.7066c-.1319-1.4429-1.3257-2.2779-3.23-2.2779-1.8897 0-3.208 1.0034-3.208 2.439zm13.427 3.5303c-.2637.6005-.8863.9375-1.7871.9375-1.1939 0-1.9629-.8497-2.0069-2.2046v-.0952h5.5957v-.5787c0-2.5122-1.3696-4.0283-3.6548-4.0283-2.3217 0-3.7646 1.6187-3.7646 4.1895 0 2.5635 1.4209 4.1308 3.7793 4.1308 1.8896 0 3.23-.9082 3.5596-2.351zm-1.8604-4.5557c1.0913 0 1.8091.769 1.8457 1.9849h-3.7719c.0805-1.2012.8422-1.9849 1.9262-1.9849zm8.1462 6.8774c1.1133 0 2.0364-.52 2.4904-1.3989h.124v1.2671h1.758v-11.1035h-1.816v4.3725h-.125c-.4245-.8789-1.3327-1.4062-2.4314-1.4062-2.0214 0-3.2959 1.5967-3.2959 4.1309 0 2.5415 1.2671 4.1381 3.2959 4.1381zm.564-6.7529c1.2451 0 2.0144 1.0034 2.0144 2.6221 0 1.626-.7619 2.622-2.0144 2.622-1.2451 0-1.9995-.9814-1.9995-2.622 0-1.6333.7617-2.6221 1.9995-2.6221zm13.9854-1.5161c-1.099 0-2.029.5493-2.49 1.4575h-.125v-1.3257h-1.75v10.6641h1.816v-3.8745h.125c.41.8496 1.296 1.3476 2.446 1.3476 2.021 0 3.281-1.5893 3.281-4.1308 0-2.5635-1.274-4.1382-3.303-4.1382zm-.571 6.7602c-1.238 0-2.007-1.0034-2.015-2.622.008-1.6187.784-2.6221 2.022-2.6221 1.245 0 1.999.9815 1.999 2.6221s-.747 2.622-2.006 2.622zm7.662 1.5088c1.048 0 1.927-.4541 2.374-1.2304h.124v1.0986h1.751v-5.4712c0-1.6919-1.158-2.688-3.216-2.688-1.904 0-3.23.8936-3.376 2.2925h1.714c.168-.5493.739-.8496 1.574-.8496.982 0 1.509.4468 1.509 1.2451v.6885l-2.065.1245c-1.949.1099-3.04.9521-3.04 2.3877 0 1.4648 1.106 2.4023 2.651 2.4023zm.535-1.3989c-.806 0-1.384-.4028-1.384-1.0913 0-.6665.476-1.04 1.494-1.106l1.809-.1245v.6519c0 .9521-.82 1.6699-1.919 1.6699zm6.242-8.7012v2.0142h-1.267v1.4136h1.267v4.4165c0 1.5454.733 2.1606 2.571 2.1606.351 0 .688-.0293.952-.0805v-1.3916c-.22.0219-.359.0366-.615.0366-.762 0-1.099-.3589-1.099-1.1573v-3.9843h1.714v-1.4136h-1.714v-2.0142zm5.173 9.9683h1.816v-4.6509c0-1.1719.667-1.9555 1.86-1.9555 1.055 0 1.612.6298 1.612 1.8676v4.7388h1.816v-5.1636c0-1.9043-1.04-2.9883-2.754-2.9883-1.194 0-2.051.542-2.431 1.4429h-.132v-4.3945h-1.787zm8.834-5.7202c0 1.2012.725 1.9043 2.264 2.2558l1.42.3296c.762.1758 1.106.4688 1.106.9229 0 .6079-.637 1.0254-1.552 1.0254-.909 0-1.472-.3662-1.648-.9595h-1.795c.139 1.4429 1.399 2.3071 3.399 2.3071 1.999 0 3.413-1.018 3.413-2.5488 0-1.1792-.711-1.8311-2.241-2.1826l-1.414-.315c-.806-.1904-1.186-.476-1.186-.9301 0-.5933.622-.9961 1.45-.9961.849 0 1.384.3662 1.516.9302h1.706c-.131-1.4429-1.325-2.2779-3.23-2.2779-1.889 0-3.208 1.0034-3.208 2.439zm22.694-2.2852h-1.809l-1.326 6.0132h-.124l-1.553-6.0132h-1.736l-1.538 6.0132h-.124l-1.333-6.0132h-1.831l2.168 8.0054h1.889l1.553-5.8008h.125l1.56 5.8008h1.911zm2.272-1.3403c.601 0 1.092-.4761 1.092-1.0767 0-.5932-.491-1.0766-1.092-1.0766-.593 0-1.084.4834-1.084 1.0766 0 .6006.491 1.0767 1.084 1.0767zm-.9 9.3457h1.809v-8.0054h-1.809zm4.403-9.9683v2.0142h-1.267v1.4136h1.267v4.4165c0 1.5454.733 2.1606 2.571 2.1606.351 0 .688-.0293.952-.0805v-1.3916c-.22.0219-.359.0366-.615.0366-.762 0-1.099-.3589-1.099-1.1573v-3.9843h1.714v-1.4136h-1.714v-2.0142zm5.173 9.9683h1.816v-4.6509c0-1.1719.667-1.9555 1.86-1.9555 1.055 0 1.612.6298 1.612 1.8676v4.7388h1.816v-5.1636c0-1.9043-1.04-2.9883-2.754-2.9883-1.194 0-2.05.542-2.431 1.4429h-.132v-4.3945h-1.787zm12.593-5.7202c0 1.2012.726 1.9043 2.264 2.2558l1.421.3296c.761.1758 1.105.4688 1.105.9229 0 .6079-.637 1.0254-1.552 1.0254-.908 0-1.472-.3662-1.648-.9595h-1.795c.14 1.4429 1.399 2.3071 3.399 2.3071 1.999 0 3.413-1.018 3.413-2.5488 0-1.1792-.711-1.8311-2.241-2.1826l-1.414-.315c-.806-.1904-1.186-.476-1.186-.9301 0-.5933.622-.9961 1.45-.9961.849 0 1.384.3662 1.516.9302h1.706c-.131-1.4429-1.325-2.2779-3.23-2.2779-1.889 0-3.208 1.0034-3.208 2.439zm11.662 5.8813c2.395 0 3.853-1.5673 3.853-4.1674 0-2.5855-1.465-4.1529-3.853-4.1529-2.38 0-3.852 1.5747-3.852 4.1529 0 2.6001 1.45 4.1674 3.852 4.1674zm0-1.4868c-1.267 0-1.992-.9814-1.992-2.6733s.725-2.6734 1.992-2.6734c1.26 0 1.985.9815 1.985 2.6734s-.718 2.6733-1.985 2.6733zm5.444 1.3257h1.816v-4.8706c0-.9961.667-1.7505 1.568-1.7505.893 0 1.45.542 1.45 1.4282v5.1929h1.765v-5.0024c0-.9156.623-1.6187 1.567-1.6187.975 0 1.465.52 1.465 1.5601v5.061h1.809v-5.5078c0-1.6626-.966-2.6514-2.57-2.6514-1.114 0-2.037.5713-2.432 1.4429h-.125c-.337-.8862-1.106-1.4429-2.212-1.4429-1.062 0-1.882.542-2.226 1.4429h-.125v-1.2891h-1.75zm18.576-2.1899c-.264.6005-.886.9375-1.787.9375-1.194 0-1.963-.8497-2.007-2.2046v-.0952h5.596v-.5787c0-2.5122-1.37-4.0283-3.655-4.0283-2.322 0-3.765 1.6187-3.765 4.1895 0 2.5635 1.421 4.1308 3.779 4.1308 1.89 0 3.23-.9082 3.56-2.351zm-1.861-4.5557c1.092 0 1.81.769 1.846 1.9849h-3.772c.081-1.2012.842-1.9849 1.926-1.9849zm8.703 6.9067c2.395 0 3.853-1.5673 3.853-4.1674 0-2.5855-1.465-4.1529-3.853-4.1529-2.38 0-3.852 1.5747-3.852 4.1529 0 2.6001 1.45 4.1674 3.852 4.1674zm0-1.4868c-1.267 0-1.992-.9814-1.992-2.6733s.725-2.6734 1.992-2.6734c1.26 0 1.985.9815 1.985 2.6734s-.718 2.6733-1.985 2.6733zm5.444 1.3257h1.816v-4.6655c0-1.2012.681-1.9556 1.765-1.9556 1.106 0 1.619.6226 1.619 1.8677v4.7534h1.817v-5.1782c0-1.9043-.975-2.981-2.762-2.981-1.194 0-1.999.542-2.38 1.4356h-.125v-1.2818h-1.75zm14.152-2.1899c-.264.6005-.886.9375-1.787.9375-1.194 0-1.963-.8497-2.007-2.2046v-.0952h5.596v-.5787c0-2.5122-1.37-4.0283-3.655-4.0283-2.322 0-3.765 1.6187-3.765 4.1895 0 2.5635 1.421 4.1308 3.78 4.1308 1.889 0 3.23-.9082 3.559-2.351zm-1.86-4.5557c1.091 0 1.809.769 1.845 1.9849h-3.772c.081-1.2012.843-1.9849 1.927-1.9849zm15.926 1.4136c-.191-1.6553-1.436-2.8272-3.494-2.8272-2.409 0-3.823 1.5454-3.823 4.1382 0 2.6221 1.421 4.1821 3.831 4.1821 2.028 0 3.288-1.1279 3.486-2.7832h-1.729c-.19.8423-.82 1.2891-1.765 1.2891-1.238 0-1.985-.9888-1.985-2.688 0-1.6699.74-2.6514 1.985-2.6514.996 0 1.597.564 1.765 1.3404zm4.953 5.4931c2.395 0 3.852-1.5673 3.852-4.1674 0-2.5855-1.465-4.1529-3.852-4.1529-2.381 0-3.853 1.5747-3.853 4.1529 0 2.6001 1.45 4.1674 3.853 4.1674zm0-1.4868c-1.267 0-1.992-.9814-1.992-2.6733s.725-2.6734 1.992-2.6734c1.26 0 1.985.9815 1.985 2.6734s-.718 2.6733-1.985 2.6733zm5.443 1.3257h1.817v-4.6655c0-1.2012.681-1.9556 1.765-1.9556 1.106 0 1.619.6226 1.619 1.8677v4.7534h1.816v-5.1782c0-1.9043-.974-2.981-2.761-2.981-1.194 0-2 .542-2.381 1.4356h-.124v-1.2818h-1.751zm9.516 0h1.809v-6.5405h1.721v-1.4136h-1.743v-.7397c0-.7618.337-1.1426 1.194-1.1426.257 0 .476.0219.623.0439v-1.311c-.293-.0513-.623-.0733-1.011-.0733-1.78 0-2.593.7837-2.593 2.3804v.8423h-1.311v1.4136h1.311zm5.971-9.3457c.601 0 1.091-.4761 1.091-1.0767 0-.5932-.49-1.0766-1.091-1.0766-.593 0-1.084.4834-1.084 1.0766 0 .6006.491 1.0767 1.084 1.0767zm-.901 9.3457h1.809v-8.0054h-1.809zm3.825 0h1.817v-4.6509c0-1.1279.82-1.8603 1.999-1.8603.308 0 .791.0512.93.1025v-1.6553c-.168-.0439-.49-.0732-.754-.0732-1.033 0-1.897.5859-2.117 1.3769h-.124v-1.2451h-1.751zm6.103 0h1.816v-4.8706c0-.9961.667-1.7505 1.568-1.7505.893 0 1.45.542 1.45 1.4282v5.1929h1.765v-5.0024c0-.9156.623-1.6187 1.567-1.6187.975 0 1.465.52 1.465 1.5601v5.061h1.809v-5.5078c0-1.6626-.966-2.6514-2.57-2.6514-1.114 0-2.037.5713-2.432 1.4429h-.125c-.336-.8862-1.105-1.4429-2.211-1.4429-1.062 0-1.883.542-2.227 1.4429h-.125v-1.2891h-1.75zm18.576-2.1899c-.264.6005-.886.9375-1.787.9375-1.194 0-1.963-.8497-2.007-2.2046v-.0952h5.596v-.5787c0-2.5122-1.37-4.0283-3.655-4.0283-2.322 0-3.765 1.6187-3.765 4.1895 0 2.5635 1.421 4.1308 3.78 4.1308 1.889 0 3.23-.9082 3.559-2.351zm-1.86-4.5557c1.091 0 1.809.769 1.845 1.9849h-3.772c.081-1.2012.843-1.9849 1.927-1.9849zm8.146 6.8774c1.113 0 2.036-.52 2.49-1.3989h.125v1.2671h1.757v-11.1035h-1.816v4.3725h-.125c-.424-.8789-1.333-1.4062-2.431-1.4062-2.022 0-3.296 1.5967-3.296 4.1309 0 2.5415 1.267 4.1381 3.296 4.1381zm.564-6.7529c1.245 0 2.014 1.0034 2.014 2.6221 0 1.626-.762 2.622-2.014 2.622-1.245 0-2-.9814-2-2.622 0-1.6333.762-2.6221 2-2.6221zm-301.6925 18.4839c-1.0986 0-2.0288.5493-2.4902 1.4575h-.1245v-1.3257h-1.7505v10.6641h1.8164v-3.8745h.1245c.4102.8496 1.2964 1.3476 2.4463 1.3476 2.0215 0 3.2812-1.5893 3.2812-4.1308 0-2.5635-1.2744-4.1382-3.3032-4.1382zm-.5713 6.7602c-1.2378 0-2.0068-1.0034-2.0141-2.622.0073-1.6187.7837-2.6221 2.0215-2.6221 1.2451 0 1.9995.9815 1.9995 2.6221s-.7471 2.622-2.0069 2.622zm8.9153 1.5381c2.395 0 3.8525-1.5673 3.8525-4.1674 0-2.5855-1.4648-4.1529-3.8525-4.1529-2.3804 0-3.8525 1.5747-3.8525 4.1529 0 2.6001 1.4502 4.1674 3.8525 4.1674zm0-1.4868c-1.2671 0-1.9922-.9814-1.9922-2.6733s.7251-2.6734 1.9922-2.6734c1.2598 0 1.9849.9815 1.9849 2.6734s-.7178 2.6733-1.9849 2.6733zm5.2605-4.3945c0 1.2012.7251 1.9043 2.2632 2.2558l1.4209.3296c.7617.1758 1.1059.4688 1.1059.9229 0 .6079-.6372 1.0254-1.5527 1.0254-.9082 0-1.4722-.3662-1.648-.9595h-1.7944c.1392 1.4429 1.3989 2.3071 3.3984 2.3071 1.9996 0 3.4131-1.018 3.4131-2.5488 0-1.1792-.7104-1.8311-2.2412-2.1826l-1.4136-.315c-.8056-.1904-1.1865-.476-1.1865-.9301 0-.5933.6226-.9961 1.4502-.9961.8496 0 1.3843.3662 1.5161.9302h1.7066c-.1319-1.4429-1.3257-2.2779-3.23-2.2779-1.8897 0-3.208 1.0034-3.208 2.439zm9.1277-3.6255c.6006 0 1.0913-.4761 1.0913-1.0767 0-.5932-.4907-1.0766-1.0913-1.0766-.5933 0-1.084.4834-1.084 1.0766 0 .6006.4907 1.0767 1.084 1.0767zm-.9009 9.3457h1.8091v-8.0054h-1.8091zm4.4035-9.9683v2.0142h-1.267v1.4136h1.267v4.4165c0 1.5454.7325 2.1606 2.5708 2.1606.3516 0 .6885-.0293.9522-.0805v-1.3916c-.2197.0219-.3589.0366-.6152.0366-.7618 0-1.0987-.3589-1.0987-1.1573v-3.9843h1.7139v-1.4136h-1.7139v-2.0142zm6.0222.6226c.6006 0 1.0914-.4761 1.0914-1.0767 0-.5932-.4908-1.0766-1.0914-1.0766-.5932 0-1.0839.4834-1.0839 1.0766 0 .6006.4907 1.0767 1.0839 1.0767zm-.9008 9.3457h1.809v-8.0054h-1.809zm10.8122-8.0054h-1.9189l-1.8384 6.2256h-.1245l-1.853-6.2256h-1.9483l2.8491 8.0054h1.9995zm6.198 5.8155c-.2637.6005-.8862.9375-1.7871.9375-1.1939 0-1.9629-.8497-2.0068-2.2046v-.0952h5.5957v-.5787c0-2.5122-1.3697-4.0283-3.6548-4.0283-2.3218 0-3.7647 1.6187-3.7647 4.1895 0 2.5635 1.4209 4.1308 3.7793 4.1308 1.8897 0 3.23-.9082 3.5596-2.351zm-1.8603-4.5557c1.0913 0 1.809.769 1.8457 1.9849h-3.772c.0805-1.2012.8423-1.9849 1.9263-1.9849z" fill="#000"/><path d="m319.028 24h1.092v-4.0498c0-1.1997.705-1.9297 1.797-1.9297 1.091 0 1.612.584 1.612 1.8154v4.1641h1.092v-4.4307c0-1.625-.857-2.5327-2.393-2.5327-1.048 0-1.714.4444-2.057 1.1997h-.102v-1.0791h-1.041zm10.326.1206c1.949 0 3.155-1.3457 3.155-3.542 0-2.2026-1.206-3.542-3.155-3.542s-3.155 1.3394-3.155 3.542c0 2.1963 1.206 3.542 3.155 3.542zm0-.9839c-1.295 0-2.025-.9394-2.025-2.5581 0-1.625.73-2.5581 2.025-2.5581s2.025.9331 2.025 2.5581c0 1.6187-.73 2.5581-2.025 2.5581zm13.144-5.9795h-1.098l-1.346 5.4717h-.101l-1.53-5.4717h-1.047l-1.53 5.4717h-.102l-1.345-5.4717h-1.105l1.917 6.8428h1.105l1.523-5.2939h.102l1.529 5.2939h1.111z" fill="#8a8a8f"/><path d="m39.856 24.2158c1.9487 0 3.396-1.0854 3.7006-2.7676h-1.1616c-.292 1.0601-1.2632 1.7139-2.539 1.7139-1.7647 0-2.8692-1.4409-2.8692-3.7388 0-2.2978 1.1045-3.7451 2.8628-3.7451 1.2632 0 2.2407.7427 2.5454 1.9234h1.1616c-.2729-1.7647-1.7773-2.9771-3.707-2.9771-2.4883 0-4.0371 1.8408-4.0371 4.7988 0 2.9517 1.5552 4.7925 4.0435 4.7925zm9.3863-9.5913c-2.5898 0-4.2021 1.8472-4.2021 4.7925 0 2.9326 1.5742 4.7988 4.2021 4.7988 2.6152 0 4.2022-1.8725 4.2022-4.7988 0-2.939-1.5996-4.7925-4.2022-4.7925zm0 1.0537c1.8726 0 3.0278 1.4473 3.0278 3.7388 0 2.2725-1.1489 3.7451-3.0278 3.7451-1.9043 0-3.0278-1.4726-3.0278-3.7451 0-2.2915 1.1616-3.7388 3.0278-3.7388zm7.2472 4.6973h2.2534l1.9615 3.6245h1.3393l-2.1201-3.8022c1.1489-.3619 1.8408-1.3521 1.8408-2.628 0-1.6504-1.1553-2.7295-2.9199-2.7295h-3.4976v9.1597h1.1426zm0-4.5195h2.2026c1.1807 0 1.8916.6538 1.8916 1.7519 0 1.1235-.6665 1.752-1.8408 1.752h-2.2534zm11.1193-1.2315c-2.5899 0-4.2022 1.8472-4.2022 4.7925 0 2.9326 1.5742 4.7988 4.2022 4.7988 2.6152 0 4.2021-1.8725 4.2021-4.7988 0-2.939-1.5996-4.7925-4.2021-4.7925zm0 1.0537c1.8725 0 3.0278 1.4473 3.0278 3.7388 0 2.2725-1.1489 3.7451-3.0278 3.7451-1.9043 0-3.0279-1.4726-3.0279-3.7451 0-2.2915 1.1617-3.7388 3.0279-3.7388zm7.2345 8.3218v-7.103h.1015l4.9703 7.103h1.1108v-9.1597h-1.1299v7.1285h-.1016l-4.9702-7.1285h-1.1108v9.1597zm14.3946 0h1.1997l-3.3769-9.1597h-1.1299l-3.377 9.1597h1.1998l.9204-2.6216h3.6435zm-2.7929-7.6807h.1015l1.4346 4.0879h-2.9707zm7.9644 7.6807v-8.1313h2.9517v-1.0284h-7.0459v1.0284h2.9517v8.1313zm5.7806-3.6245h2.254l1.961 3.6245h1.34l-2.121-3.8022c1.149-.3619 1.841-1.3521 1.841-2.628 0-1.6504-1.155-2.7295-2.92-2.7295h-3.4973v9.1597h1.1423zm0-4.5195h2.203c1.181 0 1.892.6538 1.892 1.7519 0 1.1235-.667 1.752-1.841 1.752h-2.254zm13.227 8.144h1.2l-3.377-9.1597h-1.13l-3.377 9.1597h1.2l.92-2.6216h3.644zm-2.793-7.6807h.102l1.434 4.0879h-2.971zm8.764 7.8965c1.949 0 3.396-1.0854 3.701-2.7676h-1.162c-.292 1.0601-1.263 1.7139-2.539 1.7139-1.764 0-2.869-1.4409-2.869-3.7388 0-2.2978 1.105-3.7451 2.863-3.7451 1.263 0 2.241.7427 2.545 1.9234h1.162c-.273-1.7647-1.777-2.9771-3.707-2.9771-2.488 0-4.037 1.8408-4.037 4.7988 0 2.9517 1.555 4.7925 4.043 4.7925zm11.215-1.2441h-4.532v-3.1485h4.297v-1.0156h-4.297v-2.9389h4.532v-1.0284h-5.675v9.1597h5.675z" fill="#8a8a8f"/><g mask="url(#e)"><path d="m23.2344 28c2.8906 0 4.7656-1.875 4.7656-4.7656v-10.4688c0-2.8906-1.875-4.7656-4.7656-4.7656h-10.4688c-2.8906 0-4.7656 1.875-4.7656 4.7656v10.4688c0 2.8906 1.875 4.7656 4.7656 4.7656z" fill="url(#b)"/><path d="m23.2344 28c2.8906 0 4.7656-1.875 4.7656-4.7656v-10.4688c0-2.8906-1.875-4.7656-4.7656-4.7656h-10.4688c-2.8906 0-4.7656 1.875-4.7656 4.7656v10.4688c0 2.8906 1.875 4.7656 4.7656 4.7656z" fill="#313ebd"/><path clip-rule="evenodd" d="m18.5454 25.6172c.5711 0 1.034-.4581 1.034-1.0232 0-.487-.3437-.8945-.8042-.9979v-5.307l2.0918 3.6231c-.185.215-.2248.5297-.0763.7869.1884.3263.6084.4364.938.2461.3297-.1904.4443-.6091.2559-.9354-.1485-.2572-.4409-.3801-.7196-.3274l-2.0942-3.6272 2.8682 1.6559.2298-.3979-2.8612-1.6519h2.2246v-.4595h-2.6026l3.0349-1.7522-.2298-.398-2.373 1.3701 1.3423-2.3249-.398-.2298-1.6308 2.8246v-4.2877c.4605-.1034.8042-.5109.8042-.9979 0-.5651-.4629-1.0232-1.034-1.0232-.571 0-1.0339.4581-1.0339 1.0232 0 .487.3437.8945.8042.9979v4.1701l-2.0918-3.6231c.185-.215.2248-.5297.0763-.7869-.1884-.3263-.6084-.4364-.9381-.2461-.3296.1904-.4442.6091-.2558.9354.1485.2572.4409.3801.7196.3274l2.0894 3.6191-4.0967-2.3653c.1407-.4505-.0403-.9519-.462-1.1954-.4894-.2825-1.1176-.1107-1.4031.3839-.2855.4945-.1203 1.1244.3691 1.407.4217.2435.9465.1495 1.2663-.1975l4.1037 2.3693h-4.1863c-.0937-.2677-.3464-.4595-.6434-.4595-.3767 0-.6821.3086-.6821.6893 0 .3806.3054.6893.6821.6893.297 0 .5497-.1919.6434-.4596h3.8082l-4.3006 2.483c-.3198-.347-.8446-.441-1.2663-.1975-.4894.2826-.6546.9125-.3691 1.407.2855.4946.9137.6664 1.4031.3839.4217-.2435.6027-.7449.462-1.1954l4.9626-2.8651-2.1784 3.773c-.27-.0397-.548.0835-.6915.3321-.1884.3262-.0738.745.2559.9354.3297.1903.7496.0801.938-.2461.1534-.2657.1059-.5928-.095-.8078l1.8805-3.2571v5.1894c-.4605.1034-.8042.5109-.8042.9979 0 .5651.4629 1.0232 1.0339 1.0232z" fill="#fff" fill-rule="evenodd"/><path d="m18.5674 13.2266c2.3558 0 4.2656 1.9097 4.2656 4.2656 0 2.3558-1.9098 4.2656-4.2656 4.2656-2.3559 0-4.2656-1.9098-4.2656-4.2656 0-2.3559 1.9097-4.2656 4.2656-4.2656z" fill="#313ebd"/><path clip-rule="evenodd" d="m18.7193 13.1891c1.2313 0 2.523.5915 3.4163 1.509l-1.1227 1.2192c-.6036-.6036-1.4365-.9899-2.197-.9899-1.4486 0-2.5712 1.1348-2.5712 2.6075s1.1226 2.5954 2.5712 2.5954c.7846 0 1.6176-.4346 2.197-1.0985l1.1106 1.352c-.8329.8571-2.1125 1.4003-3.3317 1.4003-2.5592 0-4.5027-1.8349-4.5027-4.2734 0-2.4505 1.9073-4.3216 4.4302-4.3216z" fill="#fff" fill-rule="evenodd"/></g></g></g></svg>