<svg fill="none" height="560" viewBox="0 0 560 560" width="560" xmlns="http://www.w3.org/2000/svg"><g fill="#313ebd" fill-opacity=".5"><circle cx="335.074" cy="354.074" r="200.074"/><circle cx="364.5" cy="414.5" r="145.5"/><circle cx="196.5" cy="174.5" r="138.5"/><circle cx="288.5" cy="96.5" r="96.5"/><circle cx="403.5" cy="138.5" r="130.5"/><circle cx="468" cy="397" r="84"/><circle cx="403.5" cy="255.5" r="130.5"/><circle cx="225.5" cy="318.5" r="63.5"/><circle cx="144" cy="400" r="144"/><circle cx="169" cy="375" r="119"/><circle cx="169" cy="375" r="119"/><circle cx="219" cy="175" r="119"/><circle cx="306" cy="400" r="63"/><circle cx="306" cy="358" r="63"/></g><g fill="#ff564a" fill-opacity=".75"><path d="m197 273c0 9.389-7.611 17-17 17s-17-7.611-17-17 7.611-17 17-17 17 7.611 17 17z"/><path d="m321 235c0 43.078-34.922 78-78 78s-78-34.922-78-78 34.922-78 78-78 78 34.922 78 78z"/><path d="m560 384c0 43.078-34.922 78-78 78s-78-34.922-78-78 34.922-78 78-78 78 34.922 78 78z"/><path d="m286 299.5c0 24.577-19.923 44.5-44.5 44.5s-44.5-19.923-44.5-44.5 19.923-44.5 44.5-44.5 44.5 19.923 44.5 44.5z"/><path d="m357 279.5c0 24.577-19.923 44.5-44.5 44.5s-44.5-19.923-44.5-44.5 19.923-44.5 44.5-44.5 44.5 19.923 44.5 44.5z"/><path d="m468 337c0 23.196-18.804 42-42 42s-42-18.804-42-42 18.804-42 42-42 42 18.804 42 42z"/><path d="m482 373.5c0 18.502-14.998 33.5-33.5 33.5s-33.5-14.998-33.5-33.5 14.998-33.5 33.5-33.5 33.5 14.998 33.5 33.5z"/><path d="m486 354c0 9.941-8.059 18-18 18s-18-8.059-18-18 8.059-18 18-18 18 8.059 18 18z"/></g></svg>