
    <svg width="560" height="560" viewBox="0 0 560 560" fill="none" xmlns="http://www.w3.org/2000/svg">
    <circle cx="335.074" cy="354.074" r="200.074" fill="#313EBD" fill-opacity="0.5"/>
    <circle cx="364.5" cy="414.5" r="145.5" fill="#313EBD" fill-opacity="0.5"/>
    <circle cx="196.5" cy="174.5" r="138.5" fill="#313EBD" fill-opacity="0.5"/>
    <circle cx="288.5" cy="96.5" r="96.5" fill="#313EBD" fill-opacity="0.5"/>
    <circle cx="403.5" cy="138.5" r="130.5" fill="#313EBD" fill-opacity="0.5"/>
    <circle cx="468" cy="397" r="84" fill="#313EBD" fill-opacity="0.5"/>
    <circle cx="403.5" cy="255.5" r="130.5" fill="#313EBD" fill-opacity="0.5"/>
    <circle cx="225.5" cy="318.5" r="63.5" fill="#313EBD" fill-opacity="0.5"/>
    <circle cx="144" cy="400" r="144" fill="#313EBD" fill-opacity="0.5"/>
    <circle cx="169" cy="375" r="119" fill="#313EBD" fill-opacity="0.5"/>
    <circle cx="169" cy="375" r="119" fill="#313EBD" fill-opacity="0.5"/>
    <circle cx="219" cy="175" r="119" fill="#313EBD" fill-opacity="0.5"/>
    <circle cx="306" cy="400" r="63" fill="#313EBD" fill-opacity="0.5"/>
    <circle cx="306" cy="358" r="63" fill="#313EBD" fill-opacity="0.5"/>
    <path d="M197 273C197 282.389 189.389 290 180 290C170.611 290 163 282.389 163 273C163 263.611 170.611 256 180 256C189.389 256 197 263.611 197 273Z" fill="#FF564A" fill-opacity="0.75"/>
    <path d="M321 235C321 278.078 286.078 313 243 313C199.922 313 165 278.078 165 235C165 191.922 199.922 157 243 157C286.078 157 321 191.922 321 235Z" fill="#FF564A" fill-opacity="0.75"/>
    <path d="M560 384C560 427.078 525.078 462 482 462C438.922 462 404 427.078 404 384C404 340.922 438.922 306 482 306C525.078 306 560 340.922 560 384Z" fill="#FF564A" fill-opacity="0.75"/>
    <path d="M286 299.5C286 324.077 266.077 344 241.5 344C216.923 344 197 324.077 197 299.5C197 274.923 216.923 255 241.5 255C266.077 255 286 274.923 286 299.5Z" fill="#FF564A" fill-opacity="0.75"/>
    <path d="M357 279.5C357 304.077 337.077 324 312.5 324C287.923 324 268 304.077 268 279.5C268 254.923 287.923 235 312.5 235C337.077 235 357 254.923 357 279.5Z" fill="#FF564A" fill-opacity="0.75"/>
    <path d="M468 337C468 360.196 449.196 379 426 379C402.804 379 384 360.196 384 337C384 313.804 402.804 295 426 295C449.196 295 468 313.804 468 337Z" fill="#FF564A" fill-opacity="0.75"/>
    <path d="M482 373.5C482 392.002 467.002 407 448.5 407C429.998 407 415 392.002 415 373.5C415 354.998 429.998 340 448.5 340C467.002 340 482 354.998 482 373.5Z" fill="#FF564A" fill-opacity="0.75"/>
    <path d="M486 354C486 363.941 477.941 372 468 372C458.059 372 450 363.941 450 354C450 344.059 458.059 336 468 336C477.941 336 486 344.059 486 354Z" fill="#FF564A" fill-opacity="0.75"/>
    </svg>
