<svg width="281" height="60" viewBox="0 0 281 60" fill="none" xmlns="http://www.w3.org/2000/svg">
<path d="M82.2066 15.9663C82.0657 15.5081 81.6427 15.1909 81.1493 15.1909H70.787C70.2935 15.1909 69.8706 15.5081 69.7296 15.9663L56.6534 57.4508C56.5476 57.8032 56.6181 58.1557 56.8296 58.4376C57.0411 58.7196 57.3583 58.8958 57.7108 58.8958H64.8304C65.3239 58.8958 65.7468 58.5786 65.8878 58.0852L74.8755 27.5975C74.8755 27.5975 75.1222 26.8221 75.9329 26.8221C76.7788 26.8221 76.955 27.5975 76.955 27.5975L81.114 42.0483H75.5099C75.0165 42.0483 74.5583 42.3655 74.4525 42.859L72.8312 48.5688C72.7255 48.9212 72.796 49.2737 73.0075 49.5557C73.2189 49.8376 73.5362 49.9786 73.8886 49.9786H83.4403L85.9427 58.0499C86.0837 58.5081 86.5066 58.8253 87.0001 58.8253H94.1198C94.4722 58.8253 94.7894 58.6491 95.0009 58.3671C95.2124 58.0852 95.2829 57.6975 95.1771 57.3803L82.2066 15.9663Z" fill="#205081"/>
<path d="M113.258 52.4809C113.223 52.1637 113.047 51.8818 112.765 51.7055C112.518 51.5293 112.201 51.4588 111.884 51.5646C110.721 51.8465 109.628 52.0228 108.747 52.0228C107.125 52.0228 106.385 51.3178 106.385 49.7318V33.8711H112.765C113.364 33.8711 113.893 33.3777 113.893 32.7432V27.8088C113.893 27.2096 113.399 26.7162 112.765 26.7162H106.385V19.0326C106.385 18.7154 106.244 18.3982 105.998 18.1867C105.751 17.9752 105.434 17.8695 105.116 17.94L98.5607 18.8564C97.9968 18.9268 97.6091 19.385 97.6091 19.949V26.6809H94.0492C93.4501 26.6809 92.9214 27.1744 92.9214 27.7736V32.7432C92.9214 33.3424 93.4148 33.8711 94.0492 33.8711H97.6091V50.7891C97.6091 56.6047 100.675 59.5301 106.667 59.5301C108.394 59.5301 111.284 59.1424 113.188 58.4727C113.681 58.2965 113.998 57.8031 113.928 57.2744L113.258 52.4809Z" fill="#205081"/>
<path d="M125.418 14.3804H118.862C118.263 14.3804 117.734 14.8738 117.734 15.5082V57.7681C117.734 58.3673 118.228 58.8959 118.862 58.8959H125.418C126.017 58.8959 126.546 58.4025 126.546 57.7681V15.5082C126.511 14.9091 126.017 14.3804 125.418 14.3804Z" fill="#205081"/>
<path d="M142.266 26.0469C138.953 26.0469 134.899 26.5756 131.974 27.3862C131.445 27.5272 131.093 28.0911 131.163 28.6198L131.939 33.378C131.974 33.66 132.15 33.942 132.397 34.1182C132.644 34.2944 132.961 34.3649 133.243 34.2944C135.957 33.7657 138.776 33.4838 141.173 33.4838C145.896 33.4838 146.671 34.4706 146.671 37.678V40.4624H139.657C132.925 40.4624 130.071 43.2469 130.071 49.7321C130.071 55.9354 133.207 59.4952 138.706 59.4952C141.878 59.4952 145.05 58.6141 147.729 56.9928L148.011 58.0149C148.152 58.5084 148.575 58.8256 149.068 58.8256H154.355C154.954 58.8256 155.483 58.3321 155.483 57.6977V37.7485C155.448 29.219 151.888 26.0469 142.266 26.0469ZM146.671 47.0887V50.9657C145.579 51.5297 143.605 52.3756 141.243 52.3756C139.199 52.3756 138.565 51.7411 138.565 49.6969C138.565 47.7231 138.953 47.0887 141.349 47.0887H146.671Z" fill="#205081"/>
<path d="M171.907 38.9469C167.854 37.8895 167.854 37.8543 167.854 35.6338C167.854 34.1182 167.995 33.4133 171.344 33.4133C173.634 33.4133 177.018 33.801 179.203 34.1887C179.485 34.2239 179.803 34.1534 180.049 33.9772C180.296 33.801 180.437 33.519 180.472 33.237L181.107 28.2321C181.177 27.6682 180.825 27.1395 180.261 26.9985C177.758 26.3993 174.234 26.0469 171.344 26.0469C161.263 26.0469 159.184 29.8534 159.184 35.5633C159.184 41.837 160.347 43.9518 168.066 45.8551C173.141 47.0887 173.141 48.0051 173.141 49.4854C173.141 51.4592 172.965 52.1641 169.652 52.1641C166.973 52.1641 163.871 51.7411 161.122 51.0362C160.84 50.9657 160.488 51.001 160.241 51.1772C159.994 51.3534 159.783 51.6002 159.748 51.9174L158.866 56.6756C158.761 57.2395 159.078 57.7682 159.607 57.9444C162.567 58.8961 166.867 59.601 170.004 59.601C179.767 59.601 181.776 55.5125 181.776 49.3797C181.812 42.5067 180.613 41.2731 171.907 38.9469Z" fill="#205081"/>
<path d="M197.214 38.9469C193.161 37.8895 193.161 37.8543 193.161 35.6338C193.161 34.1182 193.302 33.4133 196.65 33.4133C198.941 33.4133 202.325 33.801 204.51 34.1887C204.792 34.2239 205.109 34.1534 205.356 33.9772C205.602 33.801 205.743 33.519 205.779 33.237L206.413 28.2321C206.484 27.6682 206.131 27.1395 205.567 26.9985C203.065 26.3993 199.54 26.0469 196.65 26.0469C186.57 26.0469 184.49 29.8534 184.49 35.5633C184.49 41.837 185.653 43.9518 193.372 45.8551C198.448 47.0887 198.448 48.0051 198.448 49.4854C198.448 51.4592 198.271 52.1641 194.958 52.1641C192.28 52.1641 189.178 51.7411 186.429 51.0362C186.147 50.9657 185.794 51.001 185.548 51.1772C185.301 51.3534 185.089 51.6002 185.054 51.9174L184.173 56.6756C184.067 57.2395 184.384 57.7682 184.913 57.9444C187.874 58.8961 192.174 59.601 195.311 59.601C205.074 59.601 207.083 55.5125 207.083 49.3797C207.153 42.5067 205.955 41.2731 197.214 38.9469Z" fill="#205081"/>
<path d="M218.467 14.3804H211.911C211.312 14.3804 210.784 14.8738 210.784 15.473V21.2886C210.784 21.8877 211.277 22.4164 211.911 22.4164H218.467C219.066 22.4164 219.595 21.923 219.595 21.2886V15.5082C219.56 14.8738 219.066 14.3804 218.467 14.3804Z" fill="#205081"/>
<path d="M218.467 26.6812H211.911C211.312 26.6812 210.784 27.1746 210.784 27.7738V57.7328C210.784 58.332 211.277 58.8607 211.911 58.8607H218.467C219.066 58.8607 219.595 58.3672 219.595 57.7328V27.7738C219.56 27.1746 219.066 26.6812 218.467 26.6812Z" fill="#205081"/>
<path d="M235.491 26.0469C232.178 26.0469 228.125 26.5756 225.199 27.3862C224.67 27.5272 224.318 28.0911 224.389 28.6198L225.164 33.378C225.199 33.66 225.375 33.942 225.622 34.1182C225.869 34.2944 226.186 34.3649 226.468 34.2944C229.182 33.7657 232.002 33.4838 234.398 33.4838C239.121 33.4838 239.897 34.4706 239.897 37.678V40.4624H232.883C226.151 40.4624 223.296 43.2469 223.296 49.7321C223.296 55.9354 226.433 59.4952 231.931 59.4952C235.103 59.4952 238.275 58.6141 240.954 56.9928L241.236 58.0149C241.377 58.5084 241.8 58.8256 242.293 58.8256H247.58C248.18 58.8256 248.708 58.3321 248.708 57.6977V37.7485C248.673 29.219 245.078 26.0469 235.491 26.0469ZM239.861 47.0887V50.9657C238.769 51.5297 236.795 52.3756 234.434 52.3756C232.389 52.3756 231.755 51.7411 231.755 49.6969C231.755 47.7231 232.143 47.0887 234.539 47.0887H239.861Z" fill="#205081"/>
<path d="M272.922 26.0469C269.433 26.0469 264.71 27.2452 260.727 29.1133L260.234 27.492C260.093 27.0338 259.67 26.6813 259.176 26.6813H254.312C253.713 26.6813 253.184 27.1747 253.184 27.7739V57.7329C253.184 58.3321 253.678 58.8608 254.312 58.8608H260.868C261.467 58.8608 261.996 58.3674 261.996 57.7329V37.0083C264.357 35.81 267.671 34.5764 269.68 34.5764C271.16 34.5764 271.689 35.1403 271.689 36.5854V57.7682C271.689 58.3674 272.182 58.8961 272.816 58.8961H279.372C279.971 58.8961 280.5 58.4026 280.5 57.7682V35.7395C280.43 29.3247 277.927 26.0469 272.922 26.0469Z" fill="#205081"/>
<path d="M64.7247 0.59918C64.4427 0.211475 63.9845 0 63.4911 0C63.2444 0 62.9976 0.0704918 62.7862 0.17623C53.8337 5.07541 43.4362 7.68361 32.7567 7.68361C22.0772 7.68361 11.6796 5.07541 2.72717 0.17623C2.51569 0.0704918 2.26897 0 2.02225 0C1.52881 0 1.07061 0.246721 0.788646 0.59918C0.365696 1.16311 0.365696 2.11475 1.07061 2.67869C5.54684 6.02705 10.5165 8.63525 15.7681 10.4328C21.2313 12.3008 26.9411 13.2172 32.7214 13.2172C38.537 13.2172 44.2468 12.2656 49.6747 10.4328C54.9263 8.63525 59.896 6.02705 64.3722 2.67869C65.1476 2.11475 65.1476 1.16311 64.7247 0.59918Z" fill="#59AFE1"/>
<path d="M54.4329 14.5919C54.2214 14.4157 53.9747 14.3452 53.6927 14.3452C53.5517 14.3452 53.4107 14.3805 53.2698 14.4157C50.6616 15.4026 48.0534 16.178 45.6214 16.7067C45.128 16.8124 44.7403 17.2001 44.564 17.6231C42.8017 22.4165 38.3255 26.9985 33.6378 31.7919C33.4616 31.9682 33.1796 32.2149 32.7567 32.2149C32.3337 32.2149 32.0517 32.0034 31.8755 31.7919C27.1878 26.9985 22.7116 22.4518 20.9493 17.6583C20.7731 17.2354 20.3854 16.8477 19.8919 16.7419C17.4952 16.178 14.8518 15.4026 12.2436 14.4157C12.1026 14.3452 11.9616 14.3452 11.8206 14.3452C11.5739 14.3452 11.2919 14.4157 11.0804 14.5919C10.7632 14.8387 10.587 15.2616 10.6222 15.6493C11.01 19.6321 12.596 23.5444 15.4509 27.6329C18.1296 31.4747 21.619 35.0346 25.0026 38.4887C31.2058 44.8329 37.0919 50.8247 37.6206 57.7682C37.6558 58.4026 38.1845 58.896 38.819 58.896H46.1148C46.4321 58.896 46.7493 58.7551 46.996 58.5083C47.2075 58.2616 47.3485 57.9444 47.3132 57.6272C47.0665 52.9747 45.3394 48.3223 41.9558 43.3878C41.2509 42.3657 40.5108 41.3436 39.7001 40.3567C39.3829 39.969 39.5239 39.4755 39.7706 39.1936C40.0173 38.9469 40.264 38.7001 40.5108 38.4534C43.8944 34.9993 47.3837 31.4395 50.0624 27.5977C52.9173 23.5092 54.5034 19.6321 54.8911 15.6141C54.9263 15.2616 54.7501 14.8387 54.4329 14.5919Z" fill="#59AFE1"/>
<path d="M24.9321 43.8813C24.7558 43.705 24.5091 43.5288 24.0862 43.5288C23.5575 43.5288 23.205 43.9165 23.0993 44.0927C20.0329 48.7804 18.4468 53.1862 18.2354 57.6272C18.2354 57.9444 18.3411 58.2616 18.5526 58.5083C18.764 58.755 19.0813 58.896 19.4337 58.896H26.7296C27.364 58.896 27.8927 58.4026 27.928 57.7682C28.1042 55.6182 28.7386 53.5034 29.9722 51.2477C30.3952 50.4723 30.078 49.7321 29.8312 49.4149C28.5624 47.8288 27.1173 46.1723 24.9321 43.8813Z" fill="#59AFE1"/>
<path d="M32.7567 18.1515C35.0477 18.1515 36.387 18.0105 36.8452 18.0105C37.4091 18.0105 37.9378 18.4687 37.9378 19.1384C37.9378 19.3146 37.9026 19.4556 37.8321 19.5966C37.5149 20.4072 36.1403 23.3326 33.5673 25.8351C33.2854 26.1171 32.9329 26.1523 32.7214 26.1523C32.51 26.1523 32.1575 26.1171 31.8755 25.8351C29.3378 23.2974 27.9632 20.4072 27.646 19.5966C27.6108 19.4908 27.5403 19.3498 27.5403 19.1384C27.5403 18.5039 28.069 18.0105 28.6329 18.0105C29.1264 18.0105 30.4657 18.1515 32.7567 18.1515Z" fill="#59AFE1"/>
</svg>
