<svg width="280" height="104" viewBox="0 0 280 104" fill="none" xmlns="http://www.w3.org/2000/svg">
<path d="M142.559 35.8654C143.558 34.752 144.129 33.3818 144.129 31.983C144.129 29.0426 142.73 26.7303 138.191 26.7303H120.606V46.7132H138.876C143.415 46.7132 145.385 44.2582 145.385 40.8896C145.385 38.5773 144.272 36.9216 142.559 35.8654ZM125.745 30.4414H136.336C137.734 30.4414 138.991 30.4414 138.991 32.4968C138.991 34.5807 137.734 34.5807 136.364 34.5807H136.336H125.745V30.4414ZM137.62 42.7452H125.745V38.5202H137.62C138.991 38.5202 140.247 38.5202 140.247 40.6327C140.247 42.7452 138.991 42.7452 137.62 42.7452ZM160.089 46.9987C168.853 46.9987 172.65 43.3161 172.65 36.6932C172.65 30.0988 168.853 26.4448 160.089 26.4448C151.297 26.4448 147.528 30.0703 147.528 36.6932C147.528 43.3447 151.297 46.9987 160.089 46.9987ZM160.089 42.6881C154.751 42.6881 152.667 40.804 152.667 36.6932C152.667 32.611 154.722 30.7554 160.089 30.7554C165.456 30.7554 167.511 32.6395 167.511 36.6932C167.511 40.7754 165.427 42.6881 160.089 42.6881ZM180.802 42.4026V26.7303H175.663V46.7132H196.217V42.4026H180.802ZM216.626 26.7303H192.075V31.0409H201.781V46.7132H206.92V31.0409H216.626V26.7303ZM120.321 81.3564C120.321 87.1229 125.202 88.5217 133.395 88.5217C140.789 88.5217 145.842 87.4369 145.842 82.0986C145.842 77.0458 140.96 76.6176 133.081 76.1894C127.258 75.8468 126.059 75.5613 126.059 74.0198C126.059 72.5353 127.258 72.05 132.311 72.05C137.649 72.05 139.847 72.5924 139.847 74.7906H144.985C144.985 69.8519 140.418 67.9678 132.881 67.9678C125.402 67.9678 120.92 69.3666 120.92 73.7629C120.92 78.2448 124.374 79.615 133.081 80.0147C139.561 80.3287 140.703 80.6142 140.703 82.2699C140.703 83.84 139.076 84.4395 133.681 84.4395C127.172 84.4395 125.459 83.4689 125.459 81.3564H120.321ZM160.814 88.5217C169.578 88.5217 173.375 84.8391 173.375 78.2162C173.375 71.6218 169.578 67.9678 160.814 67.9678C152.021 67.9678 148.253 71.5933 148.253 78.2162C148.253 84.8677 152.021 88.5217 160.814 88.5217ZM160.814 84.2111C155.476 84.2111 153.392 82.327 153.392 78.2162C153.392 74.134 155.447 72.2784 160.814 72.2784C166.181 72.2784 168.236 74.1625 168.236 78.2162C168.236 82.2984 166.152 84.2111 160.814 84.2111ZM201.649 78.2162V68.2533H196.51V78.2162C196.51 80.9853 195.739 84.2111 189.088 84.2111C182.437 84.2111 181.666 81.0138 181.666 78.2162V68.2533H176.527V78.2162C176.527 85.1817 180.296 88.5217 189.088 88.5217C197.852 88.5217 201.649 85.1531 201.649 78.2162ZM228.285 75.5899C228.285 71.1365 225.174 68.2533 220.635 68.2533H204.934V88.2362H210.072V82.8979H218.351L221.577 88.2362H227.629L223.946 82.2984C226.629 81.2422 228.285 78.8442 228.285 75.5899ZM210.072 72.5639H219.207C220.749 72.5639 223.147 72.5639 223.147 75.5899C223.147 78.5873 220.749 78.5873 219.207 78.5873H210.072V72.5639ZM230.825 78.2162C230.825 84.8677 234.593 88.5217 243.385 88.5217C251.35 88.5217 255.347 85.4672 255.86 79.6721H250.636C250.151 82.9265 247.639 84.2111 243.385 84.2111C238.19 84.2111 235.963 82.327 235.963 78.2162C235.963 74.134 238.161 72.2784 243.385 72.2784C247.667 72.2784 250.151 73.5345 250.636 76.7603H255.86C255.347 70.9938 251.35 67.9678 243.385 67.9678C234.593 67.9678 230.825 71.5933 230.825 78.2162ZM280 72.3355V68.2533H258.875V88.2362H280V84.154H264.014V80.1003H280V76.3892H264.014V72.3355H280Z" fill="#38393E"/>
<path d="M63.7663 18.7833L59.5878 31.1201C70.5208 36.2328 78.0767 47.1248 78.0767 59.7951C78.0767 77.3556 63.5374 91.5264 45.5637 91.5264C27.5902 91.5264 13.0509 77.3001 13.0509 59.7951C13.0509 48.0695 19.5764 37.7886 29.3074 32.2871L29.8797 17.6719C12.4213 23.8959 0 40.2338 0 59.406C0 83.9129 20.3205 103.808 45.3922 103.808C70.4637 103.808 90.7843 83.9129 90.7843 59.406C90.8414 41.2343 79.7366 25.6186 63.7663 18.7833Z" fill="#38393E"/>
<path d="M54.2649 29.1196L42.0154 65.6299C42.0154 65.6299 42.7594 45.1241 43.4463 33.3985C40.3552 35.0101 37.7795 36.4548 34.8602 38.0109L35.1464 29.6752L35.6616 16.0046L36.0049 7.83557C40.7559 5.22372 45.5069 2.723 50.6015 0C49.6283 4.40868 47.1442 15.171 44.9918 22.951C47.854 21.8396 49.8001 20.8393 52.4903 19.7279C52.6621 19.6723 52.7766 19.6167 52.9484 19.5611C52.9484 19.5611 57.0698 17.9496 58.1572 17.505L54.2649 29.1196Z" fill="#46C7F8"/>
</svg>
