<svg width="281" height="135" viewBox="0 0 281 135" fill="none" xmlns="http://www.w3.org/2000/svg">
<path d="M114.233 60.779V84.1123H117.167H120.101V73.0744V62.0365L127.311 61.9806L134.492 61.8967L134.576 59.0464L134.66 56.1682L127.45 56.1123L120.241 56.0285V49.741V43.4536L129.546 43.3698L138.824 43.3139V40.3798V37.4456H126.528H114.233V60.779Z" fill="black"/>
<path d="M171.546 52.4236C162.967 54.7151 158.887 65.25 163.191 73.9965C166.768 81.234 176.101 83.5534 182.388 78.7749L183.897 77.6292L183.758 80.8428C183.59 84.4755 182.975 86.264 181.215 88.22C178.588 91.1262 173.865 92.0204 170.428 90.26C169.786 89.9526 169.143 89.757 169.003 89.8408C168.891 89.9246 168.193 91.0145 167.466 92.2719L166.153 94.5354L166.796 95.0384C169.311 96.9386 175.151 97.6093 178.979 96.4356C182.305 95.4296 186.273 92.1322 187.921 88.9745C189.626 85.761 189.682 85.3139 189.682 68.24V52.8149H186.748H183.814V54.0723C183.814 54.7709 183.73 55.3298 183.646 55.3298C183.562 55.3298 183.003 54.9665 182.444 54.5194C179.51 52.2001 175.347 51.3897 171.546 52.4236ZM178.923 58.5155C181.802 59.8847 183.45 62.3158 183.73 65.5853C184.065 69.6931 182.556 72.9067 179.538 74.4436C177.638 75.4216 175.207 75.7011 173.335 75.1701C171.742 74.723 169.73 73.2979 168.863 72.0404C167.354 69.8049 166.963 66.2839 167.913 63.1821C168.388 61.5614 170.456 59.3258 172.217 58.5155C174.173 57.5933 176.995 57.5933 178.923 58.5155Z" fill="black"/>
<path d="M209.131 52.3957C207.929 52.8708 206.532 53.8488 205.47 54.9945L204.772 55.749V54.268V52.8149H201.838H198.903V68.4636V84.1123H201.838H204.772V73.9686C204.772 68.4077 204.911 63.3498 205.051 62.763C205.442 61.0025 206.7 59.4656 208.404 58.5993C209.718 57.9287 210.193 57.8169 211.506 57.9287C214.189 58.1522 215.977 59.3818 217.039 61.757C217.598 62.9586 217.626 63.5454 217.626 73.5494V84.1123H220.728H223.802L223.746 72.8508C223.69 61.9247 223.718 61.5614 224.277 60.4716C225.394 58.264 227.49 57.0065 230.061 57.0065C232.632 57.0065 234.728 58.264 235.846 60.4716C236.404 61.5614 236.432 61.9247 236.376 72.8508L236.321 84.1123H239.394H242.496V73.4097C242.496 61.6173 242.357 60.5275 240.764 57.5095C239.702 55.5255 237.941 53.8488 235.846 52.8708C234.448 52.2001 233.889 52.1163 231.458 52.1163C228.776 52.1163 228.552 52.1722 226.512 53.1782C225.031 53.9047 223.969 54.6592 223.075 55.6652L221.79 57.0903L221.343 56.4197C220.448 55.1343 218.772 53.7091 217.179 52.9267C215.782 52.256 215.167 52.1163 212.875 52.0604C211.031 52.0045 209.885 52.1163 209.131 52.3957Z" fill="black"/>
<path d="M260.101 52.3957C254.289 54.0444 250.153 58.8508 249.007 65.3338C248.616 67.5693 248.588 68.3238 248.868 70.6153C249.957 79.1662 256.077 84.9785 264.013 84.9506C267.534 84.9226 270.217 84.0005 272.955 81.8488L274.353 80.759V82.4356V84.1123H277.426H280.5V68.4636V52.8149H277.426H274.353V54.4915V56.1402L272.564 54.7989C269.965 52.8149 268.121 52.2001 264.572 52.0883C262.532 52.0045 261.191 52.1163 260.101 52.3957ZM268.708 58.7949C270.804 59.8568 272.424 61.4496 273.403 63.3498C274.157 64.8867 274.213 65.1662 274.213 68.4636C274.213 71.7051 274.157 72.0683 273.43 73.5214C272.564 75.3099 270.552 77.3218 268.736 78.2719C267.786 78.747 266.892 78.9426 264.935 79.0264C262.532 79.1382 262.253 79.0823 260.548 78.2999C256.329 76.3159 254.177 72.2919 254.624 67.2899C255.015 62.8747 257.614 59.5214 261.582 58.236C263.51 57.5933 266.919 57.8727 268.708 58.7949Z" fill="black"/>
<path d="M148.157 39.5695C146.732 40.2681 146.033 41.1903 145.893 42.5595C145.418 46.807 151.175 48.6793 153.103 44.9348C153.774 43.5934 153.774 42.2801 153.075 41.1344C151.957 39.318 149.945 38.6753 148.157 39.5695Z" fill="black"/>
<path d="M146.648 68.4637V84.1404L149.666 84.0565L152.656 83.9727V68.4637V52.9548L149.666 52.8709L146.648 52.7871V68.4637Z" fill="black"/>
<path d="M22.9251 134.663C35.3038 134.663 45.3503 124.608 45.3503 112.219V89.7754H22.9251C10.5465 89.7754 0.5 99.8303 0.5 112.219C0.5 124.608 10.5465 134.663 22.9251 134.663Z" fill="#0ACF84"/>
<path d="M0.5 67.3318C0.5 54.9428 10.5465 44.8879 22.9251 44.8879H45.3503V89.7757H22.9251C10.5465 89.7757 0.5 79.7208 0.5 67.3318Z" fill="#A259FF"/>
<path d="M0.5 22.4439C0.5 10.0549 10.5465 0 22.9251 0H45.3503V44.8877H22.9251C10.5465 44.8877 0.5 34.8329 0.5 22.4439Z" fill="#F14E1E"/>
<path d="M45.3503 0H67.7755C80.1542 0 90.2006 10.0549 90.2006 22.4439C90.2006 34.8329 80.1542 44.8877 67.7755 44.8877H45.3503V0Z" fill="#FE7362"/>
<path d="M90.2006 67.3318C90.2006 79.7208 80.1542 89.7757 67.7755 89.7757C55.3968 89.7757 45.3503 79.7208 45.3503 67.3318C45.3503 54.9428 55.3968 44.8879 67.7755 44.8879C80.1542 44.8879 90.2006 54.9428 90.2006 67.3318Z" fill="#1BBBFE"/>
</svg>
