<svg width="280" height="52" viewBox="0 0 280 52" fill="none" xmlns="http://www.w3.org/2000/svg">
<g clip-path="url(#clip0)">
<path d="M120.994 20.2343H126.148V23.7134H120.994V32.3467C120.994 33.2487 121.123 35.697 124.086 35.697C124.859 35.697 125.504 35.5681 126.148 35.3104V38.9184C125.246 39.1761 124.344 39.305 123.184 39.305C116.999 39.305 116.999 33.893 116.999 32.6045V23.8423H113.907V20.3632H116.999V15.4666L120.994 13.1472V20.2343ZM162.228 20.1054H165.32V38.7895H162.228L161.712 36.7278C160.552 38.0164 159.264 39.0472 156.043 39.0472C152.692 39.0472 149.471 37.3721 149.471 31.8313V26.9348C149.471 21.5229 152.821 19.7189 156.043 19.7189C159.393 19.7189 160.552 20.7497 161.712 22.0383L162.228 20.1054ZM161.326 27.1925C161.326 26.1617 160.424 23.3268 156.945 23.3268C153.465 23.3268 153.337 26.2905 153.337 26.9348C153.337 27.1925 153.337 31.8313 153.337 32.089C153.337 32.6045 153.337 35.697 156.945 35.697C160.552 35.697 161.326 32.8622 161.326 31.8313V27.1925ZM141.74 31.7025C141.74 32.7333 140.838 35.5681 137.358 35.5681C133.751 35.5681 133.75 32.6045 133.75 31.9602C133.75 31.3159 133.75 20.6209 133.75 20.1054H129.756C129.756 21.1363 129.756 26.5482 129.756 31.8313C129.756 37.2433 133.106 39.0472 136.328 39.0472C139.678 39.0472 140.838 38.0164 141.997 36.7278L142.513 38.7895H145.605V20.2343H141.611C141.74 21.5229 141.74 31.7025 141.74 31.7025ZM106.691 31.7025C106.691 32.7333 105.789 35.5681 102.31 35.5681C98.7017 35.5681 98.7017 32.6045 98.7017 31.9602C98.7017 31.3159 98.7017 20.6209 98.7017 20.1054H94.7072C94.7072 21.1363 94.7072 26.5482 94.7072 31.8313C94.7072 37.2433 98.0575 39.0472 101.279 39.0472C104.629 39.0472 105.789 38.0164 106.949 36.7278L107.464 38.7895H110.556V20.2343H106.562C106.691 21.5229 106.691 31.7025 106.691 31.7025ZM0.127106 25.904L13.0127 38.7895V13.0184L0.127106 0.132812V25.904ZM38.7838 38.7895H13.0127L25.8983 51.6751H51.6694V25.904L38.7838 13.0184V38.7895ZM84.141 19.8477C81.1774 19.8477 79.3734 21.7806 78.6003 22.6826C77.8271 21.1363 76.2808 19.8477 73.1883 19.8477C70.74 19.8477 69.0649 21.1363 68.1629 22.1671L67.6475 20.1054H64.555V26.5482V38.7895H68.5495V27.3214C68.5495 26.2905 69.4515 23.4557 72.2863 23.4557C75.25 23.4557 75.3789 25.904 75.3789 26.806V38.7895H79.3734V27.3214C79.3734 26.2905 80.2754 23.4557 83.1102 23.4557C86.0739 23.4557 86.2027 25.904 86.2027 26.806V38.7895H90.3261V26.6771C90.3261 25.3885 90.3261 19.8477 84.141 19.8477ZM13.0127 13.0184L25.8983 25.904L38.7838 13.0184L25.8983 0.132812L13.0127 13.0184ZM255.519 38.7895H259.514V13.0184H255.519V38.7895ZM247.272 17.0129H251.267V13.0184H247.272V17.0129ZM267.889 30.5428V32.2179C267.889 32.7333 268.147 35.697 271.884 35.697C274.848 35.697 275.621 33.893 275.878 32.8622H279.873C279.486 37.6298 275.492 39.1761 271.884 39.1761C268.018 39.1761 263.895 37.501 263.895 31.9602V27.0637C263.895 21.6517 268.018 19.8477 271.884 19.8477C275.75 19.8477 279.873 21.5229 279.873 27.0637V30.5428H275.878H267.889ZM267.889 27.3214H275.878V26.806C275.878 26.2905 275.621 23.3268 271.884 23.3268C268.147 23.3268 267.889 26.1617 267.889 26.806V27.3214ZM247.272 38.7895H251.267V20.2343H247.272V38.7895ZM197.534 19.8477C194.57 19.8477 192.766 21.7806 191.993 22.6826C191.22 21.1363 189.674 19.8477 186.581 19.8477C184.133 19.8477 182.458 21.1363 181.556 22.1671L181.041 20.1054H177.948V26.5482V38.7895H181.943V27.3214C181.943 26.2905 182.845 23.4557 185.679 23.4557C188.643 23.4557 188.772 25.904 188.772 26.806V38.7895H192.766V27.3214C192.766 26.2905 193.668 23.4557 196.503 23.4557C199.467 23.4557 199.596 25.904 199.596 26.806V38.7895H203.59V26.6771C203.719 25.3885 203.719 19.8477 197.534 19.8477ZM242.891 27.0637V31.9602C242.891 37.3721 239.541 39.1761 236.32 39.1761C232.969 39.1761 231.81 38.1453 230.65 36.8567L230.135 38.9184H226.913V13.1472H230.908V22.0383C231.939 20.8786 233.356 20.1054 236.32 20.1054C239.67 19.8477 242.891 21.6517 242.891 27.0637ZM238.897 26.9348C238.897 26.4194 238.897 23.3268 235.289 23.3268C231.681 23.3268 230.908 26.1617 230.908 27.1925V31.7025C230.908 32.7333 231.81 35.5681 235.289 35.5681C238.768 35.5681 238.897 32.6045 238.897 31.9602C238.897 31.8313 238.897 27.1925 238.897 26.9348ZM169.701 38.7895H173.696V13.0184H169.701V38.7895ZM223.305 27.0637V31.9602C223.305 37.3721 219.182 39.1761 215.316 39.1761C211.451 39.1761 207.327 37.501 207.327 31.9602V27.0637C207.327 21.6517 211.451 19.8477 215.316 19.8477C219.182 19.8477 223.305 21.6517 223.305 27.0637ZM219.311 26.9348C219.311 26.4194 219.053 23.3268 215.316 23.3268C211.579 23.3268 211.322 26.2905 211.322 26.9348V32.089C211.322 32.6045 211.579 35.697 215.316 35.697C219.053 35.697 219.311 32.7333 219.311 32.089V26.9348Z" fill="#01A5D4"/>
</g>
<defs>
<clipPath id="clip0">
<rect y="0.132812" width="280" height="51.5423" fill="white"/>
</clipPath>
</defs>
</svg>
