<svg width="281" height="71" viewBox="0 0 281 71" fill="none" xmlns="http://www.w3.org/2000/svg">
<path d="M90.0729 55.7857L93.5701 47.6632C97.3493 50.4835 102.369 51.95 107.333 51.95C111 51.95 113.312 50.5399 113.312 48.3964C113.256 42.4174 91.3702 47.0991 91.201 32.0951C91.1446 24.4803 97.9133 18.614 107.502 18.614C113.199 18.614 118.896 20.0242 122.958 23.2393L119.686 31.531C115.963 29.162 111.338 27.4698 106.938 27.4698C103.949 27.4698 101.975 28.8799 101.975 30.6849C102.031 36.5512 124.086 33.336 124.311 47.6632C124.311 55.4472 117.712 60.9186 108.236 60.9186C101.298 60.9186 94.9238 59.2828 90.0729 55.7857Z" fill="black"/>
<path d="M224.263 44.73C222.515 47.776 219.243 49.863 215.464 49.863C209.88 49.863 205.367 45.3505 205.367 39.7663C205.367 34.1821 209.88 29.6696 215.464 29.6696C219.243 29.6696 222.515 31.7566 224.263 34.8026L233.909 29.444C230.299 23.0137 223.361 18.614 215.464 18.614C203.788 18.614 194.312 28.0902 194.312 39.7663C194.312 51.4424 203.788 60.9186 215.464 60.9186C223.417 60.9186 230.299 56.5753 233.909 50.0886L224.263 44.73Z" fill="black"/>
<path d="M141.233 1.07153H129.162V60.1287H141.233V1.07153Z" fill="black"/>
<path d="M238.647 1.07153V60.1287H250.718V42.4172L265.045 60.1287H280.5L262.281 39.0893L279.146 19.4599H264.368L250.718 35.7613V1.07153H238.647Z" fill="black"/>
<path d="M177.108 44.8429C175.359 47.7196 171.749 49.863 167.688 49.863C162.104 49.863 157.591 45.3505 157.591 39.7663C157.591 34.1821 162.104 29.6696 167.688 29.6696C171.749 29.6696 175.359 31.9259 177.108 34.859V44.8429ZM177.108 19.4601V24.2546C175.133 20.9267 170.226 18.614 165.093 18.614C154.489 18.614 146.141 27.9774 146.141 39.7099C146.141 51.4424 154.489 60.9186 165.093 60.9186C170.226 60.9186 175.133 58.606 177.108 55.278V60.0725H189.179V19.4601H177.108Z" fill="black"/>
<path d="M15.4476 44.7864C15.4476 48.9041 12.1197 52.232 8.00201 52.232C3.88436 52.232 0.556396 48.9041 0.556396 44.7864C0.556396 40.6688 3.88436 37.3408 8.00201 37.3408H15.4476V44.7864Z" fill="#E01E5A"/>
<path d="M19.1704 44.7864C19.1704 40.6688 22.4984 37.3408 26.616 37.3408C30.7337 37.3408 34.0616 40.6688 34.0616 44.7864V63.4004C34.0616 67.5181 30.7337 70.8461 26.616 70.8461C22.4984 70.8461 19.1704 67.5181 19.1704 63.4004V44.7864Z" fill="#E01E5A"/>
<path d="M26.616 14.8912C22.4984 14.8912 19.1704 11.5633 19.1704 7.44561C19.1704 3.32796 22.4984 0 26.616 0C30.7337 0 34.0616 3.32796 34.0616 7.44561V14.8912H26.616Z" fill="#36C5F0"/>
<path d="M26.616 18.6704C30.7337 18.6704 34.0616 21.9984 34.0616 26.116C34.0616 30.2337 30.7337 33.5616 26.616 33.5616H7.94561C3.82796 33.5616 0.5 30.2337 0.5 26.116C0.5 21.9984 3.82796 18.6704 7.94561 18.6704H26.616Z" fill="#36C5F0"/>
<path d="M56.4548 26.116C56.4548 21.9984 59.7828 18.6704 63.9004 18.6704C68.0181 18.6704 71.3461 21.9984 71.3461 26.116C71.3461 30.2337 68.0181 33.5616 63.9004 33.5616H56.4548V26.116Z" fill="#2EB67D"/>
<path d="M52.732 26.116C52.732 30.2337 49.4041 33.5616 45.2864 33.5616C41.1688 33.5616 37.8408 30.2337 37.8408 26.116V7.44561C37.8408 3.32796 41.1688 0 45.2864 0C49.4041 0 52.732 3.32796 52.732 7.44561V26.116Z" fill="#2EB67D"/>
<path d="M45.2864 55.9548C49.4041 55.9548 52.732 59.2828 52.732 63.4004C52.732 67.5181 49.4041 70.846 45.2864 70.846C41.1688 70.846 37.8408 67.5181 37.8408 63.4004V55.9548H45.2864Z" fill="#ECB22E"/>
<path d="M45.2864 52.232C41.1688 52.232 37.8408 48.9041 37.8408 44.7864C37.8408 40.6688 41.1688 37.3408 45.2864 37.3408H63.9569C68.0745 37.3408 71.4025 40.6688 71.4025 44.7864C71.4025 48.9041 68.0745 52.232 63.9569 52.232H45.2864Z" fill="#ECB22E"/>
</svg>
