<svg width="267" height="96" viewBox="0 0 267 96" fill="none" xmlns="http://www.w3.org/2000/svg">
<g clip-path="url(#clip0)">
<path d="M266.5 85.3487C266.338 85.9422 266.23 86.5896 266.014 87.183C264.612 91.499 261.752 94.3044 257.329 95.4913C256.519 95.7071 255.656 95.869 254.793 95.869C227.494 95.869 200.25 95.869 172.951 95.869C170.199 95.869 167.718 94.79 165.614 93.0096C163.833 91.553 162.7 89.6647 161.945 87.5607C161.514 86.3198 161.352 85.025 161.298 83.6763C161.298 74.7746 161.298 65.8728 161.298 56.9171C161.298 56.3237 161.136 56.2158 160.596 56.2158C154.662 56.2158 148.781 56.2158 142.847 56.2158C142.631 56.2158 142.361 56.2158 142.199 56.2158C142.793 55.5684 143.386 54.921 143.926 54.2736C144.034 54.1657 144.142 54.1117 144.25 54.0578C145.598 52.763 146.947 51.4143 148.35 50.1195C149.698 48.7707 151.101 47.422 152.504 46.1272C154.5 44.2929 156.442 42.3507 158.438 40.4624C159.302 39.6532 160.111 38.8439 160.974 38.0347C161.298 37.7649 161.406 37.4412 161.406 37.0096C161.406 28.7013 161.352 20.447 161.406 12.1387C161.406 9.27938 162.269 6.68979 164.103 4.42389C165.937 2.158 168.311 0.863198 171.063 0.16185C171.548 0.0539499 172.088 0 172.573 0C199.98 0 227.44 0 254.847 0C257.275 0 259.433 0.809248 261.429 2.158C263.101 3.29094 264.396 4.80154 265.259 6.63584C265.799 7.82274 266.284 9.06358 266.392 10.3584C266.392 10.4123 266.446 10.4663 266.5 10.4663C266.5 35.4451 266.5 60.3699 266.5 85.3487ZM213.953 6.47399C201.544 6.47399 189.19 6.47399 176.781 6.47399C175.163 6.47399 173.652 6.79769 172.303 7.66089C169.876 9.22543 168.473 11.4374 168.473 14.2428C168.419 36.5241 168.473 58.7514 168.419 81.0327C168.419 83.7302 169.444 85.9422 171.548 87.6146C172.951 88.7476 174.569 89.341 176.404 89.341C201.113 89.341 225.876 89.341 250.585 89.341C252.689 89.341 254.577 88.8555 256.25 87.5067C258.084 85.9961 259.271 84.1079 259.271 81.7341C259.325 59.1291 259.271 36.5241 259.271 13.9191C259.271 13.7033 259.271 13.4875 259.217 13.2717C258.839 11.3834 258.03 9.76493 256.573 8.47013C255.171 7.22929 253.552 6.47399 251.718 6.47399C239.201 6.47399 226.577 6.47399 213.953 6.47399Z" fill="#009EE2"/>
<path d="M63.4865 65.4414C63.4865 69.8114 63.4865 74.1813 63.4865 78.6052C63.4865 79.4144 63.1628 79.846 62.4615 80.1158C60.8969 80.7092 59.2245 81.0869 57.606 81.5185C55.9875 81.8961 54.369 82.1119 52.7505 82.3817C51.8333 82.5435 50.9162 82.5975 49.999 82.6514C48.1108 82.8133 46.2765 82.8672 44.3882 82.7593C40.9354 82.5975 37.5366 82.1119 34.4075 80.4395C30.7929 78.4973 28.4191 75.584 27.6638 71.4299C27.1243 68.3547 27.3401 65.3875 28.7428 62.5281C29.9297 60.1543 31.8179 58.374 34.1378 57.1331C36.4037 55.8923 38.7775 55.1909 41.3131 54.9212C42.3921 54.8133 43.4711 54.8133 44.5501 54.6514C46.0607 54.4356 47.5713 54.6514 49.0819 54.7054C50.7543 54.7593 52.3728 54.9751 53.9913 55.2988C54.6927 55.4607 55.394 55.5146 56.0954 55.6765C56.4191 55.7304 56.3651 55.5686 56.3651 55.4067C56.4191 53.0329 56.4191 50.6591 55.6098 48.3932C54.8006 46.2353 53.29 44.7247 51.1859 43.7536C48.6503 42.5667 46.0067 42.4588 43.3632 42.6746C40.0723 42.9443 37.0511 44.0773 34.1917 45.6958C33.0048 46.3971 32.789 46.8287 31.8719 45.2102C31.2784 44.1312 30.631 43.1062 30.0915 42.0272C29.606 41.11 29.7139 40.8942 30.5771 40.3008C33.5443 38.4125 36.8353 37.3335 40.288 36.6861C42.7158 36.2006 45.1975 36.2006 47.6252 36.3624C50.4846 36.5243 53.29 37.1177 55.8256 38.5744C59.6021 40.6784 62.0838 43.8075 62.8931 48.1775C63.2707 50.2275 63.4326 52.2776 63.4326 54.3277C63.4326 57.9963 63.4865 61.7189 63.4865 65.4414ZM56.473 68.6245C56.473 66.6283 56.473 64.6322 56.473 62.69C56.473 62.4202 56.527 62.1505 56.1493 62.0965C53.6676 61.611 51.1859 61.1794 48.6503 61.0715C46.0067 60.9636 43.3092 60.8557 40.6657 61.557C39.1012 61.9886 37.5906 62.5281 36.4037 63.6611C34.5694 65.3335 34.0299 67.4915 34.4075 69.9193C34.7852 72.1852 36.08 73.8037 38.0761 74.8827C40.342 76.0695 42.7697 76.3393 45.2514 76.4472C47.2476 76.5551 49.2437 76.3393 51.2399 76.0695C52.8044 75.9077 54.369 75.584 55.8796 75.1524C56.3112 75.0445 56.4191 74.8826 56.4191 74.451C56.473 72.5089 56.473 70.5667 56.473 68.6245Z" fill="#009EE2"/>
<path d="M119.001 56.1618C120.026 54.867 121.159 53.9499 122.076 52.8709C122.184 52.709 122.292 52.5472 122.454 52.4393C123.91 50.9287 125.421 49.4181 126.878 47.8535C128.604 46.0192 130.33 44.2389 132.057 42.4046C133.675 40.7322 135.24 38.9518 136.912 37.3333C137.29 36.9557 137.668 36.7938 138.153 36.7938C140.257 36.7938 142.361 36.7938 144.411 36.7938C144.735 36.7938 145.059 36.7399 145.221 37.1175C145.382 37.4412 145.274 37.8189 145.005 38.0347C144.573 38.5202 144.142 39.0058 143.71 39.4374C141.714 41.5414 139.61 43.5915 137.56 45.7495C135.24 48.2312 132.866 50.6589 130.492 53.0867C129.683 53.9499 128.874 54.8131 128.011 55.6223C127.633 55.946 127.741 56.2158 127.957 56.4855C128.982 57.7264 129.953 59.0212 130.978 60.262C132.92 62.7437 134.808 65.2794 136.804 67.7611C138.908 70.4585 141.066 73.156 143.17 75.8535C144.519 77.526 145.814 79.2524 147.109 80.9788C147.594 81.6262 147.271 82.2736 146.461 82.2736C144.411 82.2736 142.415 82.3275 140.365 82.2736C139.826 82.2736 139.34 82.0038 138.962 81.5183C137.668 79.7919 136.319 78.1194 135.024 76.447C133.891 74.9903 132.758 73.5876 131.625 72.131C130.276 70.4046 128.928 68.6782 127.633 66.9518C126.122 64.9557 124.558 63.0135 122.993 61.0173C121.698 62.3121 120.404 63.6609 119.055 64.9557C118.839 65.1715 118.893 65.4412 118.893 65.711C118.893 70.7822 118.893 75.9075 118.893 80.9788C118.893 81.9499 118.569 82.2736 117.598 82.2736C116.088 82.2736 114.577 82.2736 113.066 82.2736C112.095 82.2736 111.772 81.9499 111.772 80.9788C111.772 61.1252 111.772 41.3256 111.772 21.472C111.772 20.393 112.095 20.1233 113.174 20.1233C114.685 20.1233 116.142 20.1233 117.652 20.1233C118.569 20.1233 118.947 20.447 118.947 21.3641C118.947 32.6936 118.947 43.9691 118.947 55.2986C119.001 55.5144 119.001 55.7302 119.001 56.1618Z" fill="#009EE2"/>
<path d="M13.8526 53.8958C13.8526 62.8515 13.8526 71.8072 13.8526 80.7629C13.8526 81.6261 13.5289 82.0037 12.6117 82.0037C10.8854 82.0037 9.10501 82.0037 7.37861 82.0037C6.46146 82.0037 6.19171 81.734 6.19171 80.8168C6.19171 62.8515 6.19171 44.9402 6.19171 26.9748C6.19171 26.3274 6.02986 26.1656 5.38246 26.1656C-0.552024 26.1656 -6.54046 26.1656 -12.475 26.1656C-13.2842 26.1656 -13.5 25.9498 -13.5 25.1405C-13.5 23.522 -13.5 21.9035 -13.5 20.285C-13.5 19.5297 -13.2842 19.26 -12.5289 19.1521C-12.3671 19.1521 -12.2052 19.1521 -11.9894 19.1521C2.68497 19.1521 17.3593 19.1521 32.0337 19.1521C32.3574 19.1521 32.7351 19.1521 33.0588 19.3139C33.4364 19.4758 33.7062 19.7455 33.7062 20.1771C33.7062 21.8496 33.7062 23.522 33.7062 25.1405C33.7062 25.7879 33.2746 26.1656 32.5732 26.1656C26.6387 26.1656 20.6503 26.1656 14.7158 26.1656C14.0684 26.1656 13.8526 26.2735 13.8526 26.9748C13.9065 35.9305 13.8526 44.9402 13.8526 53.8958Z" fill="#009EE2"/>
<path d="M87.2245 36.2544C92.08 36.1465 96.396 37.2255 100.388 39.3835C100.928 39.6533 101.467 39.977 101.953 40.3546C102.33 40.6783 102.384 41.056 102.169 41.4876C101.467 42.8903 100.712 44.1851 99.9027 45.5338C99.5251 46.1273 99.0935 46.2891 98.554 45.9115C96.396 44.5088 94.0222 43.6456 91.5405 43.1061C88.5193 42.4587 85.4981 42.2968 82.5308 43.2679C80.5347 43.9153 79.0241 45.1562 78.4306 47.2602C77.8911 49.0945 78.1069 50.8749 79.4557 52.3315C80.5886 53.5184 82.0992 54.2198 83.6638 54.7053C86.1455 55.4606 88.6811 55.9462 91.2168 56.5396C94.3459 57.2949 97.3671 58.212 99.9567 60.2082C101.953 61.7727 103.14 63.8768 103.625 66.3585C103.895 67.6533 103.949 68.9481 103.841 70.2429C103.679 72.7785 102.87 75.1523 101.251 77.2024C98.9856 80.0618 95.9104 81.5184 92.4576 82.2737C90.1917 82.7593 87.8179 82.9211 85.4981 82.7592C82.6927 82.5974 79.9412 82.1119 77.3517 81.0868C75.3016 80.2776 73.3594 79.1986 71.579 77.7959C71.4711 77.7419 71.4172 77.634 71.3093 77.5801C70.2842 76.8787 70.1763 76.3932 70.7698 75.3681C71.4711 74.1812 72.1185 72.9943 72.8199 71.8074C73.1975 71.1061 73.6291 71.0521 74.1686 71.4837C75.6792 72.7246 77.2977 73.8575 79.078 74.6668C80.6965 75.4221 82.369 75.9076 84.1493 76.1234C85.1744 76.2313 86.1994 76.3932 87.2784 76.3932C89.6522 76.2853 91.9721 75.9616 93.9682 74.6128C95.5867 73.5338 96.5578 72.0232 96.7197 70.081C96.8276 68.8402 96.6657 67.7072 96.0183 66.6282C95.4788 65.765 94.7775 65.1176 93.8603 64.6321C91.9721 63.661 89.922 63.1754 87.8719 62.6899C85.3362 62.0964 82.8006 61.6109 80.3728 60.7477C78.1069 59.9924 76.0029 58.9134 74.2765 57.2409C72.7659 55.7843 71.7948 54.004 71.4711 51.8999C71.2553 50.713 71.1474 49.5801 71.2014 48.3932C71.3632 45.7496 72.2264 43.3758 73.9528 41.3257C75.5713 39.3296 77.6754 38.0348 80.0491 37.2255C81.3979 36.74 82.8545 36.5242 84.3112 36.3623C85.4981 36.2544 86.4692 36.3084 87.2245 36.2544Z" fill="#009EE2"/>
<path d="M185.197 45.6415C185.144 49.1482 185.144 52.655 185.197 56.2157C185.251 58.5355 185.683 60.8554 186.762 62.9594C188.273 65.9266 190.754 67.707 193.937 68.5702C195.34 68.9478 196.797 69.1636 198.307 69.0557C201.167 68.9478 203.864 68.3544 206.238 66.574C208.234 65.0634 209.475 63.0134 210.176 60.5856C210.554 59.2369 210.824 57.8342 210.824 56.4315C210.878 51.7918 210.932 47.1521 210.824 42.5124C210.608 35.8766 210.824 29.1868 210.716 22.5509C210.716 21.7417 210.932 21.5259 211.741 21.5259C213.251 21.5259 214.762 21.5259 216.273 21.5259C216.974 21.5259 217.244 21.7417 217.19 22.443C217.082 29.4565 217.352 36.47 217.352 43.4295C217.298 48.1232 217.406 52.8168 217.352 57.4565C217.298 59.8303 216.758 62.1502 215.841 64.3621C214.924 66.574 213.629 68.4623 211.903 70.0808C209.907 71.9151 207.533 73.2099 204.889 74.0191C201.868 74.9363 198.847 75.0442 195.772 74.8823C192.589 74.6665 189.567 73.7494 186.816 72.023C183.309 69.811 181.097 66.7359 179.802 62.9054C179.317 61.5028 179.047 59.9922 178.939 58.5355C178.723 55.892 178.885 53.3024 178.831 50.6588C178.777 48.2311 178.885 45.8033 178.831 43.3216C178.562 36.47 178.777 29.6184 178.723 22.7667C178.723 21.9575 178.939 21.6877 179.749 21.6877C181.259 21.6877 182.716 21.6877 184.226 21.6877C184.982 21.6877 185.197 21.8496 185.197 22.6049C184.982 30.2658 185.251 37.9266 185.197 45.6415Z" fill="#009EE2"/>
<path d="M236.504 74.7207C232.619 74.7746 229.275 74.0193 225.984 72.6166C224.527 71.9692 223.178 71.16 221.883 70.2968C221.236 69.8652 221.128 69.4336 221.506 68.7862C222.099 67.6532 222.747 66.5742 223.394 65.4952C223.718 64.9018 224.149 64.8478 224.743 65.2794C226.793 66.7361 228.951 67.869 231.379 68.5704C233.321 69.1099 235.317 69.4336 237.313 69.2717C239.147 69.1099 240.874 68.7862 242.492 67.7611C244.219 66.6821 245.082 65.1715 245.028 63.2293C244.92 61.1253 243.571 59.8305 241.683 59.0752C239.687 58.2659 237.583 57.9422 235.533 57.5106C232.188 56.8093 228.897 55.9461 226.038 53.896C223.826 52.3314 222.477 50.2813 222.153 47.5299C221.776 44.8324 222.261 42.3507 223.88 40.1927C225.228 38.4124 227.009 37.2255 229.113 36.4162C230.839 35.7688 232.619 35.4451 234.454 35.2293C238.554 34.7977 242.438 35.4991 246.215 36.9557C247.294 37.3873 248.265 37.9268 249.29 38.4663C249.829 38.7361 249.937 39.2756 249.614 39.8151C249.02 40.8401 248.373 41.8652 247.725 42.8902C247.24 43.6455 247.078 43.6995 246.269 43.2679C244.974 42.6205 243.571 42.027 242.169 41.5954C239.849 40.8941 237.475 40.5164 235.047 40.6783C233.213 40.8401 231.433 41.2178 229.868 42.3507C227.818 43.8613 227.386 47.0444 229.221 48.8787C230.354 50.0116 231.756 50.5511 233.267 51.0366C236.072 51.8998 238.986 52.2235 241.845 52.9788C244.65 53.7341 247.348 54.8671 249.344 57.1869C250.207 58.212 250.747 59.4528 251.016 60.7476C251.502 63.1214 251.34 65.4413 250.369 67.6532C249.56 69.5415 248.211 70.9981 246.539 72.1311C244.542 73.4798 242.277 74.1812 239.849 74.5049C238.608 74.6667 237.421 74.7746 236.504 74.7207Z" fill="#009EE2"/>
</g>
<defs>
<clipPath id="clip0">
<rect x="-13.5" width="280" height="95.869" fill="white"/>
</clipPath>
</defs>
</svg>
