<svg width="280" height="97" viewBox="0 0 280 97" fill="none" xmlns="http://www.w3.org/2000/svg">
<path d="M280 86.0028C279.838 86.5962 279.73 87.2436 279.514 87.8371C278.112 92.1531 275.252 94.9585 270.828 96.1454C270.019 96.3612 269.156 96.523 268.293 96.523C240.994 96.523 213.749 96.523 186.451 96.523C183.699 96.523 181.218 95.444 179.114 93.6637C177.333 92.207 176.2 90.3188 175.445 88.2147C175.013 86.9739 174.852 85.6791 174.798 84.3303C174.798 75.4286 174.798 66.5269 174.798 57.5712C174.798 56.9777 174.636 56.8698 174.096 56.8698C168.162 56.8698 162.281 56.8698 156.347 56.8698C156.131 56.8698 155.861 56.8698 155.699 56.8698C156.293 56.2224 156.886 55.5751 157.426 54.9277C157.534 54.8198 157.642 54.7658 157.749 54.7118C159.098 53.4171 160.447 52.0683 161.85 50.7735C163.198 49.4248 164.601 48.076 166.004 46.7812C168 44.9469 169.942 43.0047 171.938 41.1165C172.802 40.3072 173.611 39.498 174.474 38.6887C174.798 38.419 174.906 38.0953 174.906 37.6637C174.906 29.3554 174.852 21.1011 174.906 12.7928C174.906 9.93344 175.769 7.34384 177.603 5.07794C179.437 2.81205 181.811 1.51725 184.563 0.815902C185.048 0.708003 185.588 0.654053 186.073 0.654053C213.48 0.654053 240.94 0.654053 268.347 0.654053C270.775 0.654053 272.933 1.4633 274.929 2.81205C276.601 3.945 277.896 5.45559 278.759 7.28989C279.299 8.47679 279.784 9.71764 279.892 11.0124C279.892 11.0664 279.946 11.1203 280 11.1203C280 36.0991 280 61.024 280 86.0028ZM227.453 7.12804C215.044 7.12804 202.69 7.12804 190.281 7.12804C188.663 7.12804 187.152 7.45174 185.803 8.31494C183.376 9.87949 181.973 12.0914 181.973 14.8968C181.919 37.1781 181.973 59.4055 181.919 81.6868C181.919 84.3843 182.944 86.5962 185.048 88.2687C186.451 89.4016 188.069 89.9951 189.904 89.9951C214.613 89.9951 239.376 89.9951 264.085 89.9951C266.189 89.9951 268.077 89.5095 269.749 88.1608C271.584 86.6502 272.771 84.7619 272.771 82.3881C272.825 59.7831 272.771 37.1781 272.771 14.5731C272.771 14.3573 272.771 14.1415 272.717 13.9257C272.339 12.0375 271.53 10.419 270.073 9.12419C268.67 7.88334 267.052 7.12804 265.218 7.12804C252.701 7.12804 240.077 7.12804 227.453 7.12804Z" fill="#009EE2"/>
<path d="M76.9865 66.0955C76.9865 70.4654 76.9865 74.8354 76.9865 79.2592C76.9865 80.0685 76.6628 80.5001 75.9615 80.7698C74.3969 81.3633 72.7245 81.7409 71.106 82.1725C69.4875 82.5502 67.869 82.766 66.2505 83.0357C65.3333 83.1976 64.4162 83.2515 63.499 83.3055C61.6108 83.4673 59.7765 83.5213 57.8882 83.4134C54.4354 83.2515 51.0366 82.766 47.9075 81.0935C44.2929 79.1513 41.9191 76.238 41.1638 72.0839C40.6243 69.0088 40.8401 66.0415 42.2428 63.1822C43.4297 60.8084 45.3179 59.028 47.6378 57.7872C49.9037 56.5463 52.2775 55.845 54.8131 55.5752C55.8921 55.4673 56.9711 55.4673 58.0501 55.3055C59.5607 55.0897 61.0713 55.3055 62.5819 55.3594C64.2543 55.4134 65.8728 55.6292 67.4913 55.9529C68.1927 56.1147 68.894 56.1687 69.5954 56.3305C69.9191 56.3845 69.8651 56.2226 69.8651 56.0608C69.9191 53.687 69.9191 51.3132 69.1098 49.0473C68.3006 46.8893 66.79 45.3787 64.6859 44.4076C62.1503 43.2207 59.5067 43.1128 56.8632 43.3286C53.5723 43.5984 50.5511 44.7313 47.6917 46.3498C46.5048 47.0512 46.289 47.4828 45.3719 45.8643C44.7784 44.7853 44.131 43.7602 43.5915 42.6812C43.106 41.7641 43.2139 41.5483 44.0771 40.9548C47.0443 39.0666 50.3353 37.9876 53.788 37.3402C56.2158 36.8546 58.6975 36.8546 61.1252 37.0165C63.9846 37.1783 66.79 37.7718 69.3256 39.2284C73.1021 41.3325 75.5838 44.4616 76.3931 48.8315C76.7707 50.8816 76.9326 52.9317 76.9326 54.9818C76.9326 58.6504 76.9865 62.3729 76.9865 66.0955ZM69.973 69.2785C69.973 67.2824 69.973 65.2862 69.973 63.344C69.973 63.0743 70.027 62.8045 69.6493 62.7506C67.1676 62.265 64.6859 61.8334 62.1503 61.7255C59.5067 61.6176 56.8092 61.5097 54.1657 62.2111C52.6012 62.6427 51.0906 63.1822 49.9037 64.3151C48.0694 65.9876 47.5299 68.1456 47.9075 70.5733C48.2852 72.8392 49.58 74.4577 51.5761 75.5367C53.842 76.7236 56.2697 76.9933 58.7514 77.1012C60.7476 77.2091 62.7437 76.9933 64.7399 76.7236C66.3044 76.5617 67.869 76.2381 69.3796 75.8065C69.8112 75.6986 69.9191 75.5367 69.9191 75.1051C69.973 73.1629 69.973 71.2207 69.973 69.2785Z" fill="#009EE2"/>
<path d="M132.501 56.8159C133.526 55.5211 134.659 54.6039 135.576 53.5249C135.684 53.3631 135.792 53.2012 135.954 53.0933C137.41 51.5827 138.921 50.0721 140.378 48.5076C142.104 46.6733 143.83 44.8929 145.557 43.0587C147.175 41.3862 148.74 39.6059 150.412 37.9874C150.79 37.6097 151.168 37.4479 151.653 37.4479C153.757 37.4479 155.861 37.4479 157.911 37.4479C158.235 37.4479 158.559 37.3939 158.721 37.7716C158.882 38.0953 158.775 38.4729 158.505 38.6887C158.073 39.1743 157.642 39.6598 157.21 40.0914C155.214 42.1955 153.11 44.2456 151.06 46.4035C148.74 48.8852 146.366 51.313 143.992 53.7407C143.183 54.6039 142.374 55.4671 141.511 56.2764C141.133 56.6001 141.241 56.8698 141.457 57.1396C142.482 58.3804 143.453 59.6752 144.478 60.9161C146.42 63.3978 148.308 65.9334 150.304 68.4151C152.408 71.1126 154.566 73.8101 156.67 76.5076C158.019 78.18 159.314 79.9064 160.609 81.6328C161.094 82.2802 160.771 82.9276 159.961 82.9276C157.911 82.9276 155.915 82.9816 153.865 82.9276C153.326 82.9276 152.84 82.6579 152.462 82.1723C151.168 80.4459 149.819 78.7735 148.524 77.101C147.391 75.6444 146.258 74.2417 145.125 72.785C143.776 71.0586 142.428 69.3323 141.133 67.6059C139.622 65.6097 138.058 63.6675 136.493 61.6714C135.198 62.9662 133.904 64.3149 132.555 65.6097C132.339 65.8255 132.393 66.0953 132.393 66.365C132.393 71.4363 132.393 76.5615 132.393 81.6328C132.393 82.6039 132.069 82.9276 131.098 82.9276C129.588 82.9276 128.077 82.9276 126.566 82.9276C125.595 82.9276 125.272 82.6039 125.272 81.6328C125.272 61.7793 125.272 41.9797 125.272 22.1261C125.272 21.0471 125.595 20.7773 126.674 20.7773C128.185 20.7773 129.642 20.7773 131.152 20.7773C132.069 20.7773 132.447 21.101 132.447 22.0182C132.447 33.3477 132.447 44.6232 132.447 55.9527C132.501 56.1685 132.501 56.3843 132.501 56.8159Z" fill="#009EE2"/>
<path d="M27.3526 54.5499C27.3526 63.5056 27.3526 72.4613 27.3526 81.4169C27.3526 82.2801 27.0289 82.6578 26.1117 82.6578C24.3854 82.6578 22.605 82.6578 20.8786 82.6578C19.9615 82.6578 19.6917 82.388 19.6917 81.4709C19.6917 63.5056 19.6917 45.5942 19.6917 27.6289C19.6917 26.9815 19.5299 26.8196 18.8825 26.8196C12.948 26.8196 6.95954 26.8196 1.02505 26.8196C0.2158 26.8196 0 26.6038 0 25.7946C0 24.1761 0 22.5576 0 20.9391C0 20.1838 0.2158 19.9141 0.971098 19.8062C1.13295 19.8062 1.2948 19.8062 1.5106 19.8062C16.185 19.8062 30.8593 19.8062 45.5337 19.8062C45.8574 19.8062 46.2351 19.8062 46.5588 19.968C46.9364 20.1299 47.2062 20.3996 47.2062 20.8312C47.2062 22.5036 47.2062 24.1761 47.2062 25.7946C47.2062 26.442 46.7746 26.8196 46.0732 26.8196C40.1387 26.8196 34.1503 26.8196 28.2158 26.8196C27.5684 26.8196 27.3526 26.9275 27.3526 27.6289C27.4065 36.5846 27.3526 45.5942 27.3526 54.5499Z" fill="#009EE2"/>
<path d="M100.724 36.9085C105.58 36.8006 109.896 37.8796 113.888 40.0376C114.428 40.3073 114.967 40.631 115.453 41.0087C115.83 41.3324 115.884 41.71 115.669 42.1416C114.967 43.5443 114.212 44.8391 113.403 46.1879C113.025 46.7813 112.593 46.9432 112.054 46.5655C109.896 45.1628 107.522 44.2996 105.04 43.7601C102.019 43.1127 98.9981 42.9509 96.0308 43.922C94.0347 44.5694 92.5241 45.8102 91.9306 47.9143C91.3911 49.7486 91.6069 51.5289 92.9557 52.9856C94.0886 54.1725 95.5992 54.8738 97.1638 55.3594C99.6455 56.1147 102.181 56.6002 104.717 57.1937C107.846 57.949 110.867 58.8661 113.457 60.8622C115.453 62.4268 116.64 64.5308 117.125 67.0125C117.395 68.3073 117.449 69.6021 117.341 70.8969C117.179 73.4326 116.37 75.8064 114.751 77.8565C112.486 80.7158 109.41 82.1725 105.958 82.9278C103.692 83.4133 101.318 83.5751 98.9981 83.4133C96.1927 83.2515 93.4412 82.7659 90.8517 81.7409C88.8016 80.9316 86.8594 79.8526 85.079 78.4499C84.9711 78.396 84.9172 78.2881 84.8093 78.2341C83.7842 77.5328 83.6763 77.0472 84.2698 76.0222C84.9711 74.8353 85.6185 73.6484 86.3199 72.4615C86.6975 71.7601 87.1291 71.7062 87.6686 72.1378C89.1792 73.3786 90.7977 74.5116 92.578 75.3208C94.1965 76.0761 95.869 76.5617 97.6493 76.7775C98.6744 76.8854 99.6994 77.0472 100.778 77.0472C103.152 76.9393 105.472 76.6156 107.468 75.2669C109.087 74.1879 110.058 72.6773 110.22 70.7351C110.328 69.4942 110.166 68.3613 109.518 67.2823C108.979 66.4191 108.277 65.7717 107.36 65.2861C105.472 64.315 103.422 63.8295 101.372 63.3439C98.8362 62.7505 96.3006 62.2649 93.8728 61.4017C91.6069 60.6464 89.5029 59.5674 87.7765 57.895C86.2659 56.4384 85.2948 54.658 84.9711 52.554C84.7553 51.3671 84.6474 50.2341 84.7014 49.0472C84.8632 46.4037 85.7264 44.0299 87.4528 41.9798C89.0713 39.9836 91.1754 38.6888 93.5491 37.8796C94.8979 37.394 96.3545 37.1782 97.8112 37.0164C98.9981 36.9085 99.9692 36.9624 100.724 36.9085Z" fill="#009EE2"/>
<path d="M198.697 46.2955C198.644 49.8023 198.644 53.309 198.697 56.8697C198.751 59.1896 199.183 61.5094 200.262 63.6135C201.773 66.5807 204.254 68.361 207.437 69.2242C208.84 69.6019 210.297 69.8177 211.807 69.7098C214.667 69.6019 217.364 69.0084 219.738 67.2281C221.734 65.7175 222.975 63.6674 223.676 61.2397C224.054 59.8909 224.324 58.4882 224.324 57.0855C224.378 52.4458 224.432 47.8061 224.324 43.1664C224.108 36.5306 224.324 29.8408 224.216 23.205C224.216 22.3957 224.432 22.1799 225.241 22.1799C226.751 22.1799 228.262 22.1799 229.773 22.1799C230.474 22.1799 230.744 22.3957 230.69 23.0971C230.582 30.1106 230.852 37.1241 230.852 44.0836C230.798 48.7772 230.906 53.4709 230.852 58.1106C230.798 60.4844 230.258 62.8042 229.341 65.0162C228.424 67.2281 227.129 69.1163 225.403 70.7348C223.407 72.5691 221.033 73.8639 218.389 74.6732C215.368 75.5903 212.347 75.6982 209.272 75.5364C206.089 75.3206 203.067 74.4034 200.316 72.677C196.809 70.4651 194.597 67.3899 193.302 63.5595C192.817 62.1568 192.547 60.6462 192.439 59.1896C192.223 56.546 192.385 53.9564 192.331 51.3129C192.277 48.8851 192.385 46.4574 192.331 43.9757C192.062 37.1241 192.277 30.2724 192.223 23.4208C192.223 22.6115 192.439 22.3418 193.249 22.3418C194.759 22.3418 196.216 22.3418 197.726 22.3418C198.482 22.3418 198.697 22.5036 198.697 23.2589C198.482 30.9198 198.751 38.5807 198.697 46.2955Z" fill="#009EE2"/>
<path d="M250.004 75.3747C246.119 75.4287 242.775 74.6734 239.484 73.2707C238.027 72.6233 236.678 71.814 235.383 70.9508C234.736 70.5192 234.628 70.0876 235.006 69.4402C235.599 68.3073 236.247 67.2283 236.894 66.1493C237.218 65.5558 237.649 65.5019 238.243 65.9335C240.293 67.3901 242.451 68.5231 244.879 69.2244C246.821 69.7639 248.817 70.0876 250.813 69.9258C252.647 69.7639 254.374 69.4402 255.992 68.4152C257.719 67.3362 258.582 65.8256 258.528 63.8834C258.42 61.7793 257.071 60.4845 255.183 59.7292C253.187 58.92 251.083 58.5963 249.033 58.1647C245.688 57.4633 242.397 56.6001 239.538 54.55C237.326 52.9855 235.977 50.9354 235.653 48.184C235.276 45.4865 235.761 43.0048 237.38 40.8468C238.728 39.0664 240.509 37.8795 242.613 37.0703C244.339 36.4229 246.119 36.0992 247.954 35.8834C252.054 35.4518 255.938 36.1531 259.715 37.6098C260.794 38.0414 261.765 38.5809 262.79 39.1204C263.329 39.3901 263.437 39.9296 263.114 40.4691C262.52 41.4942 261.873 42.5192 261.225 43.5443C260.74 44.2996 260.578 44.3535 259.769 43.9219C258.474 43.2745 257.071 42.6811 255.669 42.2495C253.349 41.5481 250.975 41.1705 248.547 41.3323C246.713 41.4942 244.933 41.8718 243.368 43.0048C241.318 44.5154 240.886 47.6984 242.721 49.5327C243.854 50.6657 245.256 51.2051 246.767 51.6907C249.572 52.5539 252.486 52.8776 255.345 53.6329C258.15 54.3882 260.848 55.5211 262.844 57.841C263.707 58.866 264.247 60.1069 264.516 61.4017C265.002 63.7755 264.84 66.0953 263.869 68.3073C263.06 70.1955 261.711 71.6522 260.039 72.7851C258.042 74.1339 255.776 74.8352 253.349 75.1589C252.108 75.3208 250.921 75.4287 250.004 75.3747Z" fill="#009EE2"/>
</svg>
