<svg width="301" height="23" viewBox="0 0 301 23" fill="none" xmlns="http://www.w3.org/2000/svg">
<path d="M291.134 11.4538H285.546V3.42376H291.329C294.025 3.49576 295.991 5.05376 295.999 7.60376C295.969 9.84876 294.515 11.3898 291.133 11.4538H291.134ZM300.232 20.6368C298.556 18.3968 296.049 15.0788 294.956 13.6268C297.416 12.5698 299.128 10.4518 299.128 7.54676C299.121 3.80876 296.048 0.521757 291.394 0.521757H283.248L283.19 0.507757C282.882 0.507757 282.312 1.07776 282.312 1.49976C282.302 1.85676 282.302 20.8718 282.312 21.3078C282.318 21.4608 282.288 21.6258 282.478 21.9278C282.724 22.2598 283.088 22.2778 283.248 22.2778H284.605C284.68 22.2778 284.968 22.2998 285.318 21.9548C285.575 21.6588 285.533 21.4748 285.546 21.3078V14.2928H291.614L297.134 21.7778C297.278 22.0158 297.781 22.2778 298.144 22.2778H299.467C299.563 22.2778 300.509 22.0308 300.509 21.4118C300.539 21.1188 300.316 20.7318 300.231 20.6368H300.232ZM273.519 20.4738C273.499 20.2968 273.614 20.1338 273.309 19.6588C272.966 19.3728 272.744 19.3728 272.569 19.3728C272.549 19.3728 272.491 19.3968 272.439 19.3728H260.969V12.6798H272.222C272.906 12.6798 273.176 11.7378 273.176 11.4838V10.8638C273.176 10.7058 272.873 9.76376 272.222 9.76376H261V3.42776H272.35C272.492 3.44376 272.907 3.42276 273.183 3.06176C273.39 2.70776 273.373 2.52476 273.383 2.32376V1.56376C273.327 1.38676 273.419 1.17576 273.177 0.793757C272.842 0.523757 272.57 0.523758 272.411 0.523758H258.565C258.479 0.507758 258.318 0.507758 258.045 0.690758C257.689 1.02676 257.805 1.30076 257.79 1.35076V21.1768C257.805 21.3708 257.705 21.5538 257.937 21.8668C258.177 22.2228 258.535 22.2768 258.722 22.2768H272.57C272.7 22.2768 272.907 22.2838 273.254 22.0148C273.604 21.6248 273.509 21.4108 273.519 21.2278V20.4738ZM241.76 9.64176L248.793 1.98476C248.907 1.84176 249.026 1.67476 249.026 1.45976C248.976 0.873757 248.533 0.522758 248 0.522758H246.7C246.262 0.477758 245.814 0.785757 245.69 0.872757L235.112 12.5478V1.53776C235.112 1.38776 235.136 1.17576 234.902 0.830758C234.638 0.530758 234.272 0.522758 234.112 0.522758H232.9C232.75 0.522758 232.464 0.522758 232.147 0.776758C231.89 1.05676 231.897 1.33976 231.897 1.49876C231.89 1.77676 231.89 21.1028 231.897 21.3248C231.897 21.4808 231.897 21.7768 232.159 21.9968C232.415 22.2348 232.724 22.2768 232.941 22.2768H234.026C234.216 22.2588 234.453 22.2838 234.826 22.0468C235.136 21.7528 235.111 21.4418 235.111 21.3248V16.8728L239.501 12.0628L246.986 21.6578C247.27 21.8818 247.363 22.1408 248.166 22.2778H249.589C249.919 22.2778 250.587 21.9548 250.587 21.4208C250.58 21.1128 250.485 20.9688 250.365 20.8108L241.76 9.64076V9.64176ZM214.36 11.4538H208.733V3.42376H214.503C217.205 3.49576 219.209 5.05376 219.231 7.60376C219.201 9.84876 217.742 11.3898 214.36 11.4538ZM218.173 13.6268C220.629 12.5698 222.36 10.4518 222.351 7.54676C222.351 3.80876 219.305 0.521757 214.576 0.521757H206.456L206.426 0.506757C206.126 0.506757 205.543 1.07676 205.543 1.49876V21.3078C205.55 21.4608 205.503 21.6258 205.726 21.9278C205.97 22.2598 206.336 22.2778 206.456 22.2778H207.798C207.855 22.2778 208.184 22.2998 208.518 21.9548C208.788 21.6588 208.734 21.4748 208.734 21.3078V14.2928H214.834L220.384 21.7778C220.494 22.0158 220.996 22.2778 221.376 22.2778H222.646C222.781 22.2778 223.728 22.0308 223.728 21.4118C223.741 21.1188 223.525 20.7318 223.44 20.6368C221.75 18.3968 219.297 15.0788 218.173 13.6268ZM182.99 14.5388C183.97 12.6438 186.112 8.39576 187.543 5.39576C187.56 5.38576 187.568 5.37976 187.568 5.36976C187.598 5.38576 187.606 5.39476 187.63 5.42176C189.092 8.38776 191.192 12.6418 192.12 14.5378L182.99 14.5388ZM188.488 0.595757C188.488 0.577757 188.17 -0.0242425 187.568 0.000757492C186.998 -0.0232425 186.703 0.595757 186.703 0.595757C184.687 4.38076 177.528 18.5958 176.393 20.8718C176.296 20.9758 176.22 21.1188 176.22 21.4618C176.296 22.2778 177.14 22.2778 177.302 22.2778H178.37C178.885 22.3638 179.513 21.8028 179.533 21.5798L181.665 17.3718H193.505L195.655 21.6648C195.677 21.8578 196.225 22.2848 196.575 22.2848C196.59 22.2848 196.615 22.2848 196.635 22.2778H197.965C198.203 22.2778 198.973 22.0158 198.973 21.4518C198.955 21.1888 198.861 21.0638 198.829 20.9058C197.556 18.3478 190.424 4.46876 188.487 0.595757H188.488ZM165.48 11.5028C163.718 11.4848 160.98 11.4848 159.646 11.4848V3.42776H165.42C168.04 3.49576 170.074 4.92076 170.074 7.45976C170.06 10.1518 168.052 11.4758 165.481 11.5028H165.48ZM165.518 0.522758H157.362C157.25 0.507758 156.939 0.532757 156.708 0.785757C156.483 1.02576 156.436 1.27576 156.436 1.49976V21.3078C156.483 21.4608 156.386 21.6258 156.68 21.9778C156.957 22.2778 157.234 22.2778 157.354 22.2778H158.767C158.87 22.2778 159.257 22.2778 159.497 21.8818C159.703 21.5548 159.625 21.4218 159.647 21.3078V14.3898H164.911C169.759 14.3798 173.275 11.7398 173.293 7.45976C173.275 3.15976 169.592 0.522758 165.518 0.522758ZM131.943 0.522758H130.67C130.25 0.502758 129.79 0.912757 129.672 1.18276C128.577 2.81776 124.805 8.59476 123.337 10.8808C121.86 8.56076 118.1 2.73776 117.004 1.09776C117.004 0.904757 116.268 0.412758 115.948 0.522758H114.821C114.601 0.522758 113.829 0.522757 113.673 1.34976C113.687 1.62776 113.791 1.76776 113.829 1.85676C115.416 4.30876 120.887 12.8068 121.742 14.0718V21.2618C121.759 21.4598 121.696 21.6578 121.982 21.9758C122.187 22.2338 122.5 22.2758 122.659 22.2758H123.901C124.091 22.2758 124.361 22.2758 124.704 21.9758C124.981 21.5988 124.918 21.3958 124.918 21.1858V14.0708C125.768 12.8308 131.048 4.68076 132.766 1.95876C132.831 1.76576 132.918 1.70476 132.942 1.34876C132.886 0.563757 132.054 0.520757 131.945 0.520757L131.943 0.522758ZM100.61 19.3978H93.5268V12.7298H100.553C103.623 12.7758 105.189 14.1428 105.216 16.1168C105.126 18.3618 103.976 19.2688 100.611 19.3968L100.61 19.3978ZM93.5278 3.42276H99.6748C102.605 3.50276 104.001 4.75576 104.038 6.63576C103.872 9.04576 103.183 9.76376 100.193 9.88876H93.5278V3.42376V3.42276ZM105.295 11.0088C106.525 10.0968 107.302 8.56176 107.257 6.51176C107.257 2.64476 103.677 0.523758 99.4708 0.523758H91.3208C91.1758 0.523758 90.8748 0.523758 90.5738 0.761758C90.2788 0.993758 90.2788 1.34176 90.2788 1.53976V21.3098C90.2788 21.6278 90.7958 22.2798 91.2488 22.2798H100.841C105.491 22.2798 108.431 20.2148 108.446 16.1198C108.446 13.8428 107.216 11.9538 105.296 11.0098L105.295 11.0088ZM72.7248 11.4548H67.0478V3.42776H72.8658C75.5198 3.49576 77.5158 5.05476 77.5658 7.60276C77.4698 9.84876 76.0408 11.4128 72.7238 11.4528L72.7248 11.4548ZM76.5098 13.6348C78.9618 12.5718 80.7078 10.4548 80.7078 7.54876C80.6598 3.80076 77.6318 0.522758 72.9448 0.522758H64.7778C64.6608 0.507758 64.3418 0.532757 64.1278 0.785757C63.8978 1.02576 63.8738 1.27576 63.8738 1.49976V21.3078C63.8738 21.4608 63.8178 21.6258 64.0318 21.9178C64.3098 22.2778 64.6738 22.2778 64.8188 22.2778H66.1508C66.2708 22.2778 66.5408 22.2778 66.8478 21.9778C67.1178 21.6258 67.0298 21.4608 67.0618 21.3078V14.3258H73.1668L78.7108 21.7778C78.8808 21.9978 79.2808 22.2778 79.6408 22.2778H80.9828C81.1248 22.2778 82.0448 22.0718 82.0448 21.4118C82.0598 21.1118 81.8248 20.7218 81.7498 20.6368C80.0838 18.4138 77.6168 15.0788 76.5058 13.6328L76.5098 13.6348ZM41.1348 14.5408C42.0718 12.6458 44.2298 8.39776 45.6988 5.39776C45.6988 5.38776 45.7058 5.38176 45.7058 5.35776C45.7128 5.38776 45.7318 5.39776 45.7458 5.42376C47.2388 8.38976 49.3018 12.6438 50.2698 14.5398H41.1348V14.5408ZM46.5978 0.595757C46.5978 0.577757 46.3348 -0.0242425 45.7138 0.000757492C45.1438 -0.0232425 44.8038 0.595757 44.8038 0.595757C42.8438 4.38076 35.6668 18.5958 34.5268 20.8718C34.4368 20.9758 34.3268 21.1188 34.3268 21.4618C34.4368 22.2778 35.2968 22.2778 35.4468 22.2778H36.5168C37.0268 22.3638 37.6228 21.8028 37.6928 21.5798L39.7388 17.3718H51.6138L53.7408 21.6648C53.7608 21.8578 54.3408 22.2848 54.6708 22.2848C54.6908 22.2848 54.7308 22.2848 54.7478 22.2778H56.1048C56.3328 22.2778 57.0848 22.0158 57.0848 21.4518C57.0848 21.1888 57.0148 21.0638 56.9308 20.9058C55.6998 18.3478 48.5798 4.46776 46.5978 0.595757ZM30.2228 0.522758H29.1498C28.8838 0.437758 28.0498 0.819757 28.0498 1.17576L22.3768 16.0778L16.8598 1.06376C16.7598 0.587757 15.9998 0.427757 15.9428 0.467757H15.8568C15.5728 0.373757 14.9708 0.857757 14.9708 1.07776L9.62777 16.0908C8.29377 12.7148 5.43977 5.45976 3.81277 1.30776C3.74477 0.977757 3.27277 0.477758 2.76977 0.522758H1.38677C1.29677 0.522758 1.16677 0.507757 0.866773 0.635758C0.588773 0.795758 0.484773 1.17576 0.501773 1.32576C0.501773 1.57276 0.581773 1.68276 0.616773 1.85576L8.66377 22.1558C8.96877 22.6418 9.41977 22.7358 9.56377 22.7358H9.62777C9.62777 22.7358 10.3528 22.7798 10.5708 22.0958C12.1038 17.8808 14.6838 10.9288 15.9208 7.62776C17.1328 10.9678 19.7128 18.0458 21.2348 22.1018C21.3348 22.5868 22.1248 22.7548 22.2108 22.7358C22.2728 22.7558 23.0638 22.5858 23.1358 22.1258C25.8338 15.3658 29.0638 7.22176 31.1508 1.85576C31.2048 1.68276 31.2308 1.61876 31.2528 1.34976C31.2528 0.635757 30.3088 0.522758 30.2228 0.522758Z" fill="#414B56"/>
</svg>
